<svg width="256" height="256" viewBox="0 0 256 256" fill="none" xmlns="http://www.w3.org/2000/svg">
<path d="M229.307 26.7448C205.155 2.69114 170.431 0 127.992 0C85.5027 0 50.7285 2.71614 26.5847 26.8448C2.44936 50.9567 0 85.6833 0 128.125C0 170.567 2.44936 205.31 26.6014 229.43C50.7451 253.559 85.5111 256 128 256C170.489 256 205.255 253.559 229.399 229.43C253.542 205.302 256 170.567 256 128.125C255.992 85.6249 253.509 50.8651 229.307 26.7448Z" fill="#0074FF"/>
<path d="M66 191.724C80.3282 190.282 95.2967 189.34 110.729 188.997C119.83 188.793 128.775 188.813 137.537 189.011C142.737 172.307 145.41 154.489 145.005 136.014C144.096 95.2087 128.52 58.2242 103.503 30C107.841 44.2142 110.37 59.2451 110.716 74.8491C111.716 120.021 94.5519 161.313 66 191.724Z" fill="white"/>
<path d="M144.913 97.5602C148.631 110.852 150.761 124.823 151.081 139.267C151.466 156.604 149.212 173.38 144.691 189.208C157 189.524 163.972 190.097 175.634 191.204C175.941 187.067 176.065 182.878 175.974 178.643C175.281 147.567 163.652 119.343 144.913 97.5602Z" fill="white"/>
<path d="M116.649 195.479C99.3999 195.479 82.7196 196.282 66.8625 197.758C71.4295 209.831 93.9182 219 121 219C147.442 219 169.519 210.253 174.791 198.601C156.491 196.585 136.955 195.479 116.649 195.479Z" fill="white"/>
</svg>
