<svg viewBox="130 160 780 200" preserveAspectRatio="xMidYMid meet" data-bbox="141.995 168.864 740.011 174.274" xmlns="http://www.w3.org/2000/svg" fill-rule="evenodd" clip-rule="evenodd" stroke-linejoin="round" stroke-miterlimit="2" data-type="ugc" role="presentation" aria-hidden="true">
    <g>
        <path fill="#FFFFFF" d="M141.995 168.864h199.851l3.757.178c18.549 1.768 33.344 16.489 35.227 35.005l.202 4.003v19.594c0-10.138-7.716-18.488-17.59-19.493l-2.003-.1h-43.105v135.087h-40.443l1.257-48.877h-19.593l-.254-.001c-21.51-.137-38.933-17.642-38.933-39.186h58.78v-3.918h-58.78l-.254-.001c-21.51-.137-38.932-17.642-38.932-39.186h97.966v-3.919h-98.22c-21.51-.137-38.933-17.642-38.933-39.186Z"></path>
        <path fill="#FFFFFF" d="M376.767 340.86v-73.59h-29.18v-26.048h91.952v26.048h-29.18v73.59h-33.592Z" fill-rule="nonzero"></path>
        <path fill="#FFFFFF" d="M512.845 241.222h33.593v99.638h-33.593v-99.638Zm-31.03 99.638h-33.593v-99.638h33.593v99.638Zm33.308-36.724h-35.586v-27.614h35.586v27.614Z" fill-rule="nonzero"></path>
        <path fill="#FFFFFF" d="M615.046 343.138c-8.16 0-15.68-1.281-22.561-3.843-6.88-2.562-12.833-6.192-17.864-10.89a50.07 50.07 0 0 1-11.743-16.582c-2.798-6.359-4.2-13.287-4.2-20.782 0-7.593 1.402-14.543 4.2-20.853a50.242 50.242 0 0 1 11.743-16.511c5.031-4.698 10.985-8.327 17.864-10.89 6.881-2.562 14.354-3.843 22.419-3.843 8.162 0 15.657 1.281 22.49 3.843 6.832 2.563 12.764 6.192 17.792 10.89a50.177 50.177 0 0 1 11.743 16.511c2.8 6.31 4.2 13.26 4.2 20.853 0 7.495-1.4 14.423-4.2 20.782a50.006 50.006 0 0 1-11.743 16.583c-5.028 4.697-10.96 8.327-17.792 10.889-6.833 2.562-14.281 3.843-22.348 3.843Zm-.142-27.187c3.131 0 6.05-.57 8.754-1.708a21.03 21.03 0 0 0 7.117-4.911c2.041-2.135 3.63-4.746 4.768-7.829 1.139-3.085 1.708-6.572 1.708-10.462 0-3.892-.57-7.38-1.708-10.462-1.139-3.085-2.727-5.694-4.768-7.829a21.03 21.03 0 0 0-7.117-4.91c-2.705-1.14-5.623-1.709-8.754-1.709s-6.05.57-8.754 1.708a21.053 21.053 0 0 0-7.117 4.911c-2.04 2.135-3.63 4.744-4.769 7.829-1.139 3.083-1.708 6.57-1.708 10.462 0 3.89.57 7.377 1.708 10.462 1.139 3.083 2.73 5.694 4.769 7.829a21.053 21.053 0 0 0 7.117 4.91c2.704 1.14 5.622 1.709 8.754 1.709Z" fill-rule="nonzero"></path>
        <path fill="#FFFFFF" d="M683.37 340.86v-99.638h47.969c9.3 0 17.343 1.516 24.127 4.555 6.785 3.035 12.027 7.377 15.728 13.024 3.701 5.645 5.552 12.312 5.552 19.999 0 7.686-1.85 14.305-5.552 19.856-3.7 5.552-8.943 9.797-15.728 12.74-6.784 2.94-14.826 4.412-24.127 4.412h-29.323l14.946-13.807v38.86H683.37Zm59.64 0-24.482-36.297h35.585l24.768 36.297h-35.87Zm-26.048-35.158-14.946-15.23h27.188c4.65 0 8.09-1.046 10.32-3.132 2.23-2.088 3.344-4.935 3.344-8.54 0-3.608-1.114-6.455-3.345-8.54-2.228-2.09-5.669-3.132-10.32-3.132h-27.187l14.946-15.23v53.804Z" fill-rule="nonzero"></path>
        <path fill="#FFFFFF" d="m800.374 290.185-21.494-49.82h12.455l18.79 44.126h-7.331l19.073-44.126h11.459l-21.565 49.82h-11.387Z" fill-rule="nonzero"></path>
        <path fill="#FFFFFF" d="M860.94 291.039c-3.939 0-7.555-.628-10.854-1.886a25.51 25.51 0 0 1-8.611-5.374 24.665 24.665 0 0 1-5.694-8.184c-1.352-3.132-2.028-6.57-2.028-10.32 0-3.748.676-7.188 2.028-10.32a24.463 24.463 0 0 1 5.73-8.184c2.466-2.325 5.362-4.115 8.682-5.374 3.32-1.256 6.975-1.886 10.96-1.886 4.413 0 8.387.736 11.921 2.206 3.535 1.473 6.513 3.608 8.932 6.406l-7.401 6.832c-1.804-1.897-3.772-3.31-5.908-4.234-2.135-.926-4.459-1.388-6.974-1.388-2.42 0-4.626.38-6.62 1.138a14.775 14.775 0 0 0-5.159 3.274 14.699 14.699 0 0 0-3.345 5.053c-.783 1.946-1.174 4.106-1.174 6.477 0 2.326.391 4.461 1.174 6.405a15.037 15.037 0 0 0 3.345 5.089 14.559 14.559 0 0 0 5.124 3.31c1.969.76 4.14 1.138 6.512 1.138a20.484 20.484 0 0 0 6.655-1.103c2.16-.734 4.259-1.98 6.298-3.737l6.548 8.327c-2.704 2.042-5.847 3.608-9.43 4.698a36.575 36.575 0 0 1-10.711 1.637Zm9.608-7.83v-18.717h10.533v20.212l-10.533-1.494Z" fill-rule="nonzero"></path>
    </g>
</svg>