<svg viewBox="136 160 250 200" preserveAspectRatio="xMidYMid meet" data-bbox="141.995 168.864 740.011 174.274" xmlns="http://www.w3.org/2000/svg" fill-rule="evenodd" clip-rule="evenodd" stroke-linejoin="round" stroke-miterlimit="2" data-type="ugc" role="presentation" aria-hidden="true">
    <!--<rect x="100" y="150" width="300" height="200" fill="yellow" />-->
    <g>
        <path fill="black" d="M141.995 168.864h199.851l3.757.178c18.549 1.768 33.344 16.489 35.227 35.005l.202 4.003v19.594c0-10.138-7.716-18.488-17.59-19.493l-2.003-.1h-43.105v135.087h-40.443l1.257-48.877h-19.593l-.254-.001c-21.51-.137-38.933-17.642-38.933-39.186h58.78v-3.918h-58.78l-.254-.001c-21.51-.137-38.932-17.642-38.932-39.186h97.966v-3.919h-98.22c-21.51-.137-38.933-17.642-38.933-39.186Z"></path>
    </g>
</svg>