<svg width="882" height="454" viewBox="0 0 882 454" fill="none" xmlns="http://www.w3.org/2000/svg">
<rect width="882" height="454" fill="#F2F2F2"/>
<rect x="109" y="360" width="499" height="62" stroke="#222222" stroke-width="2" stroke-dasharray="8 10"/>
<rect x="109" y="120" width="499" height="218" stroke="#222222" stroke-width="2" stroke-dasharray="8 10"/>
<rect x="109" y="35" width="499" height="62" stroke="#222222" stroke-width="2" stroke-dasharray="8 10"/>
<rect x="115" y="126" width="488" height="206" fill="white" stroke="#222222" stroke-width="2"/>
<path d="M329.828 209.49V212.922H325.692V225H321.38V212.922H317.288V209.49H329.828ZM339.322 212.548C340.73 212.548 341.844 213.025 342.666 213.978C343.502 214.917 343.92 216.193 343.92 217.806V225H339.608V218.378C339.608 217.674 339.424 217.124 339.058 216.728C338.691 216.317 338.2 216.112 337.584 216.112C336.938 216.112 336.432 216.317 336.066 216.728C335.699 217.124 335.516 217.674 335.516 218.378V225H331.204V208.72H335.516V214.418C335.897 213.861 336.41 213.413 337.056 213.076C337.716 212.724 338.471 212.548 339.322 212.548ZM351.808 225.154C350.576 225.154 349.468 224.897 348.486 224.384C347.518 223.871 346.755 223.137 346.198 222.184C345.64 221.231 345.362 220.109 345.362 218.818C345.362 217.542 345.64 216.427 346.198 215.474C346.77 214.521 347.54 213.787 348.508 213.274C349.49 212.761 350.598 212.504 351.83 212.504C353.062 212.504 354.162 212.761 355.13 213.274C356.112 213.787 356.882 214.521 357.44 215.474C358.012 216.427 358.298 217.542 358.298 218.818C358.298 220.094 358.012 221.216 357.44 222.184C356.882 223.137 356.112 223.871 355.13 224.384C354.147 224.897 353.04 225.154 351.808 225.154ZM351.808 221.414C352.409 221.414 352.908 221.194 353.304 220.754C353.714 220.299 353.92 219.654 353.92 218.818C353.92 217.982 353.714 217.344 353.304 216.904C352.908 216.464 352.416 216.244 351.83 216.244C351.243 216.244 350.752 216.464 350.356 216.904C349.96 217.344 349.762 217.982 349.762 218.818C349.762 219.669 349.952 220.314 350.334 220.754C350.715 221.194 351.206 221.414 351.808 221.414ZM364.144 214.836C364.628 214.132 365.215 213.575 365.904 213.164C366.593 212.753 367.334 212.548 368.126 212.548V217.146H366.916C365.977 217.146 365.281 217.329 364.826 217.696C364.371 218.063 364.144 218.701 364.144 219.61V225H359.832V212.658H364.144V214.836ZM384.544 209.49L379.198 225H373.676L368.308 209.49H372.928L376.448 220.688L379.946 209.49H384.544ZM395.567 214.594C395.318 214.183 394.973 213.868 394.533 213.648C394.108 213.428 393.602 213.318 393.015 213.318C391.93 213.318 391.072 213.67 390.441 214.374C389.825 215.078 389.517 216.024 389.517 217.212C389.517 218.547 389.847 219.566 390.507 220.27C391.182 220.959 392.157 221.304 393.433 221.304C394.944 221.304 396.022 220.622 396.667 219.258H392.333V216.156H400.385V220.336C400.048 221.157 399.549 221.927 398.889 222.646C398.244 223.365 397.423 223.959 396.425 224.428C395.428 224.883 394.291 225.11 393.015 225.11C391.461 225.11 390.082 224.78 388.879 224.12C387.691 223.445 386.767 222.514 386.107 221.326C385.462 220.123 385.139 218.752 385.139 217.212C385.139 215.687 385.462 214.33 386.107 213.142C386.767 211.939 387.691 211.008 388.879 210.348C390.067 209.673 391.439 209.336 392.993 209.336C394.944 209.336 396.557 209.805 397.833 210.744C399.109 211.683 399.901 212.966 400.209 214.594H395.567ZM316.828 249V234.455H322.283C323.4 234.455 324.337 234.649 325.095 235.037C325.857 235.425 326.433 235.97 326.821 236.67C327.214 237.366 327.41 238.179 327.41 239.107C327.41 240.039 327.212 240.849 326.814 241.536C326.421 242.217 325.841 242.745 325.074 243.119C324.307 243.489 323.364 243.673 322.247 243.673H318.362V241.486H321.892C322.545 241.486 323.08 241.396 323.497 241.216C323.914 241.031 324.221 240.764 324.42 240.413C324.624 240.058 324.726 239.623 324.726 239.107C324.726 238.59 324.624 238.15 324.42 237.786C324.217 237.416 323.907 237.137 323.49 236.947C323.073 236.753 322.536 236.656 321.878 236.656H319.463V249H316.828ZM324.342 242.409L327.943 249H325.003L321.466 242.409H324.342ZM334.195 249.213C333.102 249.213 332.157 248.986 331.362 248.531C330.571 248.072 329.963 247.423 329.536 246.585C329.11 245.742 328.897 244.75 328.897 243.609C328.897 242.487 329.11 241.502 329.536 240.655C329.967 239.803 330.569 239.14 331.34 238.666C332.112 238.188 333.019 237.949 334.061 237.949C334.733 237.949 335.367 238.058 335.964 238.276C336.565 238.489 337.096 238.82 337.555 239.27C338.019 239.72 338.383 240.293 338.649 240.989C338.914 241.68 339.046 242.504 339.046 243.46V244.249H330.105V242.516H336.582C336.577 242.023 336.471 241.585 336.262 241.202C336.054 240.813 335.763 240.508 335.389 240.286C335.019 240.063 334.588 239.952 334.096 239.952C333.57 239.952 333.109 240.08 332.711 240.335C332.313 240.586 332.003 240.918 331.781 241.33C331.563 241.737 331.452 242.184 331.447 242.672V244.185C331.447 244.819 331.563 245.364 331.795 245.818C332.027 246.268 332.351 246.614 332.768 246.855C333.185 247.092 333.672 247.21 334.231 247.21C334.605 247.21 334.944 247.158 335.247 247.054C335.55 246.945 335.812 246.786 336.035 246.578C336.258 246.37 336.426 246.112 336.539 245.804L338.94 246.074C338.788 246.708 338.499 247.262 338.073 247.736C337.652 248.205 337.112 248.569 336.454 248.83C335.796 249.085 335.043 249.213 334.195 249.213ZM343.592 242.608V249H341.021V238.091H343.479V239.945H343.607C343.858 239.334 344.258 238.848 344.807 238.489C345.361 238.129 346.045 237.949 346.859 237.949C347.612 237.949 348.268 238.11 348.827 238.432C349.39 238.754 349.826 239.22 350.134 239.831C350.446 240.442 350.6 241.183 350.595 242.054V249H348.024V242.452C348.024 241.723 347.835 241.152 347.456 240.74C347.082 240.328 346.564 240.122 345.901 240.122C345.451 240.122 345.051 240.222 344.7 240.42C344.355 240.615 344.082 240.896 343.884 241.266C343.69 241.635 343.592 242.082 343.592 242.608ZM357.057 249.192C356.2 249.192 355.433 248.972 354.756 248.531C354.079 248.091 353.544 247.452 353.151 246.614C352.758 245.776 352.561 244.758 352.561 243.56C352.561 242.348 352.76 241.325 353.158 240.491C353.561 239.653 354.103 239.021 354.784 238.595C355.466 238.164 356.226 237.949 357.064 237.949C357.704 237.949 358.229 238.058 358.641 238.276C359.053 238.489 359.38 238.747 359.621 239.05C359.863 239.348 360.05 239.63 360.182 239.895H360.289V234.455H362.867V249H360.338V247.281H360.182C360.05 247.546 359.858 247.828 359.607 248.126C359.356 248.42 359.025 248.671 358.613 248.879C358.201 249.088 357.682 249.192 357.057 249.192ZM357.775 247.082C358.319 247.082 358.783 246.936 359.167 246.642C359.55 246.344 359.841 245.929 360.04 245.399C360.239 244.869 360.338 244.251 360.338 243.545C360.338 242.84 360.239 242.227 360.04 241.706C359.846 241.185 359.557 240.78 359.174 240.491C358.795 240.203 358.329 240.058 357.775 240.058C357.202 240.058 356.723 240.207 356.34 240.506C355.956 240.804 355.668 241.216 355.473 241.741C355.279 242.267 355.182 242.868 355.182 243.545C355.182 244.227 355.279 244.836 355.473 245.371C355.672 245.901 355.963 246.32 356.347 246.628C356.735 246.931 357.211 247.082 357.775 247.082ZM370.236 249.213C369.142 249.213 368.198 248.986 367.402 248.531C366.612 248.072 366.003 247.423 365.577 246.585C365.151 245.742 364.938 244.75 364.938 243.609C364.938 242.487 365.151 241.502 365.577 240.655C366.008 239.803 366.609 239.14 367.381 238.666C368.153 238.188 369.059 237.949 370.101 237.949C370.774 237.949 371.408 238.058 372.005 238.276C372.606 238.489 373.136 238.82 373.595 239.27C374.059 239.72 374.424 240.293 374.689 240.989C374.954 241.68 375.087 242.504 375.087 243.46V244.249H366.145V242.516H372.622C372.618 242.023 372.511 241.585 372.303 241.202C372.095 240.813 371.803 240.508 371.429 240.286C371.06 240.063 370.629 239.952 370.137 239.952C369.611 239.952 369.149 240.08 368.752 240.335C368.354 240.586 368.044 240.918 367.821 241.33C367.604 241.737 367.492 242.184 367.488 242.672V244.185C367.488 244.819 367.604 245.364 367.836 245.818C368.068 246.268 368.392 246.614 368.809 246.855C369.225 247.092 369.713 247.21 370.272 247.21C370.646 247.21 370.984 247.158 371.287 247.054C371.59 246.945 371.853 246.786 372.076 246.578C372.298 246.37 372.466 246.112 372.58 245.804L374.98 246.074C374.829 246.708 374.54 247.262 374.114 247.736C373.693 248.205 373.153 248.569 372.495 248.83C371.836 249.085 371.084 249.213 370.236 249.213ZM377.062 249V238.091H379.555V239.909H379.669C379.867 239.279 380.208 238.794 380.691 238.453C381.179 238.107 381.735 237.935 382.36 237.935C382.502 237.935 382.661 237.942 382.836 237.956C383.016 237.965 383.165 237.982 383.284 238.006V240.371C383.175 240.333 383.002 240.3 382.765 240.271C382.533 240.238 382.308 240.222 382.09 240.222C381.622 240.222 381.2 240.323 380.826 240.527C380.457 240.726 380.166 241.003 379.953 241.358C379.74 241.713 379.633 242.123 379.633 242.587V249H377.062ZM389.172 249.213C388.078 249.213 387.134 248.986 386.338 248.531C385.548 248.072 384.939 247.423 384.513 246.585C384.087 245.742 383.874 244.75 383.874 243.609C383.874 242.487 384.087 241.502 384.513 240.655C384.944 239.803 385.545 239.14 386.317 238.666C387.089 238.188 387.995 237.949 389.037 237.949C389.709 237.949 390.344 238.058 390.941 238.276C391.542 238.489 392.072 238.82 392.531 239.27C392.995 239.72 393.36 240.293 393.625 240.989C393.89 241.68 394.023 242.504 394.023 243.46V244.249H385.081V242.516H391.558C391.554 242.023 391.447 241.585 391.239 241.202C391.03 240.813 390.739 240.508 390.365 240.286C389.996 240.063 389.565 239.952 389.073 239.952C388.547 239.952 388.085 240.08 387.688 240.335C387.29 240.586 386.98 240.918 386.757 241.33C386.539 241.737 386.428 242.184 386.423 242.672V244.185C386.423 244.819 386.539 245.364 386.771 245.818C387.003 246.268 387.328 246.614 387.744 246.855C388.161 247.092 388.649 247.21 389.208 247.21C389.582 247.21 389.92 247.158 390.223 247.054C390.526 246.945 390.789 246.786 391.012 246.578C391.234 246.37 391.402 246.112 391.516 245.804L393.916 246.074C393.765 246.708 393.476 247.262 393.05 247.736C392.628 248.205 392.089 248.569 391.431 248.83C390.772 249.085 390.02 249.213 389.172 249.213ZM395.998 249V238.091H398.491V239.909H398.604C398.803 239.279 399.144 238.794 399.627 238.453C400.115 238.107 400.671 237.935 401.296 237.935C401.438 237.935 401.597 237.942 401.772 237.956C401.952 237.965 402.101 237.982 402.22 238.006V240.371C402.111 240.333 401.938 240.3 401.701 240.271C401.469 240.238 401.244 240.222 401.026 240.222C400.558 240.222 400.136 240.323 399.762 240.527C399.393 240.726 399.102 241.003 398.889 241.358C398.676 241.713 398.569 242.123 398.569 242.587V249H395.998Z" fill="#222222"/>
<rect x="281" y="365" width="155" height="51" fill="white" stroke="#222222" stroke-width="2"/>
<path d="M318.146 390.727C318.146 392.295 317.852 393.637 317.265 394.754C316.683 395.867 315.887 396.719 314.879 397.311C313.875 397.903 312.736 398.199 311.463 398.199C310.189 398.199 309.048 397.903 308.039 397.311C307.036 396.714 306.24 395.86 305.653 394.747C305.071 393.63 304.779 392.29 304.779 390.727C304.779 389.16 305.071 387.82 305.653 386.707C306.24 385.59 307.036 384.735 308.039 384.143C309.048 383.552 310.189 383.256 311.463 383.256C312.736 383.256 313.875 383.552 314.879 384.143C315.887 384.735 316.683 385.59 317.265 386.707C317.852 387.82 318.146 389.16 318.146 390.727ZM315.497 390.727C315.497 389.624 315.324 388.694 314.978 387.936C314.637 387.174 314.164 386.598 313.558 386.21C312.952 385.817 312.253 385.621 311.463 385.621C310.672 385.621 309.974 385.817 309.367 386.21C308.761 386.598 308.286 387.174 307.94 387.936C307.599 388.694 307.429 389.624 307.429 390.727C307.429 391.83 307.599 392.763 307.94 393.526C308.286 394.283 308.761 394.858 309.367 395.251C309.974 395.64 310.672 395.834 311.463 395.834C312.253 395.834 312.952 395.64 313.558 395.251C314.164 394.858 314.637 394.283 314.978 393.526C315.324 392.763 315.497 391.83 315.497 390.727ZM320.323 402.091V387.091H322.852V388.895H323.001C323.133 388.63 323.321 388.348 323.562 388.05C323.803 387.747 324.13 387.489 324.542 387.276C324.954 387.058 325.48 386.949 326.119 386.949C326.962 386.949 327.722 387.164 328.399 387.595C329.08 388.021 329.62 388.653 330.018 389.491C330.42 390.325 330.622 391.348 330.622 392.56C330.622 393.758 330.425 394.776 330.032 395.614C329.639 396.452 329.104 397.091 328.427 397.531C327.75 397.972 326.983 398.192 326.126 398.192C325.501 398.192 324.982 398.088 324.571 397.879C324.159 397.671 323.827 397.42 323.576 397.126C323.33 396.828 323.138 396.546 323.001 396.281H322.894V402.091H320.323ZM322.845 392.545C322.845 393.251 322.944 393.869 323.143 394.399C323.347 394.929 323.638 395.344 324.017 395.642C324.4 395.936 324.864 396.082 325.409 396.082C325.977 396.082 326.453 395.931 326.836 395.628C327.22 395.32 327.508 394.901 327.703 394.371C327.901 393.836 328.001 393.227 328.001 392.545C328.001 391.868 327.904 391.267 327.71 390.741C327.516 390.216 327.227 389.804 326.843 389.506C326.46 389.207 325.982 389.058 325.409 389.058C324.859 389.058 324.393 389.203 324.009 389.491C323.626 389.78 323.335 390.185 323.136 390.706C322.942 391.227 322.845 391.84 322.845 392.545ZM337.453 398.213C336.359 398.213 335.415 397.986 334.619 397.531C333.828 397.072 333.22 396.423 332.794 395.585C332.368 394.742 332.155 393.75 332.155 392.609C332.155 391.487 332.368 390.502 332.794 389.655C333.225 388.803 333.826 388.14 334.598 387.666C335.37 387.188 336.276 386.949 337.318 386.949C337.99 386.949 338.625 387.058 339.221 387.276C339.823 387.489 340.353 387.82 340.812 388.27C341.276 388.72 341.641 389.293 341.906 389.989C342.171 390.68 342.304 391.504 342.304 392.46V393.249H333.362V391.516H339.839C339.835 391.023 339.728 390.585 339.52 390.202C339.311 389.813 339.02 389.508 338.646 389.286C338.277 389.063 337.846 388.952 337.353 388.952C336.828 388.952 336.366 389.08 335.969 389.335C335.571 389.586 335.261 389.918 335.038 390.33C334.82 390.737 334.709 391.184 334.704 391.672V393.185C334.704 393.819 334.82 394.364 335.052 394.818C335.284 395.268 335.609 395.614 336.025 395.855C336.442 396.092 336.93 396.21 337.488 396.21C337.862 396.21 338.201 396.158 338.504 396.054C338.807 395.945 339.07 395.786 339.292 395.578C339.515 395.37 339.683 395.112 339.797 394.804L342.197 395.074C342.046 395.708 341.757 396.262 341.331 396.736C340.909 397.205 340.37 397.569 339.711 397.83C339.053 398.085 338.3 398.213 337.453 398.213ZM346.85 391.608V398H344.279V387.091H346.736V388.945H346.864C347.115 388.334 347.515 387.848 348.064 387.489C348.618 387.129 349.303 386.949 350.117 386.949C350.87 386.949 351.526 387.11 352.084 387.432C352.648 387.754 353.083 388.22 353.391 388.831C353.704 389.442 353.857 390.183 353.853 391.054V398H351.282V391.452C351.282 390.723 351.092 390.152 350.713 389.74C350.339 389.328 349.821 389.122 349.158 389.122C348.708 389.122 348.308 389.222 347.958 389.42C347.612 389.615 347.34 389.896 347.141 390.266C346.947 390.635 346.85 391.082 346.85 391.608ZM366.124 388.099C366.006 387.716 365.843 387.373 365.634 387.07C365.431 386.762 365.184 386.499 364.896 386.281C364.612 386.063 364.285 385.9 363.915 385.791C363.546 385.678 363.144 385.621 362.708 385.621C361.927 385.621 361.231 385.817 360.62 386.21C360.009 386.603 359.529 387.181 359.178 387.943C358.833 388.701 358.66 389.624 358.66 390.713C358.66 391.812 358.833 392.742 359.178 393.504C359.524 394.267 360.004 394.847 360.62 395.244C361.236 395.637 361.951 395.834 362.765 395.834C363.504 395.834 364.143 395.692 364.683 395.408C365.227 395.124 365.646 394.721 365.94 394.2C366.233 393.675 366.38 393.059 366.38 392.354L366.977 392.446H363.028V390.386H368.93V392.134C368.93 393.379 368.665 394.456 368.134 395.365C367.604 396.274 366.875 396.975 365.947 397.467C365.019 397.955 363.953 398.199 362.751 398.199C361.411 398.199 360.234 397.898 359.221 397.297C358.212 396.691 357.424 395.831 356.856 394.719C356.292 393.601 356.011 392.276 356.011 390.741C356.011 389.567 356.176 388.518 356.508 387.595C356.844 386.672 357.313 385.888 357.914 385.244C358.515 384.596 359.221 384.103 360.031 383.767C360.84 383.426 361.721 383.256 362.673 383.256C363.478 383.256 364.228 383.374 364.924 383.611C365.62 383.843 366.238 384.174 366.778 384.605C367.322 385.036 367.77 385.547 368.12 386.139C368.47 386.731 368.7 387.384 368.809 388.099H366.124ZM371.278 398V383.455H373.913V395.791H380.319V398H371.278ZM388.23 382.773L383.542 400.188H381.291L385.978 382.773H388.23ZM389.784 398V383.455H399.244V385.663H392.419V389.612H398.754V391.821H392.419V395.791H399.301V398H389.784ZM409.637 387.453C409.571 386.833 409.291 386.35 408.799 386.004C408.311 385.659 407.677 385.486 406.896 385.486C406.346 385.486 405.875 385.569 405.482 385.734C405.089 385.9 404.789 386.125 404.58 386.409C404.372 386.693 404.265 387.018 404.261 387.382C404.261 387.685 404.329 387.948 404.467 388.17C404.609 388.393 404.8 388.582 405.042 388.739C405.283 388.89 405.551 389.018 405.845 389.122C406.138 389.226 406.434 389.314 406.732 389.385L408.096 389.726C408.645 389.854 409.173 390.027 409.68 390.244C410.191 390.462 410.648 390.737 411.05 391.068C411.458 391.4 411.78 391.8 412.016 392.268C412.253 392.737 412.372 393.286 412.372 393.916C412.372 394.768 412.154 395.519 411.718 396.168C411.283 396.812 410.653 397.316 409.829 397.68C409.01 398.04 408.018 398.22 406.853 398.22C405.721 398.22 404.739 398.045 403.906 397.695C403.077 397.344 402.428 396.833 401.96 396.161C401.496 395.488 401.245 394.669 401.207 393.703H403.799C403.837 394.21 403.993 394.631 404.268 394.967C404.542 395.304 404.9 395.554 405.34 395.72C405.785 395.886 406.283 395.969 406.832 395.969C407.405 395.969 407.907 395.884 408.337 395.713C408.773 395.538 409.114 395.296 409.36 394.989C409.606 394.676 409.732 394.312 409.737 393.895C409.732 393.516 409.621 393.204 409.403 392.957C409.185 392.706 408.88 392.498 408.487 392.332C408.098 392.162 407.644 392.01 407.123 391.878L405.468 391.452C404.27 391.144 403.323 390.678 402.627 390.053C401.936 389.423 401.59 388.587 401.59 387.545C401.59 386.688 401.822 385.938 402.286 385.294C402.755 384.65 403.392 384.151 404.197 383.795C405.002 383.436 405.913 383.256 406.931 383.256C407.963 383.256 408.868 383.436 409.644 383.795C410.425 384.151 411.039 384.645 411.484 385.28C411.929 385.91 412.158 386.634 412.173 387.453H409.637Z" fill="#222222"/>
<rect x="448" y="365" width="155" height="51" fill="white" stroke="#222222" stroke-width="2"/>
<path d="M487.439 398L483.334 383.455H486.168L488.789 394.143H488.923L491.722 383.455H494.3L497.105 394.151H497.233L499.854 383.455H502.688L498.583 398H495.983L493.071 387.794H492.958L490.039 398H487.439ZM507.917 398.213C506.824 398.213 505.879 397.986 505.084 397.531C504.293 397.072 503.684 396.423 503.258 395.585C502.832 394.742 502.619 393.75 502.619 392.609C502.619 391.487 502.832 390.502 503.258 389.655C503.689 388.803 504.29 388.14 505.062 387.666C505.834 387.188 506.741 386.949 507.782 386.949C508.455 386.949 509.089 387.058 509.686 387.276C510.287 387.489 510.817 387.82 511.277 388.27C511.741 388.72 512.105 389.293 512.37 389.989C512.636 390.68 512.768 391.504 512.768 392.46V393.249H503.826V391.516H510.304C510.299 391.023 510.192 390.585 509.984 390.202C509.776 389.813 509.485 389.508 509.111 389.286C508.741 389.063 508.31 388.952 507.818 388.952C507.292 388.952 506.831 389.08 506.433 389.335C506.035 389.586 505.725 389.918 505.503 390.33C505.285 390.737 505.174 391.184 505.169 391.672V393.185C505.169 393.819 505.285 394.364 505.517 394.818C505.749 395.268 506.073 395.614 506.49 395.855C506.906 396.092 507.394 396.21 507.953 396.21C508.327 396.21 508.665 396.158 508.969 396.054C509.272 395.945 509.534 395.786 509.757 395.578C509.979 395.37 510.147 395.112 510.261 394.804L512.662 395.074C512.51 395.708 512.221 396.262 511.795 396.736C511.374 397.205 510.834 397.569 510.176 397.83C509.518 398.085 508.765 398.213 507.917 398.213ZM514.857 398V383.455H517.428V388.895H517.534C517.667 388.63 517.854 388.348 518.096 388.05C518.337 387.747 518.664 387.489 519.076 387.276C519.488 387.058 520.013 386.949 520.652 386.949C521.495 386.949 522.255 387.164 522.932 387.595C523.614 388.021 524.154 388.653 524.552 389.491C524.954 390.325 525.155 391.348 525.155 392.56C525.155 393.758 524.959 394.776 524.566 395.614C524.173 396.452 523.638 397.091 522.961 397.531C522.284 397.972 521.516 398.192 520.659 398.192C520.034 398.192 519.516 398.088 519.104 397.879C518.692 397.671 518.361 397.42 518.11 397.126C517.864 396.828 517.672 396.546 517.534 396.281H517.385V398H514.857ZM517.378 392.545C517.378 393.251 517.478 393.869 517.677 394.399C517.88 394.929 518.171 395.344 518.55 395.642C518.934 395.936 519.398 396.082 519.942 396.082C520.51 396.082 520.986 395.931 521.37 395.628C521.753 395.32 522.042 394.901 522.236 394.371C522.435 393.836 522.534 393.227 522.534 392.545C522.534 391.868 522.437 391.267 522.243 390.741C522.049 390.216 521.76 389.804 521.377 389.506C520.993 389.207 520.515 389.058 519.942 389.058C519.393 389.058 518.927 389.203 518.543 389.491C518.159 389.78 517.868 390.185 517.669 390.706C517.475 391.227 517.378 391.84 517.378 392.545ZM536.999 388.099C536.881 387.716 536.717 387.373 536.509 387.07C536.305 386.762 536.059 386.499 535.77 386.281C535.486 386.063 535.159 385.9 534.79 385.791C534.421 385.678 534.018 385.621 533.583 385.621C532.801 385.621 532.105 385.817 531.495 386.21C530.884 386.603 530.403 387.181 530.053 387.943C529.707 388.701 529.534 389.624 529.534 390.713C529.534 391.812 529.707 392.742 530.053 393.504C530.399 394.267 530.879 394.847 531.495 395.244C532.11 395.637 532.825 395.834 533.64 395.834C534.378 395.834 535.017 395.692 535.557 395.408C536.102 395.124 536.521 394.721 536.814 394.2C537.108 393.675 537.255 393.059 537.255 392.354L537.851 392.446H533.902V390.386H539.804V392.134C539.804 393.379 539.539 394.456 539.009 395.365C538.479 396.274 537.749 396.975 536.821 397.467C535.893 397.955 534.828 398.199 533.625 398.199C532.285 398.199 531.109 397.898 530.095 397.297C529.087 396.691 528.299 395.831 527.73 394.719C527.167 393.601 526.885 392.276 526.885 390.741C526.885 389.567 527.051 388.518 527.382 387.595C527.719 386.672 528.187 385.888 528.789 385.244C529.39 384.596 530.095 384.103 530.905 383.767C531.715 383.426 532.595 383.256 533.547 383.256C534.352 383.256 535.103 383.374 535.799 383.611C536.495 383.843 537.113 384.174 537.652 384.605C538.197 385.036 538.644 385.547 538.995 386.139C539.345 386.731 539.575 387.384 539.684 388.099H536.999ZM542.152 398V383.455H547.607C548.724 383.455 549.662 383.663 550.419 384.08C551.182 384.496 551.757 385.069 552.145 385.798C552.538 386.523 552.735 387.347 552.735 388.27C552.735 389.203 552.538 390.031 552.145 390.756C551.752 391.48 551.172 392.051 550.405 392.467C549.638 392.879 548.693 393.085 547.571 393.085H543.956V390.919H547.216C547.87 390.919 548.405 390.805 548.821 390.578C549.238 390.351 549.546 390.038 549.745 389.641C549.948 389.243 550.05 388.786 550.05 388.27C550.05 387.754 549.948 387.299 549.745 386.906C549.546 386.513 549.236 386.208 548.814 385.99C548.397 385.768 547.86 385.656 547.202 385.656H544.787V398H542.152ZM563.992 383.455H566.627V392.957C566.627 393.999 566.381 394.915 565.889 395.706C565.401 396.497 564.714 397.115 563.829 397.56C562.944 398 561.909 398.22 560.725 398.22C559.537 398.22 558.5 398 557.615 397.56C556.729 397.115 556.043 396.497 555.555 395.706C555.067 394.915 554.823 393.999 554.823 392.957V383.455H557.458V392.737C557.458 393.343 557.591 393.883 557.856 394.357C558.126 394.83 558.505 395.202 558.992 395.472C559.48 395.737 560.058 395.869 560.725 395.869C561.393 395.869 561.971 395.737 562.458 395.472C562.951 395.202 563.329 394.83 563.595 394.357C563.86 393.883 563.992 393.343 563.992 392.737V383.455Z" fill="#222222"/>
<rect x="367" y="40" width="236" height="51" fill="white" stroke="#222222" stroke-width="2"/>
<path d="M428.783 58.4545H431.396V68.6818C431.392 69.6193 431.193 70.4266 430.8 71.1037C430.407 71.776 429.857 72.2945 429.152 72.6591C428.451 73.0189 427.634 73.1989 426.702 73.1989C425.849 73.1989 425.082 73.0473 424.401 72.7443C423.723 72.4366 423.186 71.982 422.788 71.3807C422.391 70.7794 422.192 70.0312 422.192 69.1364H424.812C424.817 69.5294 424.902 69.8679 425.068 70.152C425.239 70.4361 425.473 70.6539 425.771 70.8054C426.07 70.9569 426.413 71.0327 426.801 71.0327C427.223 71.0327 427.58 70.9451 427.874 70.7699C428.167 70.59 428.39 70.3248 428.541 69.9744C428.697 69.6241 428.778 69.1932 428.783 68.6818V58.4545ZM441.96 62.4531C441.894 61.8329 441.614 61.3499 441.122 61.0043C440.634 60.6586 440 60.4858 439.218 60.4858C438.669 60.4858 438.198 60.5687 437.805 60.7344C437.412 60.9001 437.111 61.125 436.903 61.4091C436.695 61.6932 436.588 62.0175 436.583 62.3821C436.583 62.6851 436.652 62.9479 436.789 63.1705C436.931 63.393 437.123 63.5824 437.365 63.7386C437.606 63.8902 437.874 64.018 438.167 64.1222C438.461 64.2263 438.757 64.3139 439.055 64.3849L440.419 64.7259C440.968 64.8537 441.496 65.0265 442.002 65.2443C442.514 65.4621 442.971 65.7367 443.373 66.0682C443.78 66.3996 444.102 66.7997 444.339 67.2685C444.576 67.7372 444.694 68.2865 444.694 68.9162C444.694 69.7685 444.476 70.5189 444.041 71.1676C443.605 71.8116 442.975 72.3158 442.152 72.6804C441.332 73.0402 440.34 73.2202 439.176 73.2202C438.044 73.2202 437.062 73.045 436.228 72.6946C435.4 72.3442 434.751 71.8329 434.282 71.1605C433.818 70.4882 433.567 69.669 433.529 68.7031H436.122C436.16 69.2098 436.316 69.6312 436.59 69.9673C436.865 70.3035 437.223 70.5545 437.663 70.7202C438.108 70.8859 438.605 70.9688 439.154 70.9688C439.727 70.9688 440.229 70.8835 440.66 70.7131C441.096 70.5379 441.437 70.2964 441.683 69.9886C441.929 69.6761 442.054 69.3116 442.059 68.8949C442.054 68.5161 441.943 68.2036 441.725 67.9574C441.508 67.7064 441.202 67.4981 440.809 67.3324C440.421 67.1619 439.966 67.0104 439.446 66.8778L437.791 66.4517C436.593 66.1439 435.646 65.6776 434.95 65.0526C434.259 64.4228 433.913 63.5871 433.913 62.5455C433.913 61.6884 434.145 60.938 434.609 60.294C435.078 59.6501 435.715 59.1506 436.519 58.7955C437.324 58.4356 438.236 58.2557 439.254 58.2557C440.286 58.2557 441.19 58.4356 441.967 58.7955C442.748 59.1506 443.361 59.6454 443.806 60.2798C444.251 60.9096 444.481 61.634 444.495 62.4531H441.96ZM452.667 57.7727L447.98 75.1875H445.728L450.416 57.7727H452.667ZM453.582 60.6634V58.4545H465.187V60.6634H460.692V73H458.078V60.6634H453.582ZM475.129 62.4531C475.063 61.8329 474.784 61.3499 474.291 61.0043C473.804 60.6586 473.169 60.4858 472.388 60.4858C471.839 60.4858 471.367 60.5687 470.975 60.7344C470.582 60.9001 470.281 61.125 470.073 61.4091C469.864 61.6932 469.758 62.0175 469.753 62.3821C469.753 62.6851 469.822 62.9479 469.959 63.1705C470.101 63.393 470.293 63.5824 470.534 63.7386C470.776 63.8902 471.043 64.018 471.337 64.1222C471.63 64.2263 471.926 64.3139 472.225 64.3849L473.588 64.7259C474.137 64.8537 474.665 65.0265 475.172 65.2443C475.683 65.4621 476.14 65.7367 476.543 66.0682C476.95 66.3996 477.272 66.7997 477.509 67.2685C477.745 67.7372 477.864 68.2865 477.864 68.9162C477.864 69.7685 477.646 70.5189 477.21 71.1676C476.775 71.8116 476.145 72.3158 475.321 72.6804C474.502 73.0402 473.51 73.2202 472.345 73.2202C471.214 73.2202 470.231 73.045 469.398 72.6946C468.569 72.3442 467.921 71.8329 467.452 71.1605C466.988 70.4882 466.737 69.669 466.699 68.7031H469.291C469.329 69.2098 469.485 69.6312 469.76 69.9673C470.035 70.3035 470.392 70.5545 470.832 70.7202C471.278 70.8859 471.775 70.9688 472.324 70.9688C472.897 70.9688 473.399 70.8835 473.83 70.7131C474.265 70.5379 474.606 70.2964 474.852 69.9886C475.099 69.6761 475.224 69.3116 475.229 68.8949C475.224 68.5161 475.113 68.2036 474.895 67.9574C474.677 67.7064 474.372 67.4981 473.979 67.3324C473.591 67.1619 473.136 67.0104 472.615 66.8778L470.96 66.4517C469.762 66.1439 468.815 65.6776 468.119 65.0526C467.428 64.4228 467.082 63.5871 467.082 62.5455C467.082 61.6884 467.314 60.938 467.778 60.294C468.247 59.6501 468.884 59.1506 469.689 58.7955C470.494 58.4356 471.405 58.2557 472.423 58.2557C473.456 58.2557 474.36 58.4356 475.136 58.7955C475.918 59.1506 476.531 59.6454 476.976 60.2798C477.421 60.9096 477.651 61.634 477.665 62.4531H475.129Z" fill="#222222"/>
<rect x="115" y="40" width="236" height="51" fill="white" stroke="#222222" stroke-width="2"/>
<path d="M183.494 63.3622H180.838C180.762 62.9266 180.623 62.5407 180.419 62.2045C180.215 61.8636 179.962 61.5748 179.659 61.3381C179.356 61.1013 179.01 60.9238 178.622 60.8054C178.239 60.6823 177.824 60.6207 177.379 60.6207C176.589 60.6207 175.888 60.8196 175.277 61.2173C174.666 61.6103 174.188 62.188 173.842 62.9503C173.497 63.7079 173.324 64.6335 173.324 65.7273C173.324 66.84 173.497 67.7775 173.842 68.5398C174.193 69.2973 174.671 69.8703 175.277 70.2585C175.888 70.642 176.586 70.8338 177.372 70.8338C177.808 70.8338 178.215 70.777 178.594 70.6634C178.977 70.545 179.321 70.3722 179.624 70.1449C179.931 69.9176 180.189 69.6383 180.398 69.3068C180.611 68.9754 180.758 68.5966 180.838 68.1705L183.494 68.1847C183.395 68.8759 183.179 69.5246 182.848 70.1307C182.521 70.7367 182.093 71.2718 181.562 71.7358C181.032 72.1951 180.412 72.5549 179.702 72.8153C178.991 73.071 178.203 73.1989 177.337 73.1989C176.058 73.1989 174.917 72.9029 173.913 72.3111C172.91 71.7192 172.119 70.8646 171.541 69.7472C170.964 68.6297 170.675 67.2898 170.675 65.7273C170.675 64.16 170.966 62.8201 171.548 61.7074C172.131 60.59 172.924 59.7353 173.928 59.1435C174.931 58.5516 176.068 58.2557 177.337 58.2557C178.146 58.2557 178.899 58.3693 179.595 58.5966C180.291 58.8239 180.911 59.1577 181.456 59.598C182 60.0336 182.448 60.5687 182.798 61.2031C183.153 61.8329 183.385 62.5526 183.494 63.3622ZM191.531 57.7727L186.844 75.1875H184.592L189.28 57.7727H191.531ZM205.536 63.3622H202.879C202.804 62.9266 202.664 62.5407 202.46 62.2045C202.257 61.8636 202.004 61.5748 201.7 61.3381C201.397 61.1013 201.052 60.9238 200.664 60.8054C200.28 60.6823 199.866 60.6207 199.421 60.6207C198.63 60.6207 197.929 60.8196 197.318 61.2173C196.708 61.6103 196.229 62.188 195.884 62.9503C195.538 63.7079 195.365 64.6335 195.365 65.7273C195.365 66.84 195.538 67.7775 195.884 68.5398C196.234 69.2973 196.712 69.8703 197.318 70.2585C197.929 70.642 198.628 70.8338 199.414 70.8338C199.849 70.8338 200.256 70.777 200.635 70.6634C201.019 70.545 201.362 70.3722 201.665 70.1449C201.973 69.9176 202.231 69.6383 202.439 69.3068C202.652 68.9754 202.799 68.5966 202.879 68.1705L205.536 68.1847C205.436 68.8759 205.221 69.5246 204.889 70.1307C204.563 70.7367 204.134 71.2718 203.604 71.7358C203.074 72.1951 202.453 72.5549 201.743 72.8153C201.033 73.071 200.245 73.1989 199.378 73.1989C198.1 73.1989 196.959 72.9029 195.955 72.3111C194.951 71.7192 194.16 70.8646 193.583 69.7472C193.005 68.6297 192.716 67.2898 192.716 65.7273C192.716 64.16 193.007 62.8201 193.59 61.7074C194.172 60.59 194.965 59.7353 195.969 59.1435C196.973 58.5516 198.109 58.2557 199.378 58.2557C200.188 58.2557 200.941 58.3693 201.637 58.5966C202.333 58.8239 202.953 59.1577 203.497 59.598C204.042 60.0336 204.489 60.5687 204.84 61.2031C205.195 61.8329 205.427 62.5526 205.536 63.3622ZM211.925 70.6705V60.8409H214.155V70.6705H211.925ZM208.125 66.8707V64.6406H217.955V66.8707H208.125ZM225.182 70.6705V60.8409H227.412V70.6705H225.182ZM221.382 66.8707V64.6406H231.212V66.8707H221.382Z" fill="#222222"/>
<rect x="115" y="365" width="155" height="51" fill="white" stroke="#222222" stroke-width="2"/>
<path d="M185.384 388.362H182.728C182.652 387.927 182.512 387.541 182.308 387.205C182.105 386.864 181.852 386.575 181.549 386.338C181.246 386.101 180.9 385.924 180.512 385.805C180.128 385.682 179.714 385.621 179.269 385.621C178.478 385.621 177.777 385.82 177.166 386.217C176.556 386.61 176.077 387.188 175.732 387.95C175.386 388.708 175.213 389.634 175.213 390.727C175.213 391.84 175.386 392.777 175.732 393.54C176.082 394.297 176.56 394.87 177.166 395.259C177.777 395.642 178.476 395.834 179.262 395.834C179.697 395.834 180.104 395.777 180.483 395.663C180.867 395.545 181.21 395.372 181.513 395.145C181.821 394.918 182.079 394.638 182.287 394.307C182.5 393.975 182.647 393.597 182.728 393.17L185.384 393.185C185.284 393.876 185.069 394.525 184.737 395.131C184.411 395.737 183.982 396.272 183.452 396.736C182.922 397.195 182.301 397.555 181.591 397.815C180.881 398.071 180.093 398.199 179.226 398.199C177.948 398.199 176.807 397.903 175.803 397.311C174.799 396.719 174.008 395.865 173.431 394.747C172.853 393.63 172.564 392.29 172.564 390.727C172.564 389.16 172.855 387.82 173.438 386.707C174.02 385.59 174.813 384.735 175.817 384.143C176.821 383.552 177.957 383.256 179.226 383.256C180.036 383.256 180.789 383.369 181.485 383.597C182.181 383.824 182.801 384.158 183.345 384.598C183.89 385.034 184.337 385.569 184.688 386.203C185.043 386.833 185.275 387.553 185.384 388.362ZM187.597 398V383.455H193.051C194.169 383.455 195.106 383.663 195.864 384.08C196.626 384.496 197.201 385.069 197.59 385.798C197.983 386.523 198.179 387.347 198.179 388.27C198.179 389.203 197.983 390.031 197.59 390.756C197.197 391.48 196.617 392.051 195.85 392.467C195.083 392.879 194.138 393.085 193.016 393.085H189.401V390.919H192.661C193.314 390.919 193.849 390.805 194.266 390.578C194.682 390.351 194.99 390.038 195.189 389.641C195.393 389.243 195.494 388.786 195.494 388.27C195.494 387.754 195.393 387.299 195.189 386.906C194.99 386.513 194.68 386.208 194.259 385.99C193.842 385.768 193.305 385.656 192.646 385.656H190.232V398H187.597ZM209.437 383.455H212.072V392.957C212.072 393.999 211.826 394.915 211.333 395.706C210.846 396.497 210.159 397.115 209.274 397.56C208.388 398 207.354 398.22 206.17 398.22C204.981 398.22 203.944 398 203.059 397.56C202.174 397.115 201.487 396.497 200.999 395.706C200.512 394.915 200.268 393.999 200.268 392.957V383.455H202.903V392.737C202.903 393.343 203.035 393.883 203.301 394.357C203.57 394.83 203.949 395.202 204.437 395.472C204.925 395.737 205.502 395.869 206.17 395.869C206.837 395.869 207.415 395.737 207.903 395.472C208.395 395.202 208.774 394.83 209.039 394.357C209.304 393.883 209.437 393.343 209.437 392.737V383.455Z" fill="#222222"/>
<line x1="359" y1="337" x2="359" y2="359" stroke="#222222" stroke-width="4"/>
<line x1="359" y1="98" x2="359" y2="120" stroke="#222222" stroke-width="4"/>
<line x1="631" y1="235" x2="631" y2="389" stroke="#222222" stroke-width="4"/>
<line x1="655" y1="235" x2="607" y2="235" stroke="#222222" stroke-width="4"/>
<line x1="657" y1="391" x2="629" y2="391" stroke="#222222" stroke-width="4"/>
<rect x="656" y="78" width="121" height="265" stroke="#222222" stroke-width="2" stroke-dasharray="8 10"/>
<rect x="656" y="366" width="121" height="46" stroke="#222222" stroke-width="2" stroke-dasharray="8 10"/>
<rect x="662" y="84" width="109" height="34" fill="white" stroke="black" stroke-width="2"/>
<path d="M696.202 107V95.3636H697.958V105.489H703.23V107H696.202ZM708.613 107.176C707.795 107.176 707.081 106.989 706.471 106.614C705.861 106.239 705.387 105.714 705.05 105.04C704.713 104.366 704.545 103.578 704.545 102.676C704.545 101.771 704.713 100.979 705.05 100.301C705.387 99.6231 705.861 99.0966 706.471 98.7216C707.081 98.3466 707.795 98.1591 708.613 98.1591C709.431 98.1591 710.145 98.3466 710.755 98.7216C711.365 99.0966 711.838 99.6231 712.175 100.301C712.512 100.979 712.681 101.771 712.681 102.676C712.681 103.578 712.512 104.366 712.175 105.04C711.838 105.714 711.365 106.239 710.755 106.614C710.145 106.989 709.431 107.176 708.613 107.176ZM708.619 105.75C709.149 105.75 709.588 105.61 709.937 105.33C710.285 105.049 710.543 104.676 710.709 104.21C710.88 103.744 710.965 103.231 710.965 102.67C710.965 102.114 710.88 101.602 710.709 101.136C710.543 100.667 710.285 100.29 709.937 100.006C709.588 99.7216 709.149 99.5795 708.619 99.5795C708.084 99.5795 707.641 99.7216 707.289 100.006C706.941 100.29 706.681 100.667 706.511 101.136C706.344 101.602 706.261 102.114 706.261 102.67C706.261 103.231 706.344 103.744 706.511 104.21C706.681 104.676 706.941 105.049 707.289 105.33C707.641 105.61 708.084 105.75 708.619 105.75ZM718.491 98.2727V99.6364H713.724V98.2727H718.491ZM715.003 96.1818H716.701V104.438C716.701 104.767 716.751 105.015 716.849 105.182C716.948 105.345 717.075 105.456 717.23 105.517C717.389 105.574 717.561 105.602 717.747 105.602C717.883 105.602 718.003 105.593 718.105 105.574C718.207 105.555 718.287 105.54 718.343 105.528L718.65 106.932C718.552 106.97 718.412 107.008 718.23 107.045C718.048 107.087 717.821 107.11 717.548 107.114C717.101 107.121 716.684 107.042 716.298 106.875C715.912 106.708 715.599 106.451 715.361 106.102C715.122 105.754 715.003 105.316 715.003 104.79V96.1818ZM724.284 98.2727V99.6364H719.517V98.2727H724.284ZM720.796 96.1818H722.495V104.438C722.495 104.767 722.544 105.015 722.642 105.182C722.741 105.345 722.868 105.456 723.023 105.517C723.182 105.574 723.354 105.602 723.54 105.602C723.676 105.602 723.796 105.593 723.898 105.574C724 105.555 724.08 105.54 724.137 105.528L724.443 106.932C724.345 106.97 724.205 107.008 724.023 107.045C723.841 107.087 723.614 107.11 723.341 107.114C722.894 107.121 722.478 107.042 722.091 106.875C721.705 106.708 721.392 106.451 721.154 106.102C720.915 105.754 720.796 105.316 720.796 104.79V96.1818ZM726.004 107V98.2727H727.702V107H726.004ZM726.862 96.9261C726.566 96.9261 726.312 96.8277 726.1 96.6307C725.892 96.4299 725.788 96.1913 725.788 95.9148C725.788 95.6345 725.892 95.3958 726.1 95.1989C726.312 94.9981 726.566 94.8977 726.862 94.8977C727.157 94.8977 727.409 94.9981 727.617 95.1989C727.829 95.3958 727.935 95.6345 727.935 95.9148C727.935 96.1913 727.829 96.4299 727.617 96.6307C727.409 96.8277 727.157 96.9261 726.862 96.9261ZM733.589 107.176C732.729 107.176 731.989 106.992 731.368 106.625C730.75 106.254 730.273 105.733 729.936 105.062C729.603 104.388 729.436 103.598 729.436 102.693C729.436 101.799 729.603 101.011 729.936 100.33C730.273 99.6477 730.743 99.1155 731.345 98.733C731.951 98.3504 732.659 98.1591 733.47 98.1591C733.962 98.1591 734.44 98.2405 734.902 98.4034C735.364 98.5663 735.779 98.822 736.146 99.1705C736.514 99.5189 736.803 99.9716 737.015 100.528C737.228 101.081 737.334 101.754 737.334 102.545V103.148H730.396V101.875H735.669C735.669 101.428 735.578 101.032 735.396 100.688C735.214 100.339 734.959 100.064 734.629 99.8636C734.303 99.6629 733.921 99.5625 733.481 99.5625C733.004 99.5625 732.587 99.6799 732.231 99.9148C731.879 100.146 731.606 100.449 731.413 100.824C731.224 101.195 731.129 101.598 731.129 102.034V103.028C731.129 103.612 731.231 104.108 731.436 104.517C731.644 104.926 731.934 105.239 732.305 105.455C732.676 105.667 733.11 105.773 733.606 105.773C733.928 105.773 734.222 105.727 734.487 105.636C734.752 105.542 734.981 105.402 735.175 105.216C735.368 105.03 735.515 104.801 735.618 104.528L737.226 104.818C737.097 105.292 736.866 105.706 736.533 106.062C736.203 106.415 735.788 106.689 735.288 106.886C734.792 107.08 734.226 107.176 733.589 107.176Z" fill="#222222"/>
<rect x="662" y="128" width="109" height="34" fill="white" stroke="black" stroke-width="2"/>
<path d="M707.832 142.42C707.771 141.883 707.521 141.466 707.082 141.17C706.642 140.871 706.089 140.722 705.423 140.722C704.946 140.722 704.533 140.797 704.184 140.949C703.836 141.097 703.565 141.301 703.372 141.562C703.182 141.82 703.088 142.114 703.088 142.443C703.088 142.72 703.152 142.958 703.281 143.159C703.413 143.36 703.586 143.528 703.798 143.665C704.014 143.797 704.245 143.909 704.491 144C704.737 144.087 704.974 144.159 705.201 144.216L706.338 144.511C706.709 144.602 707.089 144.725 707.48 144.881C707.87 145.036 708.231 145.241 708.565 145.494C708.898 145.748 709.167 146.062 709.372 146.438C709.58 146.812 709.684 147.261 709.684 147.784C709.684 148.443 709.514 149.028 709.173 149.54C708.836 150.051 708.345 150.455 707.701 150.75C707.061 151.045 706.286 151.193 705.377 151.193C704.506 151.193 703.752 151.055 703.116 150.778C702.48 150.502 701.981 150.11 701.622 149.602C701.262 149.091 701.063 148.485 701.025 147.784H702.786C702.821 148.205 702.957 148.555 703.196 148.835C703.438 149.112 703.747 149.318 704.122 149.455C704.5 149.587 704.915 149.653 705.366 149.653C705.862 149.653 706.303 149.576 706.69 149.42C707.08 149.261 707.387 149.042 707.61 148.761C707.834 148.477 707.946 148.146 707.946 147.767C707.946 147.422 707.847 147.14 707.65 146.92C707.457 146.701 707.194 146.519 706.86 146.375C706.531 146.231 706.158 146.104 705.741 145.994L704.366 145.619C703.434 145.366 702.696 144.992 702.15 144.5C701.608 144.008 701.338 143.356 701.338 142.545C701.338 141.875 701.519 141.29 701.883 140.79C702.247 140.29 702.739 139.902 703.36 139.625C703.981 139.345 704.682 139.205 705.463 139.205C706.25 139.205 706.946 139.343 707.548 139.619C708.154 139.896 708.631 140.277 708.98 140.761C709.328 141.242 709.51 141.795 709.525 142.42H707.832ZM712.639 139.364L715.878 148.841H716.009L719.247 139.364H721.145L716.957 151H714.929L710.741 139.364H712.639ZM729.962 143.04C729.852 142.695 729.705 142.386 729.519 142.114C729.337 141.837 729.119 141.602 728.866 141.409C728.612 141.212 728.322 141.062 727.996 140.96C727.674 140.858 727.32 140.807 726.934 140.807C726.278 140.807 725.688 140.975 725.161 141.312C724.635 141.65 724.218 142.144 723.911 142.795C723.608 143.443 723.456 144.237 723.456 145.176C723.456 146.119 723.61 146.917 723.917 147.568C724.224 148.22 724.644 148.714 725.178 149.051C725.712 149.388 726.32 149.557 727.002 149.557C727.635 149.557 728.186 149.428 728.655 149.17C729.129 148.913 729.494 148.549 729.752 148.08C730.013 147.606 730.144 147.049 730.144 146.409L730.599 146.494H727.269V145.045H731.843V146.369C731.843 147.347 731.635 148.195 731.218 148.915C730.805 149.631 730.233 150.184 729.502 150.574C728.775 150.964 727.941 151.159 727.002 151.159C725.949 151.159 725.025 150.917 724.229 150.432C723.438 149.947 722.82 149.259 722.377 148.369C721.934 147.475 721.712 146.415 721.712 145.188C721.712 144.259 721.841 143.426 722.099 142.688C722.356 141.949 722.718 141.322 723.184 140.807C723.653 140.288 724.205 139.892 724.837 139.619C725.474 139.343 726.169 139.205 726.922 139.205C727.551 139.205 728.136 139.297 728.678 139.483C729.224 139.669 729.708 139.932 730.133 140.273C730.561 140.614 730.915 141.019 731.195 141.489C731.475 141.955 731.665 142.472 731.763 143.04H729.962Z" fill="#222222"/>
<rect x="662" y="172" width="109" height="34" fill="white" stroke="black" stroke-width="2"/>
<path d="M702.255 184.875V183.364H711.261V184.875H707.63V195H705.88V184.875H702.255ZM712.517 184.875V183.364H721.523V184.875H717.892V195H716.142V184.875H712.517ZM723.353 195V183.364H730.569V184.875H725.108V188.42H730.052V189.926H725.108V195H723.353Z" fill="#222222"/>
<rect x="662" y="216" width="109" height="34" fill="white" stroke="black" stroke-width="2"/>
<path d="M700.852 239V227.364H705C705.906 227.364 706.656 227.528 707.25 227.858C707.845 228.187 708.29 228.638 708.585 229.21C708.881 229.778 709.029 230.419 709.029 231.131C709.029 231.847 708.879 232.491 708.58 233.062C708.284 233.631 707.837 234.081 707.239 234.415C706.644 234.744 705.896 234.909 704.995 234.909H702.142V233.42H704.835C705.407 233.42 705.871 233.322 706.227 233.125C706.584 232.924 706.845 232.652 707.012 232.307C707.178 231.962 707.262 231.57 707.262 231.131C707.262 230.691 707.178 230.301 707.012 229.96C706.845 229.619 706.582 229.352 706.222 229.159C705.866 228.966 705.396 228.869 704.813 228.869H702.608V239H700.852ZM720.319 227.364V239H718.705L712.79 230.466H712.683V239H710.927V227.364H712.552L718.472 235.909H718.58V227.364H720.319ZM730.595 231.04C730.485 230.695 730.337 230.386 730.152 230.114C729.97 229.837 729.752 229.602 729.498 229.409C729.245 229.212 728.955 229.062 728.629 228.96C728.307 228.858 727.953 228.807 727.567 228.807C726.911 228.807 726.32 228.975 725.794 229.312C725.267 229.65 724.851 230.144 724.544 230.795C724.241 231.443 724.089 232.237 724.089 233.176C724.089 234.119 724.243 234.917 724.55 235.568C724.856 236.22 725.277 236.714 725.811 237.051C726.345 237.388 726.953 237.557 727.635 237.557C728.267 237.557 728.818 237.428 729.288 237.17C729.762 236.913 730.127 236.549 730.385 236.08C730.646 235.606 730.777 235.049 730.777 234.409L731.231 234.494H727.902V233.045H732.476V234.369C732.476 235.347 732.267 236.195 731.851 236.915C731.438 237.631 730.866 238.184 730.135 238.574C729.407 238.964 728.574 239.159 727.635 239.159C726.582 239.159 725.657 238.917 724.862 238.432C724.07 237.947 723.453 237.259 723.01 236.369C722.567 235.475 722.345 234.415 722.345 233.188C722.345 232.259 722.474 231.426 722.731 230.688C722.989 229.949 723.351 229.322 723.817 228.807C724.286 228.288 724.837 227.892 725.47 227.619C726.106 227.343 726.801 227.205 727.555 227.205C728.184 227.205 728.769 227.297 729.311 227.483C729.856 227.669 730.341 227.932 730.765 228.273C731.193 228.614 731.548 229.019 731.828 229.489C732.108 229.955 732.298 230.472 732.396 231.04H730.595Z" fill="#222222"/>
<rect x="662" y="260" width="109" height="34" fill="white" stroke="black" stroke-width="2"/>
<path d="M706.938 271.364H708.688V279.614C708.688 280.36 708.54 280.998 708.245 281.528C707.953 282.059 707.542 282.464 707.012 282.744C706.481 283.021 705.86 283.159 705.148 283.159C704.493 283.159 703.904 283.04 703.381 282.801C702.862 282.562 702.451 282.216 702.148 281.761C701.849 281.303 701.699 280.746 701.699 280.091H703.443C703.443 280.413 703.517 280.691 703.665 280.926C703.816 281.161 704.023 281.345 704.284 281.477C704.549 281.606 704.852 281.67 705.193 281.67C705.565 281.67 705.879 281.593 706.137 281.438C706.398 281.278 706.597 281.045 706.733 280.739C706.87 280.432 706.938 280.057 706.938 279.614V271.364ZM711.083 283V271.364H715.231C716.136 271.364 716.886 271.528 717.481 271.858C718.076 272.187 718.521 272.638 718.816 273.21C719.112 273.778 719.259 274.419 719.259 275.131C719.259 275.847 719.11 276.491 718.81 277.062C718.515 277.631 718.068 278.081 717.469 278.415C716.875 278.744 716.127 278.909 715.225 278.909H712.373V277.42H715.066C715.638 277.42 716.102 277.322 716.458 277.125C716.814 276.924 717.076 276.652 717.242 276.307C717.409 275.962 717.492 275.57 717.492 275.131C717.492 274.691 717.409 274.301 717.242 273.96C717.076 273.619 716.812 273.352 716.452 273.159C716.096 272.966 715.627 272.869 715.043 272.869H712.839V283H711.083ZM729.032 275.04C728.923 274.695 728.775 274.386 728.589 274.114C728.407 273.837 728.19 273.602 727.936 273.409C727.682 273.212 727.392 273.062 727.067 272.96C726.745 272.858 726.39 272.807 726.004 272.807C725.349 272.807 724.758 272.975 724.231 273.312C723.705 273.65 723.288 274.144 722.981 274.795C722.678 275.443 722.527 276.237 722.527 277.176C722.527 278.119 722.68 278.917 722.987 279.568C723.294 280.22 723.714 280.714 724.248 281.051C724.782 281.388 725.39 281.557 726.072 281.557C726.705 281.557 727.256 281.428 727.726 281.17C728.199 280.913 728.565 280.549 728.822 280.08C729.084 279.606 729.214 279.049 729.214 278.409L729.669 278.494H726.339V277.045H730.913V278.369C730.913 279.347 730.705 280.195 730.288 280.915C729.875 281.631 729.303 282.184 728.572 282.574C727.845 282.964 727.012 283.159 726.072 283.159C725.019 283.159 724.095 282.917 723.3 282.432C722.508 281.947 721.89 281.259 721.447 280.369C721.004 279.475 720.782 278.415 720.782 277.188C720.782 276.259 720.911 275.426 721.169 274.688C721.426 273.949 721.788 273.322 722.254 272.807C722.724 272.288 723.275 271.892 723.907 271.619C724.544 271.343 725.239 271.205 725.993 271.205C726.621 271.205 727.207 271.297 727.748 271.483C728.294 271.669 728.779 271.932 729.203 272.273C729.631 272.614 729.985 273.019 730.265 273.489C730.546 273.955 730.735 274.472 730.834 275.04H729.032Z" fill="#222222"/>
<rect x="662" y="304" width="109" height="34" fill="white" stroke="black" stroke-width="2"/>
<path d="M698.086 327L694.859 315.364H696.705L698.972 324.375H699.08L701.438 315.364H703.268L705.626 324.381H705.734L707.995 315.364H709.847L706.614 327H704.847L702.398 318.284H702.307L699.859 327H698.086ZM714.054 327.176C713.194 327.176 712.453 326.992 711.832 326.625C711.215 326.254 710.737 325.733 710.4 325.062C710.067 324.388 709.9 323.598 709.9 322.693C709.9 321.799 710.067 321.011 710.4 320.33C710.737 319.648 711.207 319.116 711.809 318.733C712.415 318.35 713.124 318.159 713.934 318.159C714.427 318.159 714.904 318.241 715.366 318.403C715.828 318.566 716.243 318.822 716.611 319.17C716.978 319.519 717.268 319.972 717.48 320.528C717.692 321.081 717.798 321.754 717.798 322.545V323.148H710.861V321.875H716.133C716.133 321.428 716.042 321.032 715.861 320.688C715.679 320.339 715.423 320.064 715.093 319.864C714.768 319.663 714.385 319.562 713.946 319.562C713.468 319.562 713.052 319.68 712.696 319.915C712.343 320.146 712.071 320.449 711.878 320.824C711.688 321.195 711.593 321.598 711.593 322.034V323.028C711.593 323.612 711.696 324.108 711.9 324.517C712.109 324.926 712.398 325.239 712.77 325.455C713.141 325.667 713.575 325.773 714.071 325.773C714.393 325.773 714.686 325.727 714.951 325.636C715.217 325.542 715.446 325.402 715.639 325.216C715.832 325.03 715.98 324.801 716.082 324.528L717.69 324.818C717.561 325.292 717.33 325.706 716.997 326.062C716.667 326.415 716.253 326.689 715.753 326.886C715.256 327.08 714.69 327.176 714.054 327.176ZM719.659 327V315.364H721.358V319.688H721.46C721.559 319.506 721.701 319.295 721.887 319.057C722.072 318.818 722.33 318.61 722.659 318.432C722.989 318.25 723.424 318.159 723.966 318.159C724.671 318.159 725.299 318.337 725.853 318.693C726.406 319.049 726.839 319.562 727.154 320.233C727.472 320.903 727.631 321.71 727.631 322.653C727.631 323.597 727.474 324.405 727.159 325.08C726.845 325.75 726.413 326.267 725.864 326.631C725.315 326.991 724.688 327.17 723.983 327.17C723.453 327.17 723.019 327.081 722.682 326.903C722.349 326.725 722.087 326.517 721.898 326.278C721.709 326.04 721.563 325.828 721.46 325.642H721.318V327H719.659ZM721.324 322.636C721.324 323.25 721.413 323.788 721.591 324.25C721.769 324.712 722.027 325.074 722.364 325.335C722.701 325.593 723.114 325.722 723.603 325.722C724.11 325.722 724.534 325.587 724.875 325.318C725.216 325.045 725.474 324.676 725.648 324.21C725.826 323.744 725.915 323.22 725.915 322.636C725.915 322.061 725.828 321.544 725.654 321.085C725.483 320.627 725.226 320.265 724.881 320C724.54 319.735 724.114 319.602 723.603 319.602C723.11 319.602 722.693 319.729 722.353 319.983C722.015 320.237 721.76 320.591 721.585 321.045C721.411 321.5 721.324 322.03 721.324 322.636ZM729.515 327V315.364H733.663C734.568 315.364 735.318 315.528 735.913 315.858C736.507 316.187 736.952 316.638 737.248 317.21C737.543 317.778 737.691 318.419 737.691 319.131C737.691 319.847 737.541 320.491 737.242 321.062C736.947 321.631 736.5 322.081 735.901 322.415C735.307 322.744 734.559 322.909 733.657 322.909H730.805V321.42H733.498C734.07 321.42 734.534 321.322 734.89 321.125C735.246 320.924 735.507 320.652 735.674 320.307C735.841 319.962 735.924 319.57 735.924 319.131C735.924 318.691 735.841 318.301 735.674 317.96C735.507 317.619 735.244 317.352 734.884 317.159C734.528 316.966 734.059 316.869 733.475 316.869H731.271V327H729.515Z" fill="#222222"/>
<rect x="662" y="372" width="109" height="34" fill="white" stroke="black" stroke-width="2"/>
<path d="M712.977 387.04C712.868 386.695 712.72 386.386 712.534 386.114C712.352 385.837 712.135 385.602 711.881 385.409C711.627 385.212 711.337 385.062 711.012 384.96C710.69 384.858 710.335 384.807 709.949 384.807C709.294 384.807 708.703 384.975 708.176 385.312C707.65 385.65 707.233 386.144 706.926 386.795C706.623 387.443 706.472 388.237 706.472 389.176C706.472 390.119 706.625 390.917 706.932 391.568C707.239 392.22 707.659 392.714 708.193 393.051C708.727 393.388 709.335 393.557 710.017 393.557C710.65 393.557 711.201 393.428 711.671 393.17C712.144 392.913 712.51 392.549 712.767 392.08C713.029 391.606 713.159 391.049 713.159 390.409L713.614 390.494H710.284V389.045H714.858V390.369C714.858 391.347 714.65 392.195 714.233 392.915C713.82 393.631 713.248 394.184 712.517 394.574C711.79 394.964 710.957 395.159 710.017 395.159C708.964 395.159 708.04 394.917 707.245 394.432C706.453 393.947 705.835 393.259 705.392 392.369C704.949 391.475 704.727 390.415 704.727 389.188C704.727 388.259 704.856 387.426 705.114 386.688C705.371 385.949 705.733 385.322 706.199 384.807C706.669 384.288 707.22 383.892 707.852 383.619C708.489 383.343 709.184 383.205 709.938 383.205C710.566 383.205 711.152 383.297 711.693 383.483C712.239 383.669 712.724 383.932 713.148 384.273C713.576 384.614 713.93 385.019 714.21 385.489C714.491 385.955 714.68 386.472 714.779 387.04H712.977ZM718.683 383.364V395H716.927V383.364H718.683ZM721.079 395V383.364H728.295V384.875H722.835V388.42H727.778V389.926H722.835V395H721.079Z" fill="#222222"/>
<rect x="263" y="50" width="81" height="32" rx="16" fill="#222222"/>
<path d="M287.329 60.8182V71H285.47L281.04 64.5916H280.966V71H278.813V60.8182H280.702L285.097 67.2216H285.187V60.8182H287.329ZM290.723 71H288.416L291.931 60.8182H294.705L298.215 71H295.908L293.358 63.1449H293.278L290.723 71ZM290.579 66.9979H296.028V68.6783H290.579V66.9979ZM297.669 62.593V60.8182H306.031V62.593H302.914V71H300.786V62.593H297.669ZM309.421 60.8182V71H307.268V60.8182H309.421ZM312.891 60.8182L315.352 68.554H315.447L317.913 60.8182H320.299L316.789 71H314.015L310.5 60.8182H312.891ZM321.385 71V60.8182H328.245V62.593H323.537V65.0192H327.892V66.794H323.537V69.2251H328.265V71H321.385Z" fill="white"/>
<rect x="512" y="50" width="81" height="32" rx="16" fill="#222222"/>
<path d="M539.65 71L536.737 60.8182H539.088L540.773 67.8928H540.858L542.717 60.8182H544.731L546.585 67.9077H546.675L548.36 60.8182H550.712L547.798 71H545.7L543.761 64.343H543.682L541.748 71H539.65ZM551.724 71V60.8182H558.585V62.593H553.877V65.0192H558.232V66.794H553.877V69.2251H558.604V71H551.724ZM560.156 71V60.8182H564.233C564.982 60.8182 565.607 60.9292 566.107 61.1513C566.608 61.3733 566.984 61.6816 567.236 62.076C567.488 62.4671 567.613 62.9179 567.613 63.4283C567.613 63.826 567.534 64.1757 567.375 64.4773C567.216 64.7756 566.997 65.0208 566.719 65.2131C566.443 65.402 566.129 65.5362 565.774 65.6158V65.7152C566.162 65.7318 566.525 65.8411 566.863 66.0433C567.204 66.2455 567.481 66.5289 567.693 66.8935C567.905 67.2547 568.011 67.6856 568.011 68.1861C568.011 68.7263 567.877 69.2086 567.608 69.6328C567.343 70.0537 566.951 70.3868 566.43 70.6321C565.91 70.8774 565.269 71 564.506 71H560.156ZM562.309 69.2401H564.064C564.664 69.2401 565.101 69.1257 565.376 68.897C565.651 68.665 565.789 68.3568 565.789 67.9723C565.789 67.6906 565.721 67.442 565.585 67.2266C565.449 67.0111 565.255 66.8421 565.003 66.7195C564.755 66.5968 564.458 66.5355 564.113 66.5355H562.309V69.2401ZM562.309 65.0788H563.905C564.2 65.0788 564.461 65.0275 564.69 64.9247C564.922 64.8187 565.104 64.6695 565.237 64.4773C565.373 64.285 565.441 64.0547 565.441 63.7862C565.441 63.4183 565.31 63.1217 565.048 62.8963C564.79 62.6709 564.422 62.5582 563.944 62.5582H562.309V65.0788Z" fill="white"/>
<path d="M52.3648 69H50.8875L55.1603 57.3636H56.6148L60.8875 69H59.4103L55.933 59.2045H55.8421L52.3648 69ZM52.9103 64.4545H58.8648V65.7045H52.9103V64.4545ZM62.62 69V57.3636H66.5518C67.4647 57.3636 68.2109 57.5284 68.7905 57.858C69.3738 58.1837 69.8056 58.625 70.0859 59.1818C70.3662 59.7386 70.5064 60.3598 70.5064 61.0455C70.5064 61.7311 70.3662 62.3542 70.0859 62.9148C69.8094 63.4754 69.3814 63.9223 68.8018 64.2557C68.2223 64.5852 67.4799 64.75 66.5746 64.75H63.7564V63.5H66.5291C67.1541 63.5 67.656 63.392 68.0348 63.1761C68.4136 62.9602 68.6882 62.6686 68.8587 62.3011C69.0329 61.9299 69.12 61.5114 69.12 61.0455C69.12 60.5795 69.0329 60.1629 68.8587 59.7955C68.6882 59.428 68.4117 59.1402 68.0291 58.9318C67.6465 58.7197 67.139 58.6136 66.5064 58.6136H64.0291V69H62.62ZM74.1054 57.3636V69H72.6963V57.3636H74.1054Z" fill="black"/>
<path d="M55.799 224H54.3899C54.3066 223.595 54.1607 223.239 53.9524 222.932C53.7478 222.625 53.4978 222.367 53.2024 222.159C52.9107 221.947 52.5869 221.788 52.2308 221.682C51.8747 221.576 51.5035 221.523 51.1172 221.523C50.4126 221.523 49.7744 221.701 49.2024 222.057C48.6342 222.413 48.1816 222.938 47.8444 223.631C47.5111 224.324 47.3444 225.174 47.3444 226.182C47.3444 227.189 47.5111 228.04 47.8444 228.733C48.1816 229.426 48.6342 229.951 49.2024 230.307C49.7744 230.663 50.4126 230.841 51.1172 230.841C51.5035 230.841 51.8747 230.788 52.2308 230.682C52.5869 230.576 52.9107 230.419 53.2024 230.21C53.4978 229.998 53.7478 229.739 53.9524 229.432C54.1607 229.121 54.3066 228.765 54.3899 228.364H55.799C55.6929 228.958 55.4997 229.491 55.2194 229.96C54.9391 230.43 54.5906 230.83 54.174 231.159C53.7573 231.485 53.2895 231.733 52.7706 231.903C52.2554 232.074 51.7043 232.159 51.1172 232.159C50.1247 232.159 49.2422 231.917 48.4694 231.432C47.6967 230.947 47.0888 230.258 46.6456 229.364C46.2024 228.47 45.9808 227.409 45.9808 226.182C45.9808 224.955 46.2024 223.894 46.6456 223C47.0888 222.106 47.6967 221.417 48.4694 220.932C49.2422 220.447 50.1247 220.205 51.1172 220.205C51.7043 220.205 52.2554 220.29 52.7706 220.46C53.2895 220.631 53.7573 220.881 54.174 221.21C54.5906 221.536 54.9391 221.934 55.2194 222.403C55.4997 222.869 55.6929 223.402 55.799 224ZM61.3596 232.182C60.5717 232.182 59.8804 231.994 59.2857 231.619C58.6948 231.244 58.2327 230.72 57.8994 230.045C57.5698 229.371 57.4051 228.583 57.4051 227.682C57.4051 226.773 57.5698 225.979 57.8994 225.301C58.2327 224.623 58.6948 224.097 59.2857 223.722C59.8804 223.347 60.5717 223.159 61.3596 223.159C62.1475 223.159 62.8369 223.347 63.4278 223.722C64.0225 224.097 64.4846 224.623 64.8141 225.301C65.1475 225.979 65.3141 226.773 65.3141 227.682C65.3141 228.583 65.1475 229.371 64.8141 230.045C64.4846 230.72 64.0225 231.244 63.4278 231.619C62.8369 231.994 62.1475 232.182 61.3596 232.182ZM61.3596 230.977C61.9581 230.977 62.4505 230.824 62.8369 230.517C63.2232 230.21 63.5092 229.807 63.6948 229.307C63.8804 228.807 63.9732 228.265 63.9732 227.682C63.9732 227.098 63.8804 226.555 63.6948 226.051C63.5092 225.547 63.2232 225.14 62.8369 224.83C62.4505 224.519 61.9581 224.364 61.3596 224.364C60.7611 224.364 60.2687 224.519 59.8823 224.83C59.496 225.14 59.21 225.547 59.0244 226.051C58.8388 226.555 58.746 227.098 58.746 227.682C58.746 228.265 58.8388 228.807 59.0244 229.307C59.21 229.807 59.496 230.21 59.8823 230.517C60.2687 230.824 60.7611 230.977 61.3596 230.977ZM67.281 232V223.273H68.5765V224.591H68.6674C68.8265 224.159 69.1144 223.809 69.531 223.54C69.9477 223.271 70.4174 223.136 70.9401 223.136C71.0386 223.136 71.1617 223.138 71.3094 223.142C71.4572 223.146 71.5689 223.152 71.6447 223.159V224.523C71.5992 224.511 71.495 224.494 71.3322 224.472C71.1731 224.445 71.0045 224.432 70.8265 224.432C70.4022 224.432 70.0234 224.521 69.6901 224.699C69.3606 224.873 69.0992 225.116 68.906 225.426C68.7166 225.733 68.6219 226.083 68.6219 226.477V232H67.281ZM76.5476 232.182C75.7067 232.182 74.9813 231.996 74.3715 231.625C73.7654 231.25 73.2976 230.727 72.9681 230.057C72.6423 229.383 72.4794 228.598 72.4794 227.705C72.4794 226.811 72.6423 226.023 72.9681 225.341C73.2976 224.655 73.7559 224.121 74.3431 223.739C74.934 223.352 75.6234 223.159 76.4113 223.159C76.8658 223.159 77.3147 223.235 77.7578 223.386C78.201 223.538 78.6044 223.784 78.9681 224.125C79.3317 224.462 79.6215 224.909 79.8374 225.466C80.0533 226.023 80.1613 226.708 80.1613 227.523V228.091H73.434V226.932H78.7976C78.7976 226.439 78.6991 226 78.5022 225.614C78.309 225.227 78.0325 224.922 77.6726 224.699C77.3166 224.475 76.8961 224.364 76.4113 224.364C75.8772 224.364 75.415 224.496 75.0249 224.761C74.6385 225.023 74.3412 225.364 74.1328 225.784C73.9245 226.205 73.8203 226.655 73.8203 227.136V227.909C73.8203 228.568 73.934 229.127 74.1613 229.585C74.3923 230.04 74.7124 230.386 75.1215 230.625C75.5306 230.86 76.0059 230.977 76.5476 230.977C76.8999 230.977 77.2181 230.928 77.5022 230.83C77.79 230.727 78.0381 230.576 78.2465 230.375C78.4548 230.17 78.6158 229.917 78.7294 229.614L80.0249 229.977C79.8885 230.417 79.6594 230.803 79.3374 231.136C79.0154 231.466 78.6177 231.723 78.1442 231.909C77.6707 232.091 77.1385 232.182 76.5476 232.182Z" fill="black"/>
<path d="M804.41 386.273C804.342 385.697 804.066 385.25 803.581 384.932C803.096 384.614 802.501 384.455 801.797 384.455C801.281 384.455 800.831 384.538 800.444 384.705C800.062 384.871 799.763 385.1 799.547 385.392C799.334 385.684 799.228 386.015 799.228 386.386C799.228 386.697 799.302 386.964 799.45 387.188C799.602 387.407 799.795 387.591 800.03 387.739C800.264 387.883 800.511 388.002 800.768 388.097C801.026 388.187 801.263 388.261 801.478 388.318L802.66 388.636C802.963 388.716 803.3 388.826 803.672 388.966C804.047 389.106 804.405 389.297 804.745 389.54C805.09 389.778 805.374 390.085 805.598 390.46C805.821 390.835 805.933 391.295 805.933 391.841C805.933 392.47 805.768 393.038 805.439 393.545C805.113 394.053 804.636 394.456 804.007 394.756C803.382 395.055 802.622 395.205 801.728 395.205C800.895 395.205 800.173 395.07 799.564 394.801C798.958 394.532 798.48 394.157 798.132 393.676C797.787 393.195 797.592 392.636 797.547 392H799.001C799.039 392.439 799.187 392.803 799.444 393.091C799.706 393.375 800.035 393.587 800.433 393.727C800.834 393.864 801.266 393.932 801.728 393.932C802.266 393.932 802.749 393.845 803.177 393.67C803.605 393.492 803.944 393.246 804.194 392.932C804.444 392.614 804.569 392.242 804.569 391.818C804.569 391.432 804.461 391.117 804.245 390.875C804.03 390.633 803.745 390.436 803.393 390.284C803.041 390.133 802.66 390 802.251 389.886L800.819 389.477C799.91 389.216 799.191 388.843 798.66 388.358C798.13 387.873 797.865 387.239 797.865 386.455C797.865 385.803 798.041 385.235 798.393 384.75C798.749 384.261 799.227 383.883 799.825 383.614C800.427 383.341 801.1 383.205 801.842 383.205C802.592 383.205 803.259 383.339 803.842 383.608C804.425 383.873 804.888 384.237 805.228 384.699C805.573 385.161 805.755 385.686 805.774 386.273H804.41ZM810.556 395.205C810.003 395.205 809.501 395.1 809.05 394.892C808.6 394.68 808.242 394.375 807.977 393.977C807.711 393.576 807.579 393.091 807.579 392.523C807.579 392.023 807.677 391.617 807.874 391.307C808.071 390.992 808.334 390.746 808.664 390.568C808.994 390.39 809.357 390.258 809.755 390.17C810.156 390.08 810.56 390.008 810.965 389.955C811.495 389.886 811.925 389.835 812.255 389.801C812.588 389.763 812.831 389.701 812.982 389.614C813.138 389.527 813.215 389.375 813.215 389.159V389.114C813.215 388.553 813.062 388.117 812.755 387.807C812.452 387.496 811.992 387.341 811.374 387.341C810.734 387.341 810.232 387.481 809.869 387.761C809.505 388.042 809.249 388.341 809.102 388.659L807.829 388.205C808.056 387.674 808.359 387.261 808.738 386.966C809.12 386.667 809.537 386.458 809.988 386.341C810.442 386.22 810.889 386.159 811.329 386.159C811.609 386.159 811.931 386.193 812.295 386.261C812.662 386.326 813.016 386.46 813.357 386.665C813.702 386.869 813.988 387.178 814.215 387.591C814.442 388.004 814.556 388.557 814.556 389.25V395H813.215V393.818H813.147C813.056 394.008 812.905 394.21 812.692 394.426C812.48 394.642 812.198 394.826 811.846 394.977C811.494 395.129 811.064 395.205 810.556 395.205ZM810.761 394C811.291 394 811.738 393.896 812.102 393.688C812.469 393.479 812.745 393.21 812.931 392.881C813.12 392.551 813.215 392.205 813.215 391.841V390.614C813.158 390.682 813.033 390.744 812.84 390.801C812.651 390.854 812.431 390.902 812.181 390.943C811.935 390.981 811.694 391.015 811.459 391.045C811.228 391.072 811.041 391.095 810.897 391.114C810.549 391.159 810.223 391.233 809.92 391.335C809.62 391.434 809.378 391.583 809.192 391.784C809.011 391.981 808.92 392.25 808.92 392.591C808.92 393.057 809.092 393.409 809.437 393.648C809.785 393.883 810.227 394 810.761 394ZM823.747 386.273L820.52 395H819.156L815.929 386.273H817.384L819.793 393.227H819.884L822.293 386.273H823.747ZM828.784 395.182C827.943 395.182 827.218 394.996 826.608 394.625C826.002 394.25 825.534 393.727 825.204 393.057C824.879 392.383 824.716 391.598 824.716 390.705C824.716 389.811 824.879 389.023 825.204 388.341C825.534 387.655 825.992 387.121 826.579 386.739C827.17 386.352 827.86 386.159 828.647 386.159C829.102 386.159 829.551 386.235 829.994 386.386C830.437 386.538 830.841 386.784 831.204 387.125C831.568 387.462 831.858 387.909 832.074 388.466C832.29 389.023 832.397 389.708 832.397 390.523V391.091H825.67V389.932H831.034C831.034 389.439 830.935 389 830.738 388.614C830.545 388.227 830.269 387.922 829.909 387.699C829.553 387.475 829.132 387.364 828.647 387.364C828.113 387.364 827.651 387.496 827.261 387.761C826.875 388.023 826.577 388.364 826.369 388.784C826.161 389.205 826.057 389.655 826.057 390.136V390.909C826.057 391.568 826.17 392.127 826.397 392.585C826.629 393.04 826.949 393.386 827.358 393.625C827.767 393.86 828.242 393.977 828.784 393.977C829.136 393.977 829.454 393.928 829.738 393.83C830.026 393.727 830.274 393.576 830.483 393.375C830.691 393.17 830.852 392.917 830.966 392.614L832.261 392.977C832.125 393.417 831.896 393.803 831.574 394.136C831.252 394.466 830.854 394.723 830.38 394.909C829.907 395.091 829.375 395.182 828.784 395.182ZM834.357 395V386.273H835.653V387.591H835.744C835.903 387.159 836.191 386.809 836.607 386.54C837.024 386.271 837.494 386.136 838.016 386.136C838.115 386.136 838.238 386.138 838.386 386.142C838.533 386.146 838.645 386.152 838.721 386.159V387.523C838.675 387.511 838.571 387.494 838.408 387.472C838.249 387.445 838.081 387.432 837.903 387.432C837.478 387.432 837.1 387.521 836.766 387.699C836.437 387.873 836.175 388.116 835.982 388.426C835.793 388.733 835.698 389.083 835.698 389.477V395H834.357ZM846.412 388.227L845.208 388.568C845.132 388.367 845.02 388.172 844.872 387.983C844.729 387.79 844.532 387.631 844.282 387.506C844.032 387.381 843.711 387.318 843.321 387.318C842.787 387.318 842.342 387.441 841.986 387.688C841.634 387.93 841.458 388.239 841.458 388.614C841.458 388.947 841.579 389.21 841.821 389.403C842.064 389.597 842.443 389.758 842.958 389.886L844.253 390.205C845.033 390.394 845.615 390.684 845.997 391.074C846.38 391.46 846.571 391.958 846.571 392.568C846.571 393.068 846.427 393.515 846.139 393.909C845.855 394.303 845.458 394.614 844.946 394.841C844.435 395.068 843.84 395.182 843.162 395.182C842.272 395.182 841.535 394.989 840.952 394.602C840.369 394.216 839.999 393.652 839.844 392.909L841.117 392.591C841.238 393.061 841.467 393.413 841.804 393.648C842.145 393.883 842.59 394 843.139 394C843.764 394 844.261 393.867 844.628 393.602C844.999 393.333 845.185 393.011 845.185 392.636C845.185 392.333 845.079 392.08 844.867 391.875C844.655 391.667 844.329 391.511 843.889 391.409L842.435 391.068C841.636 390.879 841.049 390.585 840.674 390.188C840.302 389.786 840.117 389.284 840.117 388.682C840.117 388.189 840.255 387.754 840.532 387.375C840.812 386.996 841.193 386.699 841.674 386.483C842.158 386.267 842.708 386.159 843.321 386.159C844.185 386.159 844.863 386.348 845.355 386.727C845.852 387.106 846.204 387.606 846.412 388.227Z" fill="black"/>
<path d="M796.087 242V230.364H797.496V240.75H802.905V242H796.087ZM808.37 242.182C807.582 242.182 806.891 241.994 806.296 241.619C805.705 241.244 805.243 240.72 804.91 240.045C804.58 239.371 804.416 238.583 804.416 237.682C804.416 236.773 804.58 235.979 804.91 235.301C805.243 234.623 805.705 234.097 806.296 233.722C806.891 233.347 807.582 233.159 808.37 233.159C809.158 233.159 809.848 233.347 810.438 233.722C811.033 234.097 811.495 234.623 811.825 235.301C812.158 235.979 812.325 236.773 812.325 237.682C812.325 238.583 812.158 239.371 811.825 240.045C811.495 240.72 811.033 241.244 810.438 241.619C809.848 241.994 809.158 242.182 808.37 242.182ZM808.37 240.977C808.969 240.977 809.461 240.824 809.847 240.517C810.234 240.21 810.52 239.807 810.705 239.307C810.891 238.807 810.984 238.265 810.984 237.682C810.984 237.098 810.891 236.555 810.705 236.051C810.52 235.547 810.234 235.14 809.847 234.83C809.461 234.519 808.969 234.364 808.37 234.364C807.772 234.364 807.279 234.519 806.893 234.83C806.507 235.14 806.221 235.547 806.035 236.051C805.849 236.555 805.757 237.098 805.757 237.682C805.757 238.265 805.849 238.807 806.035 239.307C806.221 239.807 806.507 240.21 806.893 240.517C807.279 240.824 807.772 240.977 808.37 240.977ZM816.86 242.205C816.307 242.205 815.805 242.1 815.354 241.892C814.903 241.68 814.545 241.375 814.28 240.977C814.015 240.576 813.883 240.091 813.883 239.523C813.883 239.023 813.981 238.617 814.178 238.307C814.375 237.992 814.638 237.746 814.968 237.568C815.297 237.39 815.661 237.258 816.059 237.17C816.46 237.08 816.864 237.008 817.269 236.955C817.799 236.886 818.229 236.835 818.559 236.801C818.892 236.763 819.134 236.701 819.286 236.614C819.441 236.527 819.519 236.375 819.519 236.159V236.114C819.519 235.553 819.366 235.117 819.059 234.807C818.756 234.496 818.295 234.341 817.678 234.341C817.038 234.341 816.536 234.481 816.172 234.761C815.809 235.042 815.553 235.341 815.405 235.659L814.133 235.205C814.36 234.674 814.663 234.261 815.042 233.966C815.424 233.667 815.841 233.458 816.292 233.341C816.746 233.22 817.193 233.159 817.633 233.159C817.913 233.159 818.235 233.193 818.598 233.261C818.966 233.326 819.32 233.46 819.661 233.665C820.006 233.869 820.292 234.178 820.519 234.591C820.746 235.004 820.86 235.557 820.86 236.25V242H819.519V240.818H819.451C819.36 241.008 819.208 241.21 818.996 241.426C818.784 241.642 818.502 241.826 818.15 241.977C817.797 242.129 817.367 242.205 816.86 242.205ZM817.064 241C817.595 241 818.042 240.896 818.405 240.688C818.773 240.479 819.049 240.21 819.235 239.881C819.424 239.551 819.519 239.205 819.519 238.841V237.614C819.462 237.682 819.337 237.744 819.144 237.801C818.955 237.854 818.735 237.902 818.485 237.943C818.239 237.981 817.998 238.015 817.763 238.045C817.532 238.072 817.345 238.095 817.201 238.114C816.852 238.159 816.526 238.233 816.223 238.335C815.924 238.434 815.682 238.583 815.496 238.784C815.314 238.981 815.223 239.25 815.223 239.591C815.223 240.057 815.396 240.409 815.741 240.648C816.089 240.883 816.53 241 817.064 241ZM826.523 242.182C825.795 242.182 825.153 241.998 824.597 241.631C824.04 241.259 823.604 240.737 823.29 240.062C822.975 239.384 822.818 238.583 822.818 237.659C822.818 236.742 822.975 235.947 823.29 235.273C823.604 234.598 824.042 234.078 824.602 233.71C825.163 233.343 825.811 233.159 826.545 233.159C827.114 233.159 827.563 233.254 827.892 233.443C828.225 233.629 828.479 233.841 828.653 234.08C828.831 234.314 828.97 234.508 829.068 234.659H829.182V230.364H830.523V242H829.227V240.659H829.068C828.97 240.818 828.83 241.019 828.648 241.261C828.466 241.5 828.206 241.714 827.869 241.903C827.532 242.089 827.083 242.182 826.523 242.182ZM826.705 240.977C827.242 240.977 827.697 240.837 828.068 240.557C828.439 240.273 828.722 239.881 828.915 239.381C829.108 238.877 829.205 238.295 829.205 237.636C829.205 236.985 829.11 236.415 828.92 235.926C828.731 235.434 828.451 235.051 828.08 234.778C827.708 234.502 827.25 234.364 826.705 234.364C826.136 234.364 825.663 234.509 825.284 234.801C824.909 235.089 824.627 235.481 824.438 235.977C824.252 236.47 824.159 237.023 824.159 237.636C824.159 238.258 824.254 238.822 824.443 239.33C824.636 239.833 824.92 240.235 825.295 240.534C825.674 240.83 826.144 240.977 826.705 240.977ZM836.744 242.182C835.903 242.182 835.178 241.996 834.568 241.625C833.962 241.25 833.494 240.727 833.164 240.057C832.839 239.383 832.676 238.598 832.676 237.705C832.676 236.811 832.839 236.023 833.164 235.341C833.494 234.655 833.952 234.121 834.539 233.739C835.13 233.352 835.82 233.159 836.607 233.159C837.062 233.159 837.511 233.235 837.954 233.386C838.397 233.538 838.801 233.784 839.164 234.125C839.528 234.462 839.818 234.909 840.034 235.466C840.25 236.023 840.357 236.708 840.357 237.523V238.091H833.63V236.932H838.994C838.994 236.439 838.895 236 838.698 235.614C838.505 235.227 838.229 234.922 837.869 234.699C837.513 234.475 837.092 234.364 836.607 234.364C836.073 234.364 835.611 234.496 835.221 234.761C834.835 235.023 834.537 235.364 834.329 235.784C834.121 236.205 834.017 236.655 834.017 237.136V237.909C834.017 238.568 834.13 239.127 834.357 239.585C834.589 240.04 834.909 240.386 835.318 240.625C835.727 240.86 836.202 240.977 836.744 240.977C837.096 240.977 837.414 240.928 837.698 240.83C837.986 240.727 838.234 240.576 838.443 240.375C838.651 240.17 838.812 239.917 838.926 239.614L840.221 239.977C840.085 240.417 839.856 240.803 839.534 241.136C839.212 241.466 838.814 241.723 838.34 241.909C837.867 242.091 837.335 242.182 836.744 242.182ZM842.317 242V233.273H843.613V234.591H843.704C843.863 234.159 844.151 233.809 844.567 233.54C844.984 233.271 845.454 233.136 845.976 233.136C846.075 233.136 846.198 233.138 846.346 233.142C846.493 233.146 846.605 233.152 846.681 233.159V234.523C846.635 234.511 846.531 234.494 846.368 234.472C846.209 234.445 846.041 234.432 845.863 234.432C845.438 234.432 845.06 234.521 844.726 234.699C844.397 234.873 844.135 235.116 843.942 235.426C843.753 235.733 843.658 236.083 843.658 236.477V242H842.317ZM854.372 235.227L853.168 235.568C853.092 235.367 852.98 235.172 852.832 234.983C852.689 234.79 852.492 234.631 852.242 234.506C851.992 234.381 851.671 234.318 851.281 234.318C850.747 234.318 850.302 234.441 849.946 234.688C849.594 234.93 849.418 235.239 849.418 235.614C849.418 235.947 849.539 236.21 849.781 236.403C850.024 236.597 850.403 236.758 850.918 236.886L852.213 237.205C852.993 237.394 853.575 237.684 853.957 238.074C854.34 238.46 854.531 238.958 854.531 239.568C854.531 240.068 854.387 240.515 854.099 240.909C853.815 241.303 853.418 241.614 852.906 241.841C852.395 242.068 851.8 242.182 851.122 242.182C850.232 242.182 849.495 241.989 848.912 241.602C848.329 241.216 847.959 240.652 847.804 239.909L849.077 239.591C849.198 240.061 849.427 240.413 849.764 240.648C850.105 240.883 850.55 241 851.099 241C851.724 241 852.221 240.867 852.588 240.602C852.959 240.333 853.145 240.011 853.145 239.636C853.145 239.333 853.039 239.08 852.827 238.875C852.615 238.667 852.289 238.511 851.849 238.409L850.395 238.068C849.596 237.879 849.009 237.585 848.634 237.188C848.262 236.786 848.077 236.284 848.077 235.682C848.077 235.189 848.215 234.754 848.492 234.375C848.772 233.996 849.153 233.699 849.634 233.483C850.118 233.267 850.668 233.159 851.281 233.159C852.145 233.159 852.823 233.348 853.315 233.727C853.812 234.106 854.164 234.606 854.372 235.227Z" fill="black"/>
<path d="M37.3122 387V375.364H41.244C42.1531 375.364 42.8993 375.519 43.4827 375.83C44.066 376.136 44.4978 376.559 44.7781 377.097C45.0584 377.634 45.1986 378.246 45.1986 378.932C45.1986 379.617 45.0584 380.225 44.7781 380.756C44.4978 381.286 44.0679 381.703 43.4884 382.006C42.9088 382.305 42.1683 382.455 41.2668 382.455H38.0849V381.182H41.2213C41.8425 381.182 42.3425 381.091 42.7213 380.909C43.1039 380.727 43.3804 380.47 43.5509 380.136C43.7251 379.799 43.8122 379.398 43.8122 378.932C43.8122 378.466 43.7251 378.059 43.5509 377.71C43.3766 377.362 43.0982 377.093 42.7156 376.903C42.3331 376.71 41.8274 376.614 41.1986 376.614H38.7213V387H37.3122ZM42.7895 381.773L45.6531 387H44.0168L41.1986 381.773H42.7895ZM49.853 387.205C49.2999 387.205 48.798 387.1 48.3473 386.892C47.8965 386.68 47.5386 386.375 47.2734 385.977C47.0083 385.576 46.8757 385.091 46.8757 384.523C46.8757 384.023 46.9742 383.617 47.1711 383.307C47.3681 382.992 47.6314 382.746 47.9609 382.568C48.2905 382.39 48.6541 382.258 49.0518 382.17C49.4533 382.08 49.8567 382.008 50.262 381.955C50.7924 381.886 51.2223 381.835 51.5518 381.801C51.8852 381.763 52.1276 381.701 52.2791 381.614C52.4344 381.527 52.512 381.375 52.512 381.159V381.114C52.512 380.553 52.3586 380.117 52.0518 379.807C51.7488 379.496 51.2886 379.341 50.6711 379.341C50.031 379.341 49.5291 379.481 49.1655 379.761C48.8018 380.042 48.5461 380.341 48.3984 380.659L47.1257 380.205C47.353 379.674 47.656 379.261 48.0348 378.966C48.4174 378.667 48.834 378.458 49.2848 378.341C49.7393 378.22 50.1863 378.159 50.6257 378.159C50.906 378.159 51.228 378.193 51.5916 378.261C51.959 378.326 52.3132 378.46 52.6541 378.665C52.9988 378.869 53.2848 379.178 53.512 379.591C53.7393 380.004 53.853 380.557 53.853 381.25V387H52.512V385.818H52.4439C52.353 386.008 52.2014 386.21 51.9893 386.426C51.7772 386.642 51.495 386.826 51.1427 386.977C50.7905 387.129 50.3605 387.205 49.853 387.205ZM50.0575 386C50.5878 386 51.0348 385.896 51.3984 385.688C51.7658 385.479 52.0424 385.21 52.228 384.881C52.4174 384.551 52.512 384.205 52.512 383.841V382.614C52.4552 382.682 52.3302 382.744 52.137 382.801C51.9477 382.854 51.728 382.902 51.478 382.943C51.2317 382.981 50.9912 383.015 50.7564 383.045C50.5253 383.072 50.3378 383.095 50.1939 383.114C49.8454 383.159 49.5196 383.233 49.2166 383.335C48.9174 383.434 48.6749 383.583 48.4893 383.784C48.3075 383.981 48.2166 384.25 48.2166 384.591C48.2166 385.057 48.3889 385.409 48.7336 385.648C49.0821 385.883 49.5234 386 50.0575 386ZM62.4022 380.227L61.1977 380.568C61.1219 380.367 61.0102 380.172 60.8624 379.983C60.7185 379.79 60.5215 379.631 60.2715 379.506C60.0215 379.381 59.7015 379.318 59.3113 379.318C58.7772 379.318 58.3321 379.441 57.9761 379.688C57.6238 379.93 57.4477 380.239 57.4477 380.614C57.4477 380.947 57.5689 381.21 57.8113 381.403C58.0537 381.597 58.4325 381.758 58.9477 381.886L60.2431 382.205C61.0234 382.394 61.6049 382.684 61.9874 383.074C62.37 383.46 62.5613 383.958 62.5613 384.568C62.5613 385.068 62.4174 385.515 62.1295 385.909C61.8454 386.303 61.4477 386.614 60.9363 386.841C60.4249 387.068 59.8302 387.182 59.1522 387.182C58.2621 387.182 57.5253 386.989 56.942 386.602C56.3587 386.216 55.9893 385.652 55.834 384.909L57.1068 384.591C57.228 385.061 57.4571 385.413 57.7943 385.648C58.1352 385.883 58.5802 386 59.1295 386C59.7545 386 60.2507 385.867 60.6181 385.602C60.9893 385.333 61.1749 385.011 61.1749 384.636C61.1749 384.333 61.0689 384.08 60.8568 383.875C60.6446 383.667 60.3189 383.511 59.8795 383.409L58.4249 383.068C57.6257 382.879 57.0386 382.585 56.6636 382.188C56.2924 381.786 56.1068 381.284 56.1068 380.682C56.1068 380.189 56.245 379.754 56.5215 379.375C56.8018 378.996 57.1825 378.699 57.6636 378.483C58.1484 378.267 58.6977 378.159 59.3113 378.159C60.1749 378.159 60.853 378.348 61.3454 378.727C61.8416 379.106 62.1939 379.606 62.4022 380.227ZM68.2952 378.273V379.409H63.7725V378.273H68.2952ZM65.0907 376.182H66.4316V384.5C66.4316 384.879 66.4865 385.163 66.5964 385.352C66.71 385.538 66.8539 385.663 67.0282 385.727C67.2062 385.788 67.3937 385.818 67.5907 385.818C67.7384 385.818 67.8596 385.811 67.9543 385.795C68.049 385.777 68.1248 385.761 68.1816 385.75L68.4543 386.955C68.3634 386.989 68.2365 387.023 68.0736 387.057C67.9108 387.095 67.7043 387.114 67.4543 387.114C67.0755 387.114 66.7043 387.032 66.3407 386.869C65.9808 386.706 65.6816 386.458 65.443 386.125C65.2081 385.792 65.0907 385.371 65.0907 384.864V376.182ZM73.7976 387.182C72.9567 387.182 72.2313 386.996 71.6215 386.625C71.0154 386.25 70.5476 385.727 70.2181 385.057C69.8923 384.383 69.7294 383.598 69.7294 382.705C69.7294 381.811 69.8923 381.023 70.2181 380.341C70.5476 379.655 71.0059 379.121 71.5931 378.739C72.184 378.352 72.8734 378.159 73.6613 378.159C74.1158 378.159 74.5647 378.235 75.0078 378.386C75.451 378.538 75.8544 378.784 76.2181 379.125C76.5817 379.462 76.8715 379.909 77.0874 380.466C77.3033 381.023 77.4113 381.708 77.4113 382.523V383.091H70.684V381.932H76.0476C76.0476 381.439 75.9491 381 75.7522 380.614C75.559 380.227 75.2825 379.922 74.9226 379.699C74.5666 379.475 74.1461 379.364 73.6613 379.364C73.1272 379.364 72.665 379.496 72.2749 379.761C71.8885 380.023 71.5912 380.364 71.3828 380.784C71.1745 381.205 71.0703 381.655 71.0703 382.136V382.909C71.0703 383.568 71.184 384.127 71.4113 384.585C71.6423 385.04 71.9624 385.386 72.3715 385.625C72.7806 385.86 73.2559 385.977 73.7976 385.977C74.1499 385.977 74.4681 385.928 74.7522 385.83C75.04 385.727 75.2881 385.576 75.4965 385.375C75.7048 385.17 75.8658 384.917 75.9794 384.614L77.2749 384.977C77.1385 385.417 76.9094 385.803 76.5874 386.136C76.2654 386.466 75.8677 386.723 75.3942 386.909C74.9207 387.091 74.3885 387.182 73.7976 387.182ZM79.371 387V378.273H80.6665V379.591H80.7574C80.9165 379.159 81.2044 378.809 81.621 378.54C82.0377 378.271 82.5074 378.136 83.0301 378.136C83.1286 378.136 83.2517 378.138 83.3994 378.142C83.5472 378.146 83.6589 378.152 83.7347 378.159V379.523C83.6892 379.511 83.585 379.494 83.4222 379.472C83.2631 379.445 83.0945 379.432 82.9165 379.432C82.4922 379.432 82.1135 379.521 81.7801 379.699C81.4506 379.873 81.1892 380.116 80.996 380.426C80.8066 380.733 80.7119 381.083 80.7119 381.477V387H79.371ZM24.8532 406V394.364H28.9213C29.7319 394.364 30.4005 394.504 30.927 394.784C31.4535 395.061 31.8456 395.434 32.1032 395.903C32.3607 396.369 32.4895 396.886 32.4895 397.455C32.4895 397.955 32.4005 398.367 32.2225 398.693C32.0482 399.019 31.8172 399.277 31.5293 399.466C31.2452 399.655 30.9365 399.795 30.6032 399.886V400C30.9592 400.023 31.3172 400.148 31.677 400.375C32.0369 400.602 32.338 400.928 32.5804 401.352C32.8228 401.777 32.9441 402.295 32.9441 402.909C32.9441 403.492 32.8115 404.017 32.5463 404.483C32.2812 404.949 31.8626 405.318 31.2907 405.591C30.7187 405.864 29.9744 406 29.0577 406H24.8532ZM26.2622 404.75H29.0577C29.9782 404.75 30.6316 404.572 31.0179 404.216C31.4081 403.856 31.6032 403.42 31.6032 402.909C31.6032 402.515 31.5028 402.152 31.302 401.818C31.1013 401.481 30.8153 401.212 30.4441 401.011C30.0728 400.807 29.6335 400.705 29.1259 400.705H26.2622V404.75ZM26.2622 399.477H28.8759C29.3001 399.477 29.6827 399.394 30.0236 399.227C30.3683 399.061 30.641 398.826 30.8418 398.523C31.0463 398.22 31.1486 397.864 31.1486 397.455C31.1486 396.943 30.9706 396.509 30.6145 396.153C30.2585 395.794 29.6941 395.614 28.9213 395.614H26.2622V399.477ZM37.5658 406.205C37.0127 406.205 36.5108 406.1 36.0601 405.892C35.6093 405.68 35.2514 405.375 34.9862 404.977C34.7211 404.576 34.5885 404.091 34.5885 403.523C34.5885 403.023 34.687 402.617 34.8839 402.307C35.0809 401.992 35.3442 401.746 35.6737 401.568C36.0033 401.39 36.3669 401.258 36.7646 401.17C37.1661 401.08 37.5696 401.008 37.9749 400.955C38.5052 400.886 38.9351 400.835 39.2646 400.801C39.598 400.763 39.8404 400.701 39.9919 400.614C40.1472 400.527 40.2249 400.375 40.2249 400.159V400.114C40.2249 399.553 40.0714 399.117 39.7646 398.807C39.4616 398.496 39.0014 398.341 38.3839 398.341C37.7438 398.341 37.2419 398.481 36.8783 398.761C36.5146 399.042 36.2589 399.341 36.1112 399.659L34.8385 399.205C35.0658 398.674 35.3688 398.261 35.7476 397.966C36.1302 397.667 36.5468 397.458 36.9976 397.341C37.4521 397.22 37.8991 397.159 38.3385 397.159C38.6188 397.159 38.9408 397.193 39.3044 397.261C39.6718 397.326 40.026 397.46 40.3669 397.665C40.7116 397.869 40.9976 398.178 41.2249 398.591C41.4521 399.004 41.5658 399.557 41.5658 400.25V406H40.2249V404.818H40.1567C40.0658 405.008 39.9143 405.21 39.7021 405.426C39.49 405.642 39.2078 405.826 38.8555 405.977C38.5033 406.129 38.0733 406.205 37.5658 406.205ZM37.7703 405C38.3006 405 38.7476 404.896 39.1112 404.688C39.4786 404.479 39.7552 404.21 39.9408 403.881C40.1302 403.551 40.2249 403.205 40.2249 402.841V401.614C40.168 401.682 40.043 401.744 39.8499 401.801C39.6605 401.854 39.4408 401.902 39.1908 401.943C38.9446 401.981 38.704 402.015 38.4692 402.045C38.2381 402.072 38.0506 402.095 37.9067 402.114C37.5582 402.159 37.2324 402.233 36.9294 402.335C36.6302 402.434 36.3877 402.583 36.2021 402.784C36.0203 402.981 35.9294 403.25 35.9294 403.591C35.9294 404.057 36.1018 404.409 36.4464 404.648C36.7949 404.883 37.2362 405 37.7703 405ZM47.4787 406.182C46.6605 406.182 45.9559 405.989 45.365 405.602C44.7741 405.216 44.3196 404.684 44.0014 404.006C43.6832 403.328 43.5241 402.553 43.5241 401.682C43.5241 400.795 43.687 400.013 44.0128 399.335C44.3423 398.653 44.8006 398.121 45.3878 397.739C45.9787 397.352 46.6681 397.159 47.4559 397.159C48.0696 397.159 48.6226 397.273 49.115 397.5C49.6075 397.727 50.0109 398.045 50.3253 398.455C50.6396 398.864 50.8347 399.341 50.9105 399.886H49.5696C49.4673 399.489 49.24 399.136 48.8878 398.83C48.5393 398.519 48.0696 398.364 47.4787 398.364C46.9559 398.364 46.4976 398.5 46.1037 398.773C45.7135 399.042 45.4086 399.422 45.1889 399.915C44.973 400.403 44.865 400.977 44.865 401.636C44.865 402.311 44.9711 402.898 45.1832 403.398C45.3991 403.898 45.7021 404.286 46.0923 404.562C46.4862 404.839 46.9484 404.977 47.4787 404.977C47.8271 404.977 48.1434 404.917 48.4275 404.795C48.7116 404.674 48.9521 404.5 49.1491 404.273C49.3461 404.045 49.4862 403.773 49.5696 403.455H50.9105C50.8347 403.97 50.6472 404.434 50.348 404.847C50.0525 405.256 49.6605 405.581 49.1718 405.824C48.687 406.062 48.1226 406.182 47.4787 406.182ZM54.0407 402.818L54.018 401.159H54.2907L58.1089 397.273H59.768L55.6998 401.386H55.5862L54.0407 402.818ZM52.7907 406V394.364H54.1316V406H52.7907ZM58.3362 406L54.9271 401.682L55.8816 400.75L60.0407 406H58.3362ZM64.7136 406.182C63.8726 406.182 63.1473 405.996 62.5374 405.625C61.9314 405.25 61.4636 404.727 61.134 404.057C60.8082 403.383 60.6454 402.598 60.6454 401.705C60.6454 400.811 60.8082 400.023 61.134 399.341C61.4636 398.655 61.9219 398.121 62.509 397.739C63.0999 397.352 63.7893 397.159 64.5772 397.159C65.0317 397.159 65.4806 397.235 65.9238 397.386C66.367 397.538 66.7704 397.784 67.134 398.125C67.4976 398.462 67.7874 398.909 68.0033 399.466C68.2192 400.023 68.3272 400.708 68.3272 401.523V402.091H61.5999V400.932H66.9636C66.9636 400.439 66.8651 400 66.6681 399.614C66.4749 399.227 66.1984 398.922 65.8386 398.699C65.4825 398.475 65.062 398.364 64.5772 398.364C64.0431 398.364 63.581 398.496 63.1908 398.761C62.8045 399.023 62.5071 399.364 62.2988 399.784C62.0904 400.205 61.9863 400.655 61.9863 401.136V401.909C61.9863 402.568 62.0999 403.127 62.3272 403.585C62.5582 404.04 62.8783 404.386 63.2874 404.625C63.6965 404.86 64.1719 404.977 64.7136 404.977C65.0658 404.977 65.384 404.928 65.6681 404.83C65.956 404.727 66.2041 404.576 66.4124 404.375C66.6207 404.17 66.7817 403.917 66.8954 403.614L68.1908 403.977C68.0545 404.417 67.8253 404.803 67.5033 405.136C67.1814 405.466 66.7836 405.723 66.3101 405.909C65.8367 406.091 65.3045 406.182 64.7136 406.182ZM71.6279 400.75V406H70.287V397.273H71.5824V398.636H71.696C71.9006 398.193 72.2112 397.837 72.6279 397.568C73.0445 397.295 73.5824 397.159 74.2415 397.159C74.8324 397.159 75.3495 397.28 75.7926 397.523C76.2358 397.761 76.5805 398.125 76.8267 398.614C77.0729 399.098 77.196 399.712 77.196 400.455V406H75.8551V400.545C75.8551 399.86 75.6771 399.326 75.321 398.943C74.965 398.557 74.4764 398.364 73.8551 398.364C73.4271 398.364 73.0445 398.456 72.7074 398.642C72.3741 398.828 72.1108 399.098 71.9176 399.455C71.7245 399.811 71.6279 400.242 71.6279 400.75ZM82.8618 406.182C82.1345 406.182 81.4925 405.998 80.9357 405.631C80.3788 405.259 79.9432 404.737 79.6288 404.062C79.3144 403.384 79.1572 402.583 79.1572 401.659C79.1572 400.742 79.3144 399.947 79.6288 399.273C79.9432 398.598 80.3807 398.078 80.9413 397.71C81.5019 397.343 82.1497 397.159 82.8845 397.159C83.4527 397.159 83.9016 397.254 84.2311 397.443C84.5644 397.629 84.8182 397.841 84.9925 398.08C85.1705 398.314 85.3088 398.508 85.4072 398.659H85.5209V394.364H86.8618V406H85.5663V404.659H85.4072C85.3088 404.818 85.1686 405.019 84.9868 405.261C84.805 405.5 84.5455 405.714 84.2084 405.903C83.8713 406.089 83.4224 406.182 82.8618 406.182ZM83.0436 404.977C83.5815 404.977 84.036 404.837 84.4072 404.557C84.7785 404.273 85.0607 403.881 85.2538 403.381C85.447 402.877 85.5436 402.295 85.5436 401.636C85.5436 400.985 85.4489 400.415 85.2595 399.926C85.0701 399.434 84.7898 399.051 84.4186 398.778C84.0474 398.502 83.5891 398.364 83.0436 398.364C82.4754 398.364 82.0019 398.509 81.6232 398.801C81.2482 399.089 80.966 399.481 80.7766 399.977C80.591 400.47 80.4982 401.023 80.4982 401.636C80.4982 402.258 80.5929 402.822 80.7822 403.33C80.9754 403.833 81.2595 404.235 81.6345 404.534C82.0133 404.83 82.483 404.977 83.0436 404.977ZM95.6057 399.227L94.4011 399.568C94.3254 399.367 94.2136 399.172 94.0659 398.983C93.9219 398.79 93.725 398.631 93.475 398.506C93.225 398.381 92.9049 398.318 92.5147 398.318C91.9807 398.318 91.5356 398.441 91.1795 398.688C90.8272 398.93 90.6511 399.239 90.6511 399.614C90.6511 399.947 90.7723 400.21 91.0147 400.403C91.2572 400.597 91.636 400.758 92.1511 400.886L93.4466 401.205C94.2269 401.394 94.8083 401.684 95.1909 402.074C95.5735 402.46 95.7647 402.958 95.7647 403.568C95.7647 404.068 95.6208 404.515 95.3329 404.909C95.0488 405.303 94.6511 405.614 94.1397 405.841C93.6284 406.068 93.0337 406.182 92.3557 406.182C91.4655 406.182 90.7288 405.989 90.1454 405.602C89.5621 405.216 89.1928 404.652 89.0375 403.909L90.3102 403.591C90.4314 404.061 90.6606 404.413 90.9977 404.648C91.3386 404.883 91.7837 405 92.3329 405C92.9579 405 93.4541 404.867 93.8216 404.602C94.1928 404.333 94.3784 404.011 94.3784 403.636C94.3784 403.333 94.2723 403.08 94.0602 402.875C93.8481 402.667 93.5223 402.511 93.0829 402.409L91.6284 402.068C90.8291 401.879 90.242 401.585 89.867 401.188C89.4958 400.786 89.3102 400.284 89.3102 399.682C89.3102 399.189 89.4485 398.754 89.725 398.375C90.0053 397.996 90.386 397.699 90.867 397.483C91.3519 397.267 91.9011 397.159 92.5147 397.159C93.3784 397.159 94.0564 397.348 94.5488 397.727C95.045 398.106 95.3973 398.606 95.6057 399.227Z" fill="black"/>
</svg>
