<svg width="1639" height="404" viewBox="0 0 1639 404" fill="none" xmlns="http://www.w3.org/2000/svg">
<rect x="25" y="25" width="490" height="354" fill="#72B4F1"/>
<rect x="531.803" y="25" width="490" height="354" fill="#72B4F1"/>
<path d="M237.398 164.406C220.135 186.578 220.425 226.013 242.5 245.524C267.549 267.696 302.776 267.478 324.948 247.072C351.519 222.628 349.996 181.911 326.495 158.87C302.873 135.683 260.658 134.474 237.398 164.406Z" fill="#FCC11A"/>
<path d="M265.107 156.79C258.289 153.768 250.818 161.989 247.554 167.622C244.289 173.256 241.267 184.305 248.206 187.11C255.145 189.914 260.126 185.151 265.107 176.931C270.088 168.71 272.892 160.272 265.107 156.79Z" fill="#FEE269"/>
<path d="M282.878 125.866C281.234 128.961 281.79 131.331 285.054 132.129C288.342 132.902 308.797 136.239 310.514 136.336C313.004 136.481 313.947 134.619 313.633 132.419C313.318 130.243 308.313 99.6088 307.854 96.78C307.395 93.9753 304.421 91.1465 301.592 94.8941C298.811 98.6901 284.111 123.521 282.878 125.866Z" fill="#FFA722"/>
<path d="M335.851 147.119C332.636 148.11 332.732 150.093 334.449 152.583C336.166 155.074 348.037 173.207 349.149 174.465C350.262 175.722 352.123 176.036 353.671 174.15C355.218 172.264 374.754 144.919 376.181 143.202C378.526 140.397 377.124 137.424 373.521 138.367C370.765 139.092 337.882 146.515 335.851 147.119Z" fill="#FFA722"/>
<path d="M213.97 230.268C216.146 226.665 218.975 227.608 221.006 231.042C222.408 233.387 234.135 249.175 235.223 250.892C236.311 252.609 236.794 255.897 233.337 256.671C229.903 257.444 201.929 264.794 197.553 265.568C193.177 266.342 190.686 262.908 193.491 259.161C195.135 256.985 212.713 232.299 213.97 230.268Z" fill="#FFA722"/>
<path d="M208.022 203.067C212.011 204.857 213.897 204.204 214.743 201.351C215.831 197.603 219.12 180.412 219.265 176.496C219.361 173.957 218.322 171.491 214.429 172.119C210.512 172.748 182.393 176.641 178.79 177.898C174.607 179.349 174.922 183.942 177.702 185.393C180.991 187.134 205.217 201.81 208.022 203.067Z" fill="#FFA722"/>
<path d="M256.62 137.448C258.868 135.659 258.191 133.071 256.16 131.669C254.129 130.267 229.032 112.109 225.841 109.643C223.036 107.467 219.579 108.24 220.522 113.245C221.199 116.824 229.202 148.255 229.734 150.431C230.362 152.922 232.224 154.179 234.424 152.607C236.624 151.036 254.274 139.309 256.62 137.448Z" fill="#FFA722"/>
<path d="M385.857 251.279C385.857 251.279 389.363 182.492 333.68 169.073C277.998 155.654 261.774 209.668 261.774 209.668C261.774 209.668 243.205 205.34 225.99 219.654C212.475 230.897 210.565 247.773 210.565 247.773C210.565 247.773 192.794 245.065 177.997 259.427C167.286 269.823 168.325 283.17 168.325 283.17L189.892 302.126L409.068 296.202L420.601 283.823C420.601 283.823 422.438 270.089 409.624 259.765C396.809 249.417 385.857 251.279 385.857 251.279Z" fill="#E2EBEE"/>
<path d="M220.26 277.996C220.26 277.996 228.989 287.86 256.673 287.208C284.357 286.555 291.634 279.301 291.634 279.301C291.634 279.301 303.772 292.043 338.854 289.335C373.937 286.627 384.019 279.229 384.019 279.229C384.019 279.229 392.578 285.346 403.41 285.515C414.218 285.684 420.601 283.798 420.601 283.798C420.601 283.798 419.465 292.406 415.693 297.919C411.921 303.431 405.635 307.638 395.697 307.566C385.736 307.493 355.465 307.759 324.734 307.711C294.004 307.662 206.189 308.17 193.205 307.614C183.316 307.203 176.135 301.376 172.823 296.444C167.528 288.562 168.398 280.244 168.398 280.244C168.398 280.244 178.359 288.054 191.803 287.474C210.178 286.7 220.26 277.996 220.26 277.996Z" fill="#B9CED3"/>
<g clip-path="url(#clip0_0_1)">
<path d="M691.696 164.406C674.433 186.578 674.723 226.013 696.798 245.524C721.846 267.696 757.074 267.478 779.245 247.072C805.817 222.628 804.294 181.911 780.793 158.87C757.171 135.683 714.956 134.474 691.696 164.406Z" fill="#FCC11A"/>
<path d="M719.405 156.79C712.587 153.768 705.115 161.989 701.851 167.622C698.587 173.256 695.565 184.305 702.504 187.11C709.443 189.914 714.424 185.151 719.405 176.931C724.385 168.71 727.19 160.272 719.405 156.79Z" fill="#FEE269"/>
<path d="M737.176 125.866C735.532 128.961 736.088 131.331 739.352 132.129C742.64 132.902 763.095 136.239 764.812 136.336C767.302 136.481 768.245 134.619 767.931 132.419C767.616 130.243 762.611 99.6088 762.152 96.78C761.693 93.9753 758.719 91.1465 755.89 94.8941C753.109 98.6901 738.409 123.521 737.176 125.866Z" fill="#FFA722"/>
<path d="M790.15 147.119C786.934 148.11 787.031 150.093 788.748 152.583C790.464 155.074 802.336 173.207 803.448 174.465C804.56 175.722 806.422 176.036 807.969 174.15C809.517 172.264 829.053 144.919 830.479 143.202C832.825 140.397 831.422 137.424 827.82 138.367C825.063 139.092 792.181 146.515 790.15 147.119Z" fill="#FFA722"/>
<path d="M668.268 230.268C670.444 226.665 673.273 227.608 675.304 231.042C676.706 233.387 688.432 249.175 689.521 250.892C690.609 252.609 691.092 255.897 687.635 256.671C684.201 257.444 656.227 264.794 651.851 265.568C647.475 266.342 644.984 262.908 647.789 259.161C649.433 256.985 667.011 232.299 668.268 230.268Z" fill="#FFA722"/>
<path d="M662.321 203.067C666.31 204.857 668.196 204.204 669.042 201.351C670.13 197.603 673.418 180.412 673.563 176.496C673.66 173.957 672.621 171.491 668.728 172.119C664.811 172.748 636.692 176.641 633.089 177.898C628.906 179.349 629.221 183.942 632.001 185.393C635.289 187.134 659.516 201.81 662.321 203.067Z" fill="#FFA722"/>
<path d="M710.919 137.448C713.167 135.659 712.49 133.071 710.459 131.669C708.428 130.267 683.331 112.109 680.14 109.643C677.335 107.467 673.878 108.24 674.821 113.245C675.498 116.824 683.501 148.255 684.032 150.431C684.661 152.922 686.523 154.179 688.723 152.607C690.923 151.036 708.573 139.309 710.919 137.448Z" fill="#FFA722"/>
<path d="M946.387 251.279C946.387 251.279 949.893 182.492 894.21 169.073C838.528 155.654 822.304 209.668 822.304 209.668C822.304 209.668 803.736 205.34 786.521 219.654C773.005 230.897 771.095 247.773 771.095 247.773C771.095 247.773 753.324 245.065 738.527 259.427C727.816 269.823 728.856 283.17 728.856 283.17L750.423 302.126L969.598 296.202L981.131 283.823C981.131 283.823 982.969 270.089 970.154 259.765C957.34 249.417 946.387 251.279 946.387 251.279Z" fill="#E2EBEE"/>
<path d="M780.792 277.996C780.792 277.996 789.52 287.86 817.204 287.208C844.888 286.555 852.166 279.301 852.166 279.301C852.166 279.301 864.303 292.043 899.386 289.335C934.468 286.627 944.551 279.229 944.551 279.229C944.551 279.229 953.11 285.346 963.942 285.515C974.749 285.684 981.132 283.798 981.132 283.798C981.132 283.798 979.996 292.406 976.224 297.919C972.452 303.431 966.166 307.638 956.229 307.566C946.267 307.493 915.996 307.759 885.266 307.711C854.535 307.662 766.72 308.17 753.736 307.614C743.847 307.203 736.666 301.376 733.354 296.444C728.059 288.562 728.929 280.244 728.929 280.244C728.929 280.244 738.891 288.054 752.334 287.474C770.709 286.7 780.792 277.996 780.792 277.996Z" fill="#B9CED3"/>
</g>
<path d="M1080.84 185.457H1041.46V218.543H1080.84V241.595L1106.15 202L1080.84 162.405V185.457Z" fill="#9D9D9D"/>
<rect x="167" y="169" width="254" height="141" stroke="#E03E1A" stroke-width="4"/>
<rect x="727" y="167" width="254" height="141" stroke="#E03E1A" stroke-width="4"/>
<rect x="1125" y="25" width="490" height="354" fill="#72B4F1"/>
<g clip-path="url(#clip1_0_1)">
<path d="M1284.89 164.406C1267.63 186.578 1267.92 226.013 1290 245.524C1315.04 267.696 1350.27 267.478 1372.44 247.072C1399.01 222.628 1397.49 181.911 1373.99 158.87C1350.37 135.683 1308.15 134.474 1284.89 164.406Z" fill="#FCC11A"/>
<path d="M1312.6 156.79C1305.78 153.768 1298.31 161.989 1295.05 167.622C1291.78 173.256 1288.76 184.305 1295.7 187.11C1302.64 189.914 1307.62 185.151 1312.6 176.931C1317.58 168.71 1320.39 160.272 1312.6 156.79Z" fill="#FEE269"/>
<path d="M1330.37 125.866C1328.73 128.961 1329.29 131.331 1332.55 132.129C1335.84 132.902 1356.29 136.239 1358.01 136.336C1360.5 136.481 1361.44 134.619 1361.13 132.419C1360.81 130.243 1355.81 99.6088 1355.35 96.78C1354.89 93.9753 1351.92 91.1465 1349.09 94.8941C1346.31 98.6901 1331.61 123.521 1330.37 125.866Z" fill="#FFA722"/>
<path d="M1383.35 147.119C1380.13 148.11 1380.23 150.093 1381.95 152.583C1383.66 155.074 1395.53 173.207 1396.65 174.465C1397.76 175.722 1399.62 176.036 1401.17 174.15C1402.71 172.264 1422.25 144.919 1423.68 143.202C1426.02 140.397 1424.62 137.424 1421.02 138.367C1418.26 139.092 1385.38 146.515 1383.35 147.119Z" fill="#FFA722"/>
<path d="M1261.47 230.268C1263.64 226.665 1266.47 227.608 1268.5 231.042C1269.9 233.387 1281.63 249.175 1282.72 250.892C1283.81 252.609 1284.29 255.897 1280.83 256.671C1277.4 257.444 1249.42 264.794 1245.05 265.568C1240.67 266.342 1238.18 262.908 1240.99 259.161C1242.63 256.985 1260.21 232.299 1261.47 230.268Z" fill="#FFA722"/>
<path d="M1255.52 203.067C1259.51 204.857 1261.39 204.204 1262.24 201.351C1263.33 197.603 1266.62 180.412 1266.76 176.496C1266.86 173.957 1265.82 171.491 1261.93 172.119C1258.01 172.748 1229.89 176.641 1226.29 177.898C1222.1 179.349 1222.42 183.942 1225.2 185.393C1228.49 187.134 1252.71 201.81 1255.52 203.067Z" fill="#FFA722"/>
<path d="M1304.12 137.448C1306.36 135.659 1305.69 133.071 1303.66 131.669C1301.63 130.267 1276.53 112.109 1273.34 109.643C1270.53 107.467 1267.07 108.24 1268.02 113.245C1268.69 116.824 1276.7 148.255 1277.23 150.431C1277.86 152.922 1279.72 154.179 1281.92 152.607C1284.12 151.036 1301.77 139.309 1304.12 137.448Z" fill="#FFA722"/>
<path d="M1539.58 251.279C1539.58 251.279 1543.09 182.492 1487.41 169.073C1431.73 155.654 1415.5 209.668 1415.5 209.668C1415.5 209.668 1396.93 205.34 1379.72 219.654C1366.2 230.897 1364.29 247.773 1364.29 247.773C1364.29 247.773 1346.52 245.065 1331.72 259.427C1321.01 269.823 1322.05 283.17 1322.05 283.17L1343.62 302.126L1562.8 296.202L1574.33 283.823C1574.33 283.823 1576.17 270.089 1563.35 259.765C1550.54 249.417 1539.58 251.279 1539.58 251.279Z" fill="#E2EBEE"/>
<path d="M1373.99 277.996C1373.99 277.996 1382.72 287.86 1410.4 287.208C1438.09 286.555 1445.36 279.301 1445.36 279.301C1445.36 279.301 1457.5 292.043 1492.58 289.335C1527.67 286.627 1537.75 279.229 1537.75 279.229C1537.75 279.229 1546.31 285.346 1557.14 285.515C1567.95 285.684 1574.33 283.798 1574.33 283.798C1574.33 283.798 1573.19 292.406 1569.42 297.919C1565.65 303.431 1559.36 307.638 1549.43 307.566C1539.46 307.493 1509.19 307.759 1478.46 307.711C1447.73 307.662 1359.92 308.17 1346.93 307.614C1337.04 307.203 1329.86 301.376 1326.55 296.444C1321.26 288.562 1322.13 280.244 1322.13 280.244C1322.13 280.244 1332.09 288.054 1345.53 287.474C1363.91 286.7 1373.99 277.996 1373.99 277.996Z" fill="#B9CED3"/>
</g>
<path d="M156.762 350V326.727H165.489C167.277 326.727 168.777 327.061 169.989 327.727C171.209 328.394 172.129 329.311 172.75 330.477C173.379 331.636 173.694 332.955 173.694 334.432C173.694 335.924 173.379 337.25 172.75 338.409C172.122 339.568 171.194 340.481 169.966 341.148C168.739 341.807 167.228 342.136 165.432 342.136H159.648V338.67H164.864C165.909 338.67 166.765 338.489 167.432 338.125C168.099 337.761 168.591 337.261 168.909 336.625C169.235 335.989 169.398 335.258 169.398 334.432C169.398 333.606 169.235 332.879 168.909 332.25C168.591 331.621 168.095 331.133 167.421 330.784C166.754 330.428 165.894 330.25 164.841 330.25H160.978V350H156.762ZM176.854 350V332.545H180.842V335.455H181.024C181.342 334.447 181.888 333.67 182.66 333.125C183.441 332.572 184.331 332.295 185.331 332.295C185.558 332.295 185.812 332.307 186.092 332.33C186.38 332.345 186.619 332.371 186.808 332.409V336.193C186.634 336.133 186.357 336.08 185.979 336.034C185.607 335.981 185.248 335.955 184.899 335.955C184.149 335.955 183.475 336.117 182.876 336.443C182.285 336.761 181.82 337.205 181.479 337.773C181.138 338.341 180.967 338.996 180.967 339.739V350H176.854ZM196.23 350.341C194.48 350.341 192.968 349.977 191.696 349.25C190.43 348.515 189.457 347.477 188.775 346.136C188.093 344.788 187.752 343.201 187.752 341.375C187.752 339.58 188.093 338.004 188.775 336.648C189.465 335.284 190.427 334.223 191.661 333.466C192.896 332.701 194.347 332.318 196.014 332.318C197.09 332.318 198.105 332.492 199.059 332.841C200.021 333.182 200.87 333.712 201.605 334.432C202.347 335.152 202.93 336.068 203.355 337.182C203.779 338.288 203.991 339.606 203.991 341.136V342.398H189.684V339.625H200.048C200.04 338.837 199.87 338.136 199.536 337.523C199.203 336.902 198.737 336.413 198.139 336.057C197.548 335.701 196.858 335.523 196.071 335.523C195.23 335.523 194.491 335.727 193.855 336.136C193.218 336.538 192.722 337.068 192.366 337.727C192.018 338.379 191.84 339.095 191.832 339.875V342.295C191.832 343.311 192.018 344.182 192.389 344.909C192.76 345.629 193.279 346.182 193.946 346.568C194.612 346.947 195.393 347.136 196.286 347.136C196.885 347.136 197.427 347.053 197.911 346.886C198.396 346.712 198.817 346.458 199.173 346.125C199.529 345.792 199.798 345.379 199.98 344.886L203.821 345.318C203.578 346.333 203.116 347.22 202.434 347.977C201.76 348.727 200.896 349.311 199.843 349.727C198.79 350.136 197.586 350.341 196.23 350.341ZM222.242 332.545L216.026 350H211.481L205.265 332.545H209.651L213.662 345.511H213.844L217.867 332.545H222.242ZM224.769 350V332.545H228.882V350H224.769ZM226.837 330.068C226.185 330.068 225.625 329.852 225.155 329.42C224.685 328.981 224.45 328.455 224.45 327.841C224.45 327.22 224.685 326.693 225.155 326.261C225.625 325.822 226.185 325.602 226.837 325.602C227.496 325.602 228.057 325.822 228.519 326.261C228.988 326.693 229.223 327.22 229.223 327.841C229.223 328.455 228.988 328.981 228.519 329.42C228.057 329.852 227.496 330.068 226.837 330.068ZM240.406 350.341C238.701 350.341 237.224 349.966 235.974 349.216C234.724 348.466 233.755 347.417 233.065 346.068C232.383 344.72 232.042 343.144 232.042 341.341C232.042 339.538 232.383 337.958 233.065 336.602C233.755 335.246 234.724 334.193 235.974 333.443C237.224 332.693 238.701 332.318 240.406 332.318C242.111 332.318 243.588 332.693 244.838 333.443C246.088 334.193 247.054 335.246 247.736 336.602C248.425 337.958 248.77 339.538 248.77 341.341C248.77 343.144 248.425 344.72 247.736 346.068C247.054 347.417 246.088 348.466 244.838 349.216C243.588 349.966 242.111 350.341 240.406 350.341ZM240.429 347.045C241.353 347.045 242.126 346.792 242.747 346.284C243.368 345.769 243.83 345.08 244.133 344.216C244.444 343.352 244.599 342.39 244.599 341.33C244.599 340.261 244.444 339.295 244.133 338.432C243.83 337.561 243.368 336.867 242.747 336.352C242.126 335.837 241.353 335.58 240.429 335.58C239.482 335.58 238.694 335.837 238.065 336.352C237.444 336.867 236.978 337.561 236.667 338.432C236.364 339.295 236.213 340.261 236.213 341.33C236.213 342.39 236.364 343.352 236.667 344.216C236.978 345.08 237.444 345.769 238.065 346.284C238.694 346.792 239.482 347.045 240.429 347.045ZM263.066 342.659V332.545H267.18V350H263.191V346.898H263.009C262.615 347.875 261.968 348.674 261.066 349.295C260.172 349.917 259.07 350.227 257.759 350.227C256.615 350.227 255.604 349.973 254.725 349.466C253.854 348.951 253.172 348.205 252.68 347.227C252.187 346.242 251.941 345.053 251.941 343.659V332.545H256.055V343.023C256.055 344.129 256.358 345.008 256.964 345.659C257.57 346.311 258.365 346.636 259.35 346.636C259.956 346.636 260.543 346.489 261.112 346.193C261.68 345.898 262.146 345.458 262.509 344.875C262.881 344.284 263.066 343.545 263.066 342.659ZM284.885 337.159L281.135 337.568C281.029 337.189 280.844 336.833 280.579 336.5C280.321 336.167 279.972 335.898 279.533 335.693C279.094 335.489 278.556 335.386 277.919 335.386C277.063 335.386 276.344 335.572 275.76 335.943C275.185 336.314 274.9 336.795 274.908 337.386C274.9 337.894 275.086 338.307 275.465 338.625C275.851 338.943 276.488 339.205 277.374 339.409L280.351 340.045C282.003 340.402 283.23 340.966 284.033 341.739C284.844 342.511 285.253 343.523 285.26 344.773C285.253 345.871 284.931 346.841 284.294 347.682C283.666 348.515 282.791 349.167 281.669 349.636C280.548 350.106 279.26 350.341 277.806 350.341C275.669 350.341 273.95 349.894 272.647 349C271.344 348.098 270.567 346.845 270.317 345.239L274.329 344.852C274.51 345.64 274.897 346.235 275.488 346.636C276.079 347.038 276.847 347.239 277.794 347.239C278.772 347.239 279.556 347.038 280.147 346.636C280.745 346.235 281.044 345.739 281.044 345.148C281.044 344.648 280.851 344.235 280.465 343.909C280.086 343.583 279.495 343.333 278.692 343.159L275.715 342.534C274.041 342.186 272.802 341.598 271.999 340.773C271.196 339.939 270.798 338.886 270.806 337.614C270.798 336.538 271.09 335.606 271.681 334.818C272.279 334.023 273.109 333.409 274.169 332.977C275.238 332.538 276.469 332.318 277.863 332.318C279.908 332.318 281.518 332.754 282.692 333.625C283.874 334.496 284.605 335.674 284.885 337.159ZM303.541 356.909C302.064 356.909 300.795 356.708 299.734 356.307C298.673 355.913 297.821 355.383 297.177 354.716C296.533 354.049 296.086 353.311 295.836 352.5L299.541 351.602C299.707 351.943 299.95 352.28 300.268 352.614C300.586 352.955 301.014 353.235 301.552 353.455C302.098 353.682 302.783 353.795 303.609 353.795C304.776 353.795 305.742 353.511 306.507 352.943C307.272 352.383 307.654 351.458 307.654 350.17V346.864H307.45C307.238 347.288 306.927 347.723 306.518 348.17C306.117 348.617 305.582 348.992 304.916 349.295C304.257 349.598 303.427 349.75 302.427 349.75C301.086 349.75 299.87 349.436 298.779 348.807C297.696 348.17 296.832 347.223 296.189 345.966C295.552 344.701 295.234 343.117 295.234 341.216C295.234 339.299 295.552 337.682 296.189 336.364C296.832 335.038 297.7 334.034 298.791 333.352C299.882 332.663 301.098 332.318 302.439 332.318C303.461 332.318 304.302 332.492 304.961 332.841C305.628 333.182 306.158 333.595 306.552 334.08C306.946 334.557 307.245 335.008 307.45 335.432H307.677V332.545H311.734V350.284C311.734 351.777 311.378 353.011 310.666 353.989C309.954 354.966 308.98 355.697 307.745 356.182C306.51 356.667 305.109 356.909 303.541 356.909ZM303.575 346.523C304.446 346.523 305.189 346.311 305.802 345.886C306.416 345.462 306.882 344.852 307.2 344.057C307.518 343.261 307.677 342.307 307.677 341.193C307.677 340.095 307.518 339.133 307.2 338.307C306.889 337.481 306.427 336.841 305.814 336.386C305.207 335.924 304.461 335.693 303.575 335.693C302.658 335.693 301.893 335.932 301.279 336.409C300.666 336.886 300.204 337.542 299.893 338.375C299.582 339.201 299.427 340.14 299.427 341.193C299.427 342.261 299.582 343.197 299.893 344C300.211 344.795 300.677 345.417 301.291 345.864C301.912 346.303 302.673 346.523 303.575 346.523ZM323.357 350.341C321.607 350.341 320.096 349.977 318.823 349.25C317.558 348.515 316.584 347.477 315.903 346.136C315.221 344.788 314.88 343.201 314.88 341.375C314.88 339.58 315.221 338.004 315.903 336.648C316.592 335.284 317.554 334.223 318.789 333.466C320.024 332.701 321.475 332.318 323.141 332.318C324.217 332.318 325.232 332.492 326.187 332.841C327.149 333.182 327.997 333.712 328.732 334.432C329.475 335.152 330.058 336.068 330.482 337.182C330.906 338.288 331.119 339.606 331.119 341.136V342.398H316.812V339.625H327.175C327.168 338.837 326.997 338.136 326.664 337.523C326.331 336.902 325.865 336.413 325.266 336.057C324.675 335.701 323.986 335.523 323.198 335.523C322.357 335.523 321.619 335.727 320.982 336.136C320.346 336.538 319.85 337.068 319.494 337.727C319.145 338.379 318.967 339.095 318.959 339.875V342.295C318.959 343.311 319.145 344.182 319.516 344.909C319.887 345.629 320.406 346.182 321.073 346.568C321.74 346.947 322.52 347.136 323.414 347.136C324.012 347.136 324.554 347.053 325.039 346.886C325.524 346.712 325.944 346.458 326.3 346.125C326.656 345.792 326.925 345.379 327.107 344.886L330.948 345.318C330.706 346.333 330.244 347.22 329.562 347.977C328.887 348.727 328.024 349.311 326.971 349.727C325.918 350.136 324.713 350.341 323.357 350.341ZM341.892 350.341C340.188 350.341 338.71 349.966 337.46 349.216C336.21 348.466 335.241 347.417 334.551 346.068C333.87 344.72 333.529 343.144 333.529 341.341C333.529 339.538 333.87 337.958 334.551 336.602C335.241 335.246 336.21 334.193 337.46 333.443C338.71 332.693 340.188 332.318 341.892 332.318C343.597 332.318 345.074 332.693 346.324 333.443C347.574 334.193 348.54 335.246 349.222 336.602C349.911 337.958 350.256 339.538 350.256 341.341C350.256 343.144 349.911 344.72 349.222 346.068C348.54 347.417 347.574 348.466 346.324 349.216C345.074 349.966 343.597 350.341 341.892 350.341ZM341.915 347.045C342.839 347.045 343.612 346.792 344.233 346.284C344.854 345.769 345.317 345.08 345.62 344.216C345.93 343.352 346.085 342.39 346.085 341.33C346.085 340.261 345.93 339.295 345.62 338.432C345.317 337.561 344.854 336.867 344.233 336.352C343.612 335.837 342.839 335.58 341.915 335.58C340.968 335.58 340.18 335.837 339.551 336.352C338.93 336.867 338.464 337.561 338.154 338.432C337.851 339.295 337.699 340.261 337.699 341.33C337.699 342.39 337.851 343.352 338.154 344.216C338.464 345.08 338.93 345.769 339.551 346.284C340.18 346.792 340.968 347.045 341.915 347.045ZM353.427 350V332.545H357.359V335.511H357.564C357.927 334.511 358.53 333.731 359.371 333.17C360.211 332.602 361.215 332.318 362.382 332.318C363.564 332.318 364.56 332.606 365.371 333.182C366.189 333.75 366.765 334.527 367.098 335.511H367.28C367.666 334.542 368.318 333.769 369.234 333.193C370.158 332.61 371.253 332.318 372.518 332.318C374.124 332.318 375.435 332.826 376.45 333.841C377.465 334.856 377.973 336.337 377.973 338.284V350H373.848V338.92C373.848 337.837 373.56 337.045 372.984 336.545C372.408 336.038 371.704 335.784 370.871 335.784C369.878 335.784 369.102 336.095 368.541 336.716C367.988 337.33 367.711 338.129 367.711 339.114V350H363.677V338.75C363.677 337.848 363.405 337.129 362.859 336.591C362.321 336.053 361.617 335.784 360.746 335.784C360.155 335.784 359.617 335.936 359.132 336.239C358.647 336.534 358.261 336.955 357.973 337.5C357.685 338.038 357.541 338.667 357.541 339.386V350H353.427ZM389.553 350.341C387.803 350.341 386.292 349.977 385.019 349.25C383.754 348.515 382.781 347.477 382.099 346.136C381.417 344.788 381.076 343.201 381.076 341.375C381.076 339.58 381.417 338.004 382.099 336.648C382.788 335.284 383.75 334.223 384.985 333.466C386.22 332.701 387.671 332.318 389.337 332.318C390.413 332.318 391.428 332.492 392.383 332.841C393.345 333.182 394.194 333.712 394.928 334.432C395.671 335.152 396.254 336.068 396.678 337.182C397.103 338.288 397.315 339.606 397.315 341.136V342.398H383.008V339.625H393.372C393.364 338.837 393.194 338.136 392.86 337.523C392.527 336.902 392.061 336.413 391.462 336.057C390.872 335.701 390.182 335.523 389.394 335.523C388.553 335.523 387.815 335.727 387.178 336.136C386.542 336.538 386.046 337.068 385.69 337.727C385.341 338.379 385.163 339.095 385.156 339.875V342.295C385.156 343.311 385.341 344.182 385.712 344.909C386.084 345.629 386.603 346.182 387.269 346.568C387.936 346.947 388.716 347.136 389.61 347.136C390.209 347.136 390.75 347.053 391.235 346.886C391.72 346.712 392.141 346.458 392.497 346.125C392.853 345.792 393.122 345.379 393.303 344.886L397.144 345.318C396.902 346.333 396.44 347.22 395.758 347.977C395.084 348.727 394.22 349.311 393.167 349.727C392.114 350.136 390.909 350.341 389.553 350.341ZM409.191 332.545V335.727H399.157V332.545H409.191ZM401.634 328.364H405.748V344.75C405.748 345.303 405.831 345.727 405.998 346.023C406.172 346.311 406.399 346.508 406.679 346.614C406.96 346.72 407.27 346.773 407.611 346.773C407.869 346.773 408.104 346.754 408.316 346.716C408.535 346.678 408.702 346.644 408.816 346.614L409.509 349.83C409.289 349.905 408.975 349.989 408.566 350.08C408.164 350.17 407.672 350.223 407.089 350.239C406.058 350.269 405.13 350.114 404.304 349.773C403.479 349.424 402.823 348.886 402.339 348.159C401.861 347.432 401.626 346.523 401.634 345.432V328.364ZM412.311 350V332.545H416.3V335.455H416.482C416.8 334.447 417.345 333.67 418.118 333.125C418.898 332.572 419.788 332.295 420.788 332.295C421.016 332.295 421.269 332.307 421.55 332.33C421.838 332.345 422.076 332.371 422.266 332.409V336.193C422.091 336.133 421.815 336.08 421.436 336.034C421.065 335.981 420.705 335.955 420.357 335.955C419.607 335.955 418.932 336.117 418.334 336.443C417.743 336.761 417.277 337.205 416.936 337.773C416.595 338.341 416.425 338.996 416.425 339.739V350H412.311ZM427.767 356.545C427.206 356.545 426.687 356.5 426.21 356.409C425.74 356.326 425.365 356.227 425.085 356.114L426.039 352.909C426.638 353.083 427.172 353.167 427.642 353.159C428.111 353.152 428.524 353.004 428.88 352.716C429.244 352.436 429.551 351.966 429.801 351.307L430.153 350.364L423.824 332.545H428.187L432.21 345.727H432.392L436.426 332.545H440.801L433.812 352.114C433.486 353.038 433.055 353.83 432.517 354.489C431.979 355.155 431.32 355.663 430.539 356.011C429.767 356.367 428.842 356.545 427.767 356.545Z" fill="white"/>
<path d="M740.413 334.58H736.163C736.042 333.883 735.818 333.265 735.492 332.727C735.167 332.182 734.761 331.72 734.276 331.341C733.792 330.962 733.239 330.678 732.617 330.489C732.004 330.292 731.341 330.193 730.629 330.193C729.364 330.193 728.242 330.511 727.265 331.148C726.288 331.777 725.523 332.701 724.97 333.92C724.417 335.133 724.14 336.614 724.14 338.364C724.14 340.144 724.417 341.644 724.97 342.864C725.53 344.076 726.295 344.992 727.265 345.614C728.242 346.227 729.36 346.534 730.617 346.534C731.314 346.534 731.966 346.443 732.572 346.261C733.186 346.072 733.735 345.795 734.22 345.432C734.712 345.068 735.125 344.621 735.458 344.091C735.799 343.561 736.034 342.955 736.163 342.273L740.413 342.295C740.254 343.402 739.909 344.439 739.379 345.409C738.856 346.379 738.17 347.235 737.322 347.977C736.473 348.712 735.481 349.288 734.345 349.705C733.208 350.114 731.947 350.318 730.561 350.318C728.515 350.318 726.689 349.845 725.083 348.898C723.477 347.951 722.212 346.583 721.288 344.795C720.364 343.008 719.901 340.864 719.901 338.364C719.901 335.856 720.367 333.712 721.299 331.932C722.231 330.144 723.5 328.777 725.106 327.83C726.712 326.883 728.53 326.409 730.561 326.409C731.856 326.409 733.061 326.591 734.174 326.955C735.288 327.318 736.28 327.852 737.151 328.557C738.023 329.254 738.739 330.11 739.299 331.125C739.867 332.133 740.239 333.284 740.413 334.58ZM754.897 342.659V332.545H759.01V350H755.022V346.898H754.84C754.446 347.875 753.798 348.674 752.897 349.295C752.003 349.917 750.901 350.227 749.59 350.227C748.446 350.227 747.435 349.973 746.556 349.466C745.685 348.951 745.003 348.205 744.51 347.227C744.018 346.242 743.772 345.053 743.772 343.659V332.545H747.885V343.023C747.885 344.129 748.188 345.008 748.794 345.659C749.401 346.311 750.196 346.636 751.181 346.636C751.787 346.636 752.374 346.489 752.942 346.193C753.51 345.898 753.976 345.458 754.34 344.875C754.711 344.284 754.897 343.545 754.897 342.659ZM762.921 350V332.545H766.909V335.455H767.091C767.409 334.447 767.955 333.67 768.727 333.125C769.508 332.572 770.398 332.295 771.398 332.295C771.625 332.295 771.879 332.307 772.159 332.33C772.447 332.345 772.686 332.371 772.875 332.409V336.193C772.701 336.133 772.424 336.08 772.046 336.034C771.674 335.981 771.314 335.955 770.966 335.955C770.216 335.955 769.542 336.117 768.943 336.443C768.352 336.761 767.886 337.205 767.546 337.773C767.205 338.341 767.034 338.996 767.034 339.739V350H762.921ZM775.288 350V332.545H779.277V335.455H779.458C779.777 334.447 780.322 333.67 781.095 333.125C781.875 332.572 782.765 332.295 783.765 332.295C783.993 332.295 784.246 332.307 784.527 332.33C784.815 332.345 785.053 332.371 785.243 332.409V336.193C785.068 336.133 784.792 336.08 784.413 336.034C784.042 335.981 783.682 335.955 783.333 335.955C782.583 335.955 781.909 336.117 781.311 336.443C780.72 336.761 780.254 337.205 779.913 337.773C779.572 338.341 779.402 338.996 779.402 339.739V350H775.288ZM794.664 350.341C792.914 350.341 791.403 349.977 790.13 349.25C788.865 348.515 787.891 347.477 787.209 346.136C786.528 344.788 786.187 343.201 786.187 341.375C786.187 339.58 786.528 338.004 787.209 336.648C787.899 335.284 788.861 334.223 790.096 333.466C791.331 332.701 792.781 332.318 794.448 332.318C795.524 332.318 796.539 332.492 797.494 332.841C798.456 333.182 799.304 333.712 800.039 334.432C800.781 335.152 801.365 336.068 801.789 337.182C802.213 338.288 802.425 339.606 802.425 341.136V342.398H788.119V339.625H798.482C798.475 338.837 798.304 338.136 797.971 337.523C797.638 336.902 797.172 336.413 796.573 336.057C795.982 335.701 795.293 335.523 794.505 335.523C793.664 335.523 792.925 335.727 792.289 336.136C791.653 336.538 791.156 337.068 790.8 337.727C790.452 338.379 790.274 339.095 790.266 339.875V342.295C790.266 343.311 790.452 344.182 790.823 344.909C791.194 345.629 791.713 346.182 792.38 346.568C793.047 346.947 793.827 347.136 794.721 347.136C795.319 347.136 795.861 347.053 796.346 346.886C796.831 346.712 797.251 346.458 797.607 346.125C797.963 345.792 798.232 345.379 798.414 344.886L802.255 345.318C802.013 346.333 801.55 347.22 800.869 347.977C800.194 348.727 799.331 349.311 798.278 349.727C797.225 350.136 796.02 350.341 794.664 350.341ZM809.699 339.773V350H805.586V332.545H809.517V335.511H809.722C810.123 334.534 810.764 333.758 811.642 333.182C812.529 332.606 813.623 332.318 814.926 332.318C816.131 332.318 817.18 332.576 818.074 333.091C818.976 333.606 819.673 334.352 820.165 335.33C820.665 336.307 820.911 337.492 820.904 338.886V350H816.79V339.523C816.79 338.356 816.487 337.443 815.881 336.784C815.282 336.125 814.453 335.795 813.392 335.795C812.673 335.795 812.032 335.955 811.472 336.273C810.919 336.583 810.483 337.034 810.165 337.625C809.854 338.216 809.699 338.932 809.699 339.773ZM833.481 332.545V335.727H823.447V332.545H833.481ZM825.925 328.364H830.038V344.75C830.038 345.303 830.122 345.727 830.288 346.023C830.462 346.311 830.69 346.508 830.97 346.614C831.25 346.72 831.561 346.773 831.902 346.773C832.159 346.773 832.394 346.754 832.606 346.716C832.826 346.678 832.993 346.644 833.106 346.614L833.8 349.83C833.58 349.905 833.266 349.989 832.856 350.08C832.455 350.17 831.962 350.223 831.379 350.239C830.349 350.269 829.421 350.114 828.595 349.773C827.769 349.424 827.114 348.886 826.629 348.159C826.152 347.432 825.917 346.523 825.925 345.432V328.364ZM851.81 356.909C850.333 356.909 849.064 356.708 848.003 356.307C846.943 355.913 846.09 355.383 845.447 354.716C844.803 354.049 844.356 353.311 844.106 352.5L847.81 351.602C847.977 351.943 848.219 352.28 848.537 352.614C848.856 352.955 849.284 353.235 849.822 353.455C850.367 353.682 851.053 353.795 851.878 353.795C853.045 353.795 854.011 353.511 854.776 352.943C855.541 352.383 855.924 351.458 855.924 350.17V346.864H855.719C855.507 347.288 855.197 347.723 854.787 348.17C854.386 348.617 853.852 348.992 853.185 349.295C852.526 349.598 851.697 349.75 850.697 349.75C849.356 349.75 848.14 349.436 847.049 348.807C845.965 348.17 845.102 347.223 844.458 345.966C843.822 344.701 843.503 343.117 843.503 341.216C843.503 339.299 843.822 337.682 844.458 336.364C845.102 335.038 845.969 334.034 847.06 333.352C848.151 332.663 849.367 332.318 850.708 332.318C851.731 332.318 852.572 332.492 853.231 332.841C853.897 333.182 854.428 333.595 854.822 334.08C855.215 334.557 855.515 335.008 855.719 335.432H855.947V332.545H860.003V350.284C860.003 351.777 859.647 353.011 858.935 353.989C858.223 354.966 857.25 355.697 856.015 356.182C854.78 356.667 853.378 356.909 851.81 356.909ZM851.844 346.523C852.715 346.523 853.458 346.311 854.072 345.886C854.685 345.462 855.151 344.852 855.469 344.057C855.787 343.261 855.947 342.307 855.947 341.193C855.947 340.095 855.787 339.133 855.469 338.307C855.159 337.481 854.697 336.841 854.083 336.386C853.477 335.924 852.731 335.693 851.844 335.693C850.928 335.693 850.162 335.932 849.549 336.409C848.935 336.886 848.473 337.542 848.162 338.375C847.852 339.201 847.697 340.14 847.697 341.193C847.697 342.261 847.852 343.197 848.162 344C848.481 344.795 848.947 345.417 849.56 345.864C850.181 346.303 850.943 346.523 851.844 346.523ZM871.627 350.341C869.877 350.341 868.365 349.977 867.092 349.25C865.827 348.515 864.854 347.477 864.172 346.136C863.49 344.788 863.149 343.201 863.149 341.375C863.149 339.58 863.49 338.004 864.172 336.648C864.861 335.284 865.823 334.223 867.058 333.466C868.293 332.701 869.744 332.318 871.411 332.318C872.486 332.318 873.502 332.492 874.456 332.841C875.418 333.182 876.267 333.712 877.002 334.432C877.744 335.152 878.327 336.068 878.752 337.182C879.176 338.288 879.388 339.606 879.388 341.136V342.398H865.081V339.625H875.445C875.437 338.837 875.267 338.136 874.933 337.523C874.6 336.902 874.134 336.413 873.536 336.057C872.945 335.701 872.255 335.523 871.467 335.523C870.627 335.523 869.888 335.727 869.252 336.136C868.615 336.538 868.119 337.068 867.763 337.727C867.414 338.379 867.236 339.095 867.229 339.875V342.295C867.229 343.311 867.414 344.182 867.786 344.909C868.157 345.629 868.676 346.182 869.342 346.568C870.009 346.947 870.789 347.136 871.683 347.136C872.282 347.136 872.823 347.053 873.308 346.886C873.793 346.712 874.214 346.458 874.57 346.125C874.926 345.792 875.195 345.379 875.377 344.886L879.217 345.318C878.975 346.333 878.513 347.22 877.831 347.977C877.157 348.727 876.293 349.311 875.24 349.727C874.187 350.136 872.983 350.341 871.627 350.341ZM890.162 350.341C888.457 350.341 886.98 349.966 885.73 349.216C884.48 348.466 883.51 347.417 882.821 346.068C882.139 344.72 881.798 343.144 881.798 341.341C881.798 339.538 882.139 337.958 882.821 336.602C883.51 335.246 884.48 334.193 885.73 333.443C886.98 332.693 888.457 332.318 890.162 332.318C891.866 332.318 893.343 332.693 894.593 333.443C895.843 334.193 896.809 335.246 897.491 336.602C898.181 337.958 898.525 339.538 898.525 341.341C898.525 343.144 898.181 344.72 897.491 346.068C896.809 347.417 895.843 348.466 894.593 349.216C893.343 349.966 891.866 350.341 890.162 350.341ZM890.184 347.045C891.109 347.045 891.881 346.792 892.503 346.284C893.124 345.769 893.586 345.08 893.889 344.216C894.2 343.352 894.355 342.39 894.355 341.33C894.355 340.261 894.2 339.295 893.889 338.432C893.586 337.561 893.124 336.867 892.503 336.352C891.881 335.837 891.109 335.58 890.184 335.58C889.237 335.58 888.45 335.837 887.821 336.352C887.2 336.867 886.734 337.561 886.423 338.432C886.12 339.295 885.968 340.261 885.968 341.33C885.968 342.39 886.12 343.352 886.423 344.216C886.734 345.08 887.2 345.769 887.821 346.284C888.45 346.792 889.237 347.045 890.184 347.045ZM901.697 350V332.545H905.629V335.511H905.833C906.197 334.511 906.799 333.731 907.64 333.17C908.481 332.602 909.485 332.318 910.651 332.318C911.833 332.318 912.829 332.606 913.64 333.182C914.458 333.75 915.034 334.527 915.367 335.511H915.549C915.935 334.542 916.587 333.769 917.504 333.193C918.428 332.61 919.523 332.318 920.788 332.318C922.394 332.318 923.704 332.826 924.719 333.841C925.735 334.856 926.242 336.337 926.242 338.284V350H922.117V338.92C922.117 337.837 921.829 337.045 921.254 336.545C920.678 336.038 919.973 335.784 919.14 335.784C918.148 335.784 917.371 336.095 916.81 336.716C916.257 337.33 915.981 338.129 915.981 339.114V350H911.947V338.75C911.947 337.848 911.674 337.129 911.129 336.591C910.591 336.053 909.886 335.784 909.015 335.784C908.424 335.784 907.886 335.936 907.401 336.239C906.916 336.534 906.53 336.955 906.242 337.5C905.954 338.038 905.81 338.667 905.81 339.386V350H901.697ZM937.823 350.341C936.073 350.341 934.561 349.977 933.289 349.25C932.024 348.515 931.05 347.477 930.368 346.136C929.686 344.788 929.346 343.201 929.346 341.375C929.346 339.58 929.686 338.004 930.368 336.648C931.058 335.284 932.02 334.223 933.255 333.466C934.489 332.701 935.94 332.318 937.607 332.318C938.683 332.318 939.698 332.492 940.652 332.841C941.614 333.182 942.463 333.712 943.198 334.432C943.94 335.152 944.524 336.068 944.948 337.182C945.372 338.288 945.584 339.606 945.584 341.136V342.398H931.277V339.625H941.641C941.633 338.837 941.463 338.136 941.13 337.523C940.796 336.902 940.33 336.413 939.732 336.057C939.141 335.701 938.452 335.523 937.664 335.523C936.823 335.523 936.084 335.727 935.448 336.136C934.811 336.538 934.315 337.068 933.959 337.727C933.611 338.379 933.433 339.095 933.425 339.875V342.295C933.425 343.311 933.611 344.182 933.982 344.909C934.353 345.629 934.872 346.182 935.539 346.568C936.205 346.947 936.986 347.136 937.88 347.136C938.478 347.136 939.02 347.053 939.505 346.886C939.989 346.712 940.41 346.458 940.766 346.125C941.122 345.792 941.391 345.379 941.573 344.886L945.414 345.318C945.171 346.333 944.709 347.22 944.027 347.977C943.353 348.727 942.489 349.311 941.436 349.727C940.383 350.136 939.179 350.341 937.823 350.341ZM957.46 332.545V335.727H947.426V332.545H957.46ZM949.903 328.364H954.017V344.75C954.017 345.303 954.1 345.727 954.267 346.023C954.441 346.311 954.668 346.508 954.949 346.614C955.229 346.72 955.54 346.773 955.881 346.773C956.138 346.773 956.373 346.754 956.585 346.716C956.805 346.678 956.972 346.644 957.085 346.614L957.778 349.83C957.559 349.905 957.244 349.989 956.835 350.08C956.434 350.17 955.941 350.223 955.358 350.239C954.328 350.269 953.4 350.114 952.574 349.773C951.748 349.424 951.093 348.886 950.608 348.159C950.131 347.432 949.896 346.523 949.903 345.432V328.364ZM960.581 350V332.545H964.569V335.455H964.751C965.069 334.447 965.615 333.67 966.387 333.125C967.168 332.572 968.058 332.295 969.058 332.295C969.285 332.295 969.539 332.307 969.819 332.33C970.107 332.345 970.346 332.371 970.535 332.409V336.193C970.361 336.133 970.084 336.08 969.706 336.034C969.334 335.981 968.974 335.955 968.626 335.955C967.876 335.955 967.202 336.117 966.603 336.443C966.012 336.761 965.546 337.205 965.206 337.773C964.865 338.341 964.694 338.996 964.694 339.739V350H960.581ZM976.036 356.545C975.475 356.545 974.957 356.5 974.479 356.409C974.01 356.326 973.635 356.227 973.354 356.114L974.309 352.909C974.907 353.083 975.441 353.167 975.911 353.159C976.381 353.152 976.794 353.004 977.15 352.716C977.513 352.436 977.82 351.966 978.07 351.307L978.422 350.364L972.093 332.545H976.457L980.479 345.727H980.661L984.695 332.545H989.07L982.082 352.114C981.756 353.038 981.324 353.83 980.786 354.489C980.248 355.155 979.589 355.663 978.809 356.011C978.036 356.367 977.112 356.545 976.036 356.545Z" fill="white"/>
<rect x="1125" y="25" width="89" height="354" fill="black"/>
<rect x="1198" y="25" width="417" height="142" fill="black"/>
<rect x="1573" y="153" width="42" height="226" fill="black"/>
<rect x="1210" y="308" width="365" height="71" fill="black"/>
<rect x="1214.2" y="167" width="360" height="141" stroke="#E03E1A" stroke-width="4"/>
<path d="M1347.51 350V326.727H1356.24C1358.03 326.727 1359.53 327.038 1360.74 327.659C1361.96 328.28 1362.88 329.152 1363.5 330.273C1364.13 331.386 1364.44 332.686 1364.44 334.17C1364.44 335.663 1364.13 336.958 1363.49 338.057C1362.86 339.148 1361.93 339.992 1360.71 340.591C1359.48 341.182 1357.97 341.477 1356.18 341.477H1349.97V337.977H1355.61C1356.66 337.977 1357.52 337.833 1358.18 337.545C1358.85 337.25 1359.34 336.822 1359.66 336.261C1359.99 335.693 1360.15 334.996 1360.15 334.17C1360.15 333.345 1359.99 332.64 1359.66 332.057C1359.33 331.466 1358.84 331.019 1358.17 330.716C1357.5 330.405 1356.64 330.25 1355.59 330.25H1351.73V350H1347.51ZM1359.54 339.455L1365.3 350H1360.59L1354.93 339.455H1359.54ZM1375.3 350.341C1373.55 350.341 1372.04 349.977 1370.77 349.25C1369.5 348.515 1368.53 347.477 1367.85 346.136C1367.16 344.788 1366.82 343.201 1366.82 341.375C1366.82 339.58 1367.16 338.004 1367.85 336.648C1368.54 335.284 1369.5 334.223 1370.73 333.466C1371.97 332.701 1373.42 332.318 1375.08 332.318C1376.16 332.318 1377.18 332.492 1378.13 332.841C1379.09 333.182 1379.94 333.712 1380.68 334.432C1381.42 335.152 1382 336.068 1382.43 337.182C1382.85 338.288 1383.06 339.606 1383.06 341.136V342.398H1368.75V339.625H1379.12C1379.11 338.837 1378.94 338.136 1378.61 337.523C1378.27 336.902 1377.81 336.413 1377.21 336.057C1376.62 335.701 1375.93 335.523 1375.14 335.523C1374.3 335.523 1373.56 335.727 1372.93 336.136C1372.29 336.538 1371.79 337.068 1371.44 337.727C1371.09 338.379 1370.91 339.095 1370.9 339.875V342.295C1370.9 343.311 1371.09 344.182 1371.46 344.909C1371.83 345.629 1372.35 346.182 1373.02 346.568C1373.68 346.947 1374.46 347.136 1375.36 347.136C1375.96 347.136 1376.5 347.053 1376.98 346.886C1377.47 346.712 1377.89 346.458 1378.24 346.125C1378.6 345.792 1378.87 345.379 1379.05 344.886L1382.89 345.318C1382.65 346.333 1382.19 347.22 1381.5 347.977C1380.83 348.727 1379.97 349.311 1378.91 349.727C1377.86 350.136 1376.66 350.341 1375.3 350.341ZM1392.7 350.307C1391.33 350.307 1390.1 349.955 1389.02 349.25C1387.93 348.545 1387.08 347.523 1386.45 346.182C1385.82 344.841 1385.51 343.212 1385.51 341.295C1385.51 339.356 1385.82 337.72 1386.46 336.386C1387.1 335.045 1387.97 334.034 1389.06 333.352C1390.15 332.663 1391.37 332.318 1392.71 332.318C1393.73 332.318 1394.57 332.492 1395.23 332.841C1395.89 333.182 1396.41 333.595 1396.8 334.08C1397.19 334.557 1397.49 335.008 1397.7 335.432H1397.87V326.727H1401.99V350H1397.95V347.25H1397.7C1397.49 347.674 1397.18 348.125 1396.78 348.602C1396.38 349.072 1395.85 349.473 1395.19 349.807C1394.53 350.14 1393.7 350.307 1392.7 350.307ZM1393.85 346.932C1394.72 346.932 1395.46 346.697 1396.07 346.227C1396.69 345.75 1397.15 345.087 1397.47 344.239C1397.79 343.39 1397.95 342.402 1397.95 341.273C1397.95 340.144 1397.79 339.163 1397.47 338.33C1397.16 337.496 1396.7 336.848 1396.09 336.386C1395.48 335.924 1394.73 335.693 1393.85 335.693C1392.93 335.693 1392.16 335.932 1391.55 336.409C1390.94 336.886 1390.48 337.545 1390.16 338.386C1389.85 339.227 1389.7 340.189 1389.7 341.273C1389.7 342.364 1389.85 343.337 1390.16 344.193C1390.48 345.042 1390.95 345.712 1391.56 346.205C1392.18 346.689 1392.95 346.932 1393.85 346.932ZM1406.06 350V332.545H1410.05V335.455H1410.23C1410.55 334.447 1411.09 333.67 1411.86 333.125C1412.65 332.572 1413.54 332.295 1414.54 332.295C1414.76 332.295 1415.02 332.307 1415.3 332.33C1415.58 332.345 1415.82 332.371 1416.01 332.409V336.193C1415.84 336.133 1415.56 336.08 1415.18 336.034C1414.81 335.981 1414.45 335.955 1414.1 335.955C1413.35 335.955 1412.68 336.117 1412.08 336.443C1411.49 336.761 1411.02 337.205 1410.68 337.773C1410.34 338.341 1410.17 338.996 1410.17 339.739V350H1406.06ZM1423.14 350.352C1422.03 350.352 1421.03 350.155 1420.15 349.761C1419.27 349.36 1418.57 348.769 1418.06 347.989C1417.55 347.208 1417.29 346.246 1417.29 345.102C1417.29 344.117 1417.48 343.303 1417.84 342.659C1418.2 342.015 1418.7 341.5 1419.33 341.114C1419.96 340.727 1420.67 340.436 1421.45 340.239C1422.25 340.034 1423.07 339.886 1423.92 339.795C1424.94 339.689 1425.77 339.595 1426.41 339.511C1427.04 339.42 1427.51 339.284 1427.79 339.102C1428.09 338.913 1428.24 338.621 1428.24 338.227V338.159C1428.24 337.303 1427.98 336.64 1427.48 336.17C1426.97 335.701 1426.24 335.466 1425.28 335.466C1424.28 335.466 1423.48 335.686 1422.89 336.125C1422.3 336.564 1421.91 337.083 1421.7 337.682L1417.86 337.136C1418.17 336.076 1418.67 335.189 1419.36 334.477C1420.06 333.758 1420.91 333.22 1421.92 332.864C1422.93 332.5 1424.04 332.318 1425.26 332.318C1426.1 332.318 1426.94 332.417 1427.77 332.614C1428.61 332.811 1429.37 333.136 1430.06 333.591C1430.75 334.038 1431.3 334.648 1431.72 335.42C1432.14 336.193 1432.35 337.159 1432.35 338.318V350H1428.4V347.602H1428.26C1428.01 348.087 1427.66 348.542 1427.2 348.966C1426.76 349.383 1426.19 349.72 1425.51 349.977C1424.84 350.227 1424.04 350.352 1423.14 350.352ZM1424.2 347.33C1425.03 347.33 1425.75 347.167 1426.35 346.841C1426.96 346.508 1427.42 346.068 1427.75 345.523C1428.08 344.977 1428.25 344.383 1428.25 343.739V341.682C1428.12 341.788 1427.9 341.886 1427.59 341.977C1427.29 342.068 1426.95 342.148 1426.57 342.216C1426.19 342.284 1425.81 342.345 1425.44 342.398C1425.07 342.451 1424.75 342.496 1424.48 342.534C1423.86 342.617 1423.31 342.754 1422.83 342.943C1422.34 343.133 1421.96 343.398 1421.68 343.739C1421.4 344.072 1421.26 344.504 1421.26 345.034C1421.26 345.792 1421.54 346.364 1422.09 346.75C1422.64 347.136 1423.35 347.33 1424.2 347.33ZM1439.77 350L1434.84 332.545H1439.03L1442.1 344.818H1442.26L1445.4 332.545H1449.54L1452.68 344.75H1452.85L1455.87 332.545H1460.08L1455.13 350H1450.85L1447.58 338.205H1447.34L1444.07 350H1439.77ZM1470.25 350V332.545H1474.24V335.455H1474.42C1474.74 334.447 1475.28 333.67 1476.05 333.125C1476.83 332.572 1477.72 332.295 1478.72 332.295C1478.95 332.295 1479.21 332.307 1479.49 332.33C1479.77 332.345 1480.01 332.371 1480.2 332.409V336.193C1480.03 336.133 1479.75 336.08 1479.37 336.034C1479 335.981 1478.64 335.955 1478.29 335.955C1477.54 335.955 1476.87 336.117 1476.27 336.443C1475.68 336.761 1475.21 337.205 1474.87 337.773C1474.53 338.341 1474.36 338.996 1474.36 339.739V350H1470.25ZM1489.62 350.341C1487.87 350.341 1486.36 349.977 1485.09 349.25C1483.82 348.515 1482.85 347.477 1482.17 346.136C1481.49 344.788 1481.15 343.201 1481.15 341.375C1481.15 339.58 1481.49 338.004 1482.17 336.648C1482.86 335.284 1483.82 334.223 1485.05 333.466C1486.29 332.701 1487.74 332.318 1489.41 332.318C1490.48 332.318 1491.5 332.492 1492.45 332.841C1493.41 333.182 1494.26 333.712 1495 334.432C1495.74 335.152 1496.32 336.068 1496.75 337.182C1497.17 338.288 1497.38 339.606 1497.38 341.136V342.398H1483.08V339.625H1493.44C1493.43 338.837 1493.26 338.136 1492.93 337.523C1492.6 336.902 1492.13 336.413 1491.53 336.057C1490.94 335.701 1490.25 335.523 1489.46 335.523C1488.62 335.523 1487.88 335.727 1487.25 336.136C1486.61 336.538 1486.12 337.068 1485.76 337.727C1485.41 338.379 1485.23 339.095 1485.23 339.875V342.295C1485.23 343.311 1485.41 344.182 1485.78 344.909C1486.15 345.629 1486.67 346.182 1487.34 346.568C1488.01 346.947 1488.79 347.136 1489.68 347.136C1490.28 347.136 1490.82 347.053 1491.3 346.886C1491.79 346.712 1492.21 346.458 1492.57 346.125C1492.92 345.792 1493.19 345.379 1493.37 344.886L1497.21 345.318C1496.97 346.333 1496.51 347.22 1495.83 347.977C1495.15 348.727 1494.29 349.311 1493.24 349.727C1492.18 350.136 1490.98 350.341 1489.62 350.341ZM1508.14 356.909C1506.66 356.909 1505.39 356.708 1504.33 356.307C1503.27 355.913 1502.42 355.383 1501.77 354.716C1501.13 354.049 1500.68 353.311 1500.43 352.5L1504.14 351.602C1504.3 351.943 1504.54 352.28 1504.86 352.614C1505.18 352.955 1505.61 353.235 1506.15 353.455C1506.69 353.682 1507.38 353.795 1508.2 353.795C1509.37 353.795 1510.34 353.511 1511.1 352.943C1511.87 352.383 1512.25 351.458 1512.25 350.17V346.864H1512.04C1511.83 347.288 1511.52 347.723 1511.11 348.17C1510.71 348.617 1510.18 348.992 1509.51 349.295C1508.85 349.598 1508.02 349.75 1507.02 349.75C1505.68 349.75 1504.46 349.436 1503.37 348.807C1502.29 348.17 1501.43 347.223 1500.78 345.966C1500.15 344.701 1499.83 343.117 1499.83 341.216C1499.83 339.299 1500.15 337.682 1500.78 336.364C1501.43 335.038 1502.29 334.034 1503.39 333.352C1504.48 332.663 1505.69 332.318 1507.03 332.318C1508.06 332.318 1508.9 332.492 1509.56 332.841C1510.22 333.182 1510.75 333.595 1511.15 334.08C1511.54 334.557 1511.84 335.008 1512.04 335.432H1512.27V332.545H1516.33V350.284C1516.33 351.777 1515.97 353.011 1515.26 353.989C1514.55 354.966 1513.57 355.697 1512.34 356.182C1511.1 356.667 1509.7 356.909 1508.14 356.909ZM1508.17 346.523C1509.04 346.523 1509.78 346.311 1510.4 345.886C1511.01 345.462 1511.48 344.852 1511.79 344.057C1512.11 343.261 1512.27 342.307 1512.27 341.193C1512.27 340.095 1512.11 339.133 1511.79 338.307C1511.48 337.481 1511.02 336.841 1510.41 336.386C1509.8 335.924 1509.06 335.693 1508.17 335.693C1507.25 335.693 1506.49 335.932 1505.87 336.409C1505.26 336.886 1504.8 337.542 1504.49 338.375C1504.18 339.201 1504.02 340.14 1504.02 341.193C1504.02 342.261 1504.18 343.197 1504.49 344C1504.81 344.795 1505.27 345.417 1505.89 345.864C1506.51 346.303 1507.27 346.523 1508.17 346.523ZM1520.22 350V332.545H1524.34V350H1520.22ZM1522.29 330.068C1521.64 330.068 1521.08 329.852 1520.61 329.42C1520.14 328.981 1519.91 328.455 1519.91 327.841C1519.91 327.22 1520.14 326.693 1520.61 326.261C1521.08 325.822 1521.64 325.602 1522.29 325.602C1522.95 325.602 1523.51 325.822 1523.97 326.261C1524.44 326.693 1524.68 327.22 1524.68 327.841C1524.68 328.455 1524.44 328.981 1523.97 329.42C1523.51 329.852 1522.95 330.068 1522.29 330.068ZM1535.86 350.341C1534.16 350.341 1532.68 349.966 1531.43 349.216C1530.18 348.466 1529.21 347.417 1528.52 346.068C1527.84 344.72 1527.5 343.144 1527.5 341.341C1527.5 339.538 1527.84 337.958 1528.52 336.602C1529.21 335.246 1530.18 334.193 1531.43 333.443C1532.68 332.693 1534.16 332.318 1535.86 332.318C1537.57 332.318 1539.04 332.693 1540.29 333.443C1541.54 334.193 1542.51 335.246 1543.19 336.602C1543.88 337.958 1544.23 339.538 1544.23 341.341C1544.23 343.144 1543.88 344.72 1543.19 346.068C1542.51 347.417 1541.54 348.466 1540.29 349.216C1539.04 349.966 1537.57 350.341 1535.86 350.341ZM1535.88 347.045C1536.81 347.045 1537.58 346.792 1538.2 346.284C1538.82 345.769 1539.29 345.08 1539.59 344.216C1539.9 343.352 1540.05 342.39 1540.05 341.33C1540.05 340.261 1539.9 339.295 1539.59 338.432C1539.29 337.561 1538.82 336.867 1538.2 336.352C1537.58 335.837 1536.81 335.58 1535.88 335.58C1534.94 335.58 1534.15 335.837 1533.52 336.352C1532.9 336.867 1532.43 337.561 1532.12 338.432C1531.82 339.295 1531.67 340.261 1531.67 341.33C1531.67 342.39 1531.82 343.352 1532.12 344.216C1532.43 345.08 1532.9 345.769 1533.52 346.284C1534.15 346.792 1534.94 347.045 1535.88 347.045ZM1551.51 339.773V350H1547.4V332.545H1551.33V335.511H1551.53C1551.93 334.534 1552.57 333.758 1553.45 333.182C1554.34 332.606 1555.43 332.318 1556.74 332.318C1557.94 332.318 1558.99 332.576 1559.89 333.091C1560.79 333.606 1561.48 334.352 1561.98 335.33C1562.48 336.307 1562.72 337.492 1562.71 338.886V350H1558.6V339.523C1558.6 338.356 1558.3 337.443 1557.69 336.784C1557.09 336.125 1556.26 335.795 1555.2 335.795C1554.48 335.795 1553.84 335.955 1553.28 336.273C1552.73 336.583 1552.29 337.034 1551.98 337.625C1551.67 338.216 1551.51 338.932 1551.51 339.773Z" fill="white"/>
<defs>
<clipPath id="clip0_0_1">
<rect width="386.851" height="309.481" fill="white" transform="translate(593.605 55)"/>
</clipPath>
<clipPath id="clip1_0_1">
<rect width="386.851" height="309.481" fill="white" transform="translate(1186.8 55)"/>
</clipPath>
</defs>
</svg>
