<svg width="1039" height="496" viewBox="0 0 1039 496" fill="none" xmlns="http://www.w3.org/2000/svg">
<rect width="1039" height="496" fill="#5BF8CF"/>
<g clip-path="url(#clip0_0_1)">
<path d="M52 14H988V482H52V14Z" fill="white"/>
<path opacity="0.03" d="M258.962 445.303H180.152L258.962 324.128V445.303Z" fill="black"/>
<path opacity="0.03" d="M608.49 446.667L704.112 229.319L892.659 373.637L608.49 446.667Z" fill="black"/>
<path d="M784.522 433.455H591.91L757.717 222.465L923.496 433.455H859.439" stroke="#0FCCCE" stroke-width="3.97101" stroke-miterlimit="10" stroke-linecap="round" stroke-linejoin="round"/>
<path d="M902.766 71.9614H606.865V222.465H902.766V71.9614Z" stroke="#0FCCCE" stroke-width="3.97101" stroke-miterlimit="10"/>
<path d="M325.748 236.114H405.37V214.335H350.662V112.412H325.748V236.114Z" fill="black"/>
<path d="M462.604 237.681C489.086 237.681 507.729 219.562 507.729 193.602C507.729 167.467 489.086 149.696 462.604 149.696C435.424 149.696 417.305 168.164 417.305 193.602C417.305 219.039 435.424 237.681 462.604 237.681ZM462.604 217.122C449.537 217.122 440.477 206.843 440.477 193.602C440.477 180.186 449.363 170.081 462.604 170.081C475.148 170.081 484.556 179.663 484.556 193.602C484.556 207.54 474.8 217.122 462.604 217.122Z" fill="black"/>
<path d="M551.926 237.681C563.425 237.681 569 235.242 574.402 232.28L568.652 213.987C564.819 215.903 560.638 216.948 557.85 216.948C552.449 216.948 550.532 213.464 550.532 205.972V169.907H573.53V150.916H550.532V120.774L527.709 123.214V150.916H517.604V169.907H527.709V209.283C527.709 228.447 537.291 237.681 551.926 237.681Z" fill="black"/>
<path d="M617.261 237.681C628.76 237.681 634.335 235.242 639.736 232.28L633.987 213.987C630.154 215.903 625.972 216.948 623.184 216.948C617.783 216.948 615.867 213.464 615.867 205.972V169.907H638.865V150.916H615.867V120.774L593.043 123.214V150.916H582.938V169.907H593.043V209.283C593.043 228.447 602.626 237.681 617.261 237.681Z" fill="black"/>
<path d="M667.468 139.417C675.657 139.417 681.929 133.145 681.929 125.304C681.929 117.639 675.657 111.366 667.468 111.366C659.106 111.366 653.008 117.639 653.008 125.304C653.008 133.145 659.106 139.417 667.468 139.417ZM655.795 236.114H678.619V150.916H655.795V236.114Z" fill="black"/>
<path d="M778.771 192.731C778.771 167.816 762.045 149.696 738.002 149.696C712.739 149.696 694.793 167.467 694.793 193.428C694.793 220.084 713.261 237.681 739.396 237.681C758.386 237.681 769.363 230.712 776.506 221.478L761.696 207.714C757.166 213.289 750.546 217.296 740.963 217.296C729.464 217.296 721.276 211.198 718.488 200.919H778.248C778.422 199.525 778.771 195.518 778.771 192.731ZM737.828 169.558C747.758 169.558 753.856 175.482 756.121 184.541H718.662C721.276 174.785 728.594 169.558 737.828 169.558Z" fill="black"/>
<path d="M280.739 236.114C292.767 236.114 302.518 226.362 302.518 214.335C302.518 202.307 292.767 192.556 280.739 192.556C268.711 192.556 258.961 202.307 258.961 214.335C258.961 226.362 268.711 236.114 280.739 236.114Z" fill="#18C8CA"/>
<path d="M835.045 327.089C835.045 327.089 841.378 326.625 841.67 336.178C841.985 347.155 842.394 347.125 842.394 347.125C842.394 347.125 850.438 344.948 850.438 349.303C850.438 353.659 844.602 355.14 839.491 353.688" stroke="black" stroke-width="1.9855" stroke-miterlimit="10" stroke-linecap="round" stroke-linejoin="round"/>
<path d="M841.055 354.036C841.055 354.036 833.998 362.08 835.454 371.575" stroke="black" stroke-width="0.999105" stroke-miterlimit="10" stroke-linecap="round" stroke-linejoin="round"/>
<path d="M820.529 374.886C825.202 368.585 824.361 358.624 824.361 358.624" stroke="black" stroke-width="1.9855" stroke-miterlimit="10" stroke-linecap="round" stroke-linejoin="round"/>
<path d="M842.217 345.993L840.74 331.678L836.002 335.394L830.342 329.674C830.342 329.674 838.151 314.98 857.347 330.545C863.906 335.887 866.67 339.982 863.387 366.145C863.387 366.145 862.692 375.786 861.266 378.167L857.142 377.296L857.581 365.187L853.486 376.512L835.395 373.347C835.395 373.347 835.014 363.823 839.95 355.053C840.506 354.066 849.537 355.895 850.407 349.304C850.839 346.051 842.217 345.993 842.217 345.993Z" fill="black" stroke="black" stroke-width="1.97399" stroke-miterlimit="10" stroke-linecap="round" stroke-linejoin="round"/>
<path d="M827.784 359.525C827.784 359.525 817.736 355.866 817.012 350.755C816.778 349.216 817.882 342.77 818.753 341.608C819.63 340.476 818.438 335.51 818.438 335.51C830.05 335.22 835.016 327.061 835.016 327.061" stroke="black" stroke-width="1.9855" stroke-miterlimit="10" stroke-linecap="round" stroke-linejoin="round"/>
<path d="M830.342 338.791C831 338.791 831.534 338.259 831.534 337.601C831.534 336.943 831 336.41 830.342 336.41C829.684 336.41 829.15 336.943 829.15 337.601C829.15 338.259 829.684 338.791 830.342 338.791Z" fill="black"/>
<path d="M826.716 429.245L826.16 437.811" stroke="black" stroke-width="1.9855" stroke-miterlimit="10" stroke-linecap="round" stroke-linejoin="round"/>
<path d="M835.453 371.575C835.453 371.575 842.247 373.346 850.437 378.138C856.389 381.623 861.815 409.18 861.588 418.356C861.179 433.339 856.243 441.412 846.488 441.296C835.044 441.15 801.362 431.132 790.152 432.991C779.234 434.82 788.236 426.573 795.147 426.747C806.847 427.038 837.574 430.348 844.163 428.083C851.073 425.703 845.647 408.86 842.737 402.849" stroke="black" stroke-width="1.9855" stroke-miterlimit="10" stroke-linecap="round" stroke-linejoin="round"/>
<path d="M820.529 374.886C820.529 374.886 818.614 381.245 821.575 383.859C826.394 388.069 834.781 372.795 834.781 372.795" stroke="black" stroke-width="1.9855" stroke-miterlimit="10" stroke-linecap="round" stroke-linejoin="round"/>
<path d="M845.062 408.773C845.062 408.773 841.143 415.336 841.72 428.083" stroke="black" stroke-width="1.9855" stroke-miterlimit="10" stroke-linecap="round" stroke-linejoin="round"/>
<path d="M804.003 387.401C803.367 391.815 803.045 396.083 803.162 402.443" stroke="black" stroke-width="1.9855" stroke-miterlimit="10" stroke-linecap="round" stroke-linejoin="round"/>
<path d="M822.474 370.908C822.474 370.908 813.787 370.414 806.818 373.347" stroke="black" stroke-width="1.9855" stroke-miterlimit="10" stroke-linecap="round" stroke-linejoin="round"/>
<path d="M788.499 363.358C789.048 370.53 803.739 399.365 803.132 402.414C802.174 407.467 794.657 410.254 791.717 405.085C789.713 401.572 783.702 367.017 782.051 364.81C779.205 361.034 770.784 356.708 774.936 355.517C777.521 354.792 788.236 359.67 788.499 363.358Z" stroke="black" stroke-width="1.9855" stroke-miterlimit="10" stroke-linecap="round" stroke-linejoin="round"/>
<path d="M799.623 392.628C799.623 392.628 797.905 394.167 795.236 395.329C793.839 395.909 792.069 396.635 789.342 396.896" stroke="black" stroke-width="1.9855" stroke-miterlimit="10" stroke-linecap="round" stroke-linejoin="round"/>
<path d="M802.957 401.281C802.957 401.281 802.957 405.985 803.396 410.341C804.003 416.787 802.898 426.777 802.898 426.777" stroke="black" stroke-width="1.9855" stroke-miterlimit="10" stroke-linecap="round" stroke-linejoin="round"/>
<path d="M495.202 415.704L215.098 192.574L188.049 226.531L468.152 449.661L495.202 415.704Z" stroke="#0FCCCE" stroke-width="3.97101" stroke-miterlimit="10"/>
<path d="M280.739 449.397H187.498L280.739 306.008V449.397Z" stroke="#0FCCCE" stroke-width="3.97101" stroke-miterlimit="10"/>
<path d="M325.749 404.621H280.74V449.63H325.749V404.621Z" fill="black"/>
<path d="M296.508 415.393V438.885L309.981 427.125L296.508 415.393Z" stroke="white" stroke-width="1.9855" stroke-miterlimit="10"/>
<path opacity="0.03" d="M823.659 63.6566H586.016V187.097H823.659V63.6566Z" fill="black"/>
<path opacity="0.03" d="M486.472 419.86L283.669 217.058L252.973 247.754L455.775 450.556L486.472 419.86Z" fill="black"/>
<path d="M187.324 381.274C187.324 381.274 189.008 375.322 200.653 375.931C207.012 376.25 219.179 372.853 222.402 373.202C225.248 373.521 226.758 373.056 226.554 372.128C226.467 371.721 224.841 371.546 222.46 371.459C215.926 371.227 203.557 371.749 200.304 370.849C194.874 369.369 198.417 369.02 192.609 368.294" stroke="black" stroke-width="1.1913" stroke-miterlimit="10" stroke-linecap="round" stroke-linejoin="round"/>
<path d="M206.344 371.198L207.621 375.409" stroke="black" stroke-width="1.1913" stroke-miterlimit="10" stroke-linecap="round" stroke-linejoin="round"/>
<path d="M188.689 358.45C188.689 358.45 186.395 346.138 195.774 347.242C200.362 347.764 201.291 350.349 201.291 350.349C201.291 350.349 205.415 350.378 207.505 354.095C208.986 356.708 209.829 359.176 207.157 361.122C207.157 361.122 207.535 361.383 204.544 363.3C201.552 365.216 197.894 367.83 197.894 367.83" stroke="black" stroke-width="1.1913" stroke-miterlimit="10" stroke-linecap="round" stroke-linejoin="round"/>
<path d="M203.093 350.668C203.093 350.668 209.743 352.73 208.61 359.409C208.61 359.409 208.058 360.57 207.158 361.151C207.158 361.151 207.913 361.703 204.806 363.59C202.744 364.838 198.185 367.568 198.185 367.568L204.981 363.01C204.981 363.01 202.454 361.674 201.467 360.483C201.031 359.96 200.364 359.699 199.724 359.931C197.314 360.803 192.581 362.313 192.146 360.744C192.146 360.744 194.527 357.23 191.855 357.202C191.1 357.202 190.026 360.019 189.155 359.815C187.673 359.467 187.442 350.959 191.536 347.997C195.601 345.035 200.741 348.694 201.351 350.406L203.093 350.668Z" fill="black"/>
<path d="M204.95 362.98C203.207 364.432 202.278 365.1 201.523 366.058C200.536 367.307 200.768 368.614 200.768 368.614C200.768 368.614 199.433 366.988 199.229 367.104C194.032 370.182 191.709 368.817 190.953 363.271" fill="white"/>
<path d="M204.95 362.98C203.207 364.432 202.278 365.1 201.523 366.058C200.536 367.307 200.768 368.614 200.768 368.614C200.768 368.614 199.433 366.988 199.229 367.104C194.032 370.182 191.709 368.817 190.953 363.271" stroke="black" stroke-width="1.1913" stroke-miterlimit="10" stroke-linecap="round" stroke-linejoin="round"/>
<path d="M200.798 364.084C201.07 364.084 201.292 363.863 201.292 363.59C201.292 363.317 201.07 363.097 200.798 363.097C200.526 363.097 200.305 363.317 200.305 363.59C200.305 363.863 200.526 364.084 200.798 364.084Z" fill="black"/>
<path d="M193.363 354.675C193.363 354.675 197.371 355.953 198.271 354.705C198.271 354.705 198.358 356.795 200.478 358.189C202.598 359.583 203.381 358.248 203.381 358.248C203.381 358.248 203.207 361.964 205.734 363.242" stroke="black" stroke-width="1.1913" stroke-miterlimit="10" stroke-linecap="round" stroke-linejoin="round"/>
<path d="M201.291 350.378C201.291 350.378 203.004 348.781 201.988 347.3" stroke="black" stroke-width="1.1913" stroke-miterlimit="10" stroke-linecap="round" stroke-linejoin="round"/>
<path d="M176.405 399.51C176.405 399.51 186.626 404.476 186.801 408.977C186.975 413.448 176.812 432.061 176.812 432.061L165.749 430.929L175.767 411.561L160.551 405.753" stroke="black" stroke-width="1.1913" stroke-miterlimit="10" stroke-linecap="round" stroke-linejoin="round"/>
<path d="M151.811 392.077C151.811 392.077 142.344 409.819 140.951 410.69C139.586 411.561 128.812 422.131 128.812 422.131L132.123 430.407L150.243 416.091L167.404 398.116" stroke="black" stroke-width="1.1913" stroke-miterlimit="10" stroke-linecap="round" stroke-linejoin="round"/>
<path d="M129.452 423.757L117.082 433.31L120.567 440.076L125.271 444.403C126.839 442.08 122.628 435.139 122.628 435.139L131.05 428.025" stroke="black" stroke-width="1.1913" stroke-miterlimit="10" stroke-linecap="round" stroke-linejoin="round"/>
<path d="M167.142 431.074L163.367 444.693L178.147 445.245C178.757 442.951 169.755 440.889 169.755 440.889L172.427 431.597" stroke="black" stroke-width="1.1913" stroke-miterlimit="10" stroke-linecap="round" stroke-linejoin="round"/>
<path d="M186.51 372.766C186.51 372.766 185.494 372.011 190.198 374.886C195.628 378.225 220.282 379.648 221.123 380.723C221.85 381.651 220.398 382.755 217.232 382.116C214.068 381.448 194.758 383.597 188.688 381.71C176.289 377.819 173.85 373.289 173.85 373.289" fill="white"/>
<path d="M186.51 372.766C186.51 372.766 185.494 372.011 190.198 374.886C195.628 378.225 220.282 379.648 221.123 380.723C221.85 381.651 220.398 382.755 217.232 382.116C214.068 381.448 194.758 383.597 188.688 381.71C176.289 377.819 173.85 373.289 173.85 373.289" stroke="black" stroke-width="1.1913" stroke-miterlimit="10" stroke-linecap="round" stroke-linejoin="round"/>
<path d="M194.061 382.581L195.628 376.454" stroke="black" stroke-width="1.1913" stroke-miterlimit="10" stroke-linecap="round" stroke-linejoin="round"/>
<path d="M187.324 381.274C180.732 385.543 178.38 394.138 176.203 395.851C175.157 396.665 176.841 400.759 176.841 400.759C176.841 400.759 163.542 397.768 151.781 392.076C151.781 392.076 158.925 373.259 172.631 366.494C175.477 365.1 178.525 365.361 181.923 365.129C186.453 364.838 189.212 358.915 189.212 358.915" stroke="black" stroke-width="1.1913" stroke-miterlimit="10" stroke-linecap="round" stroke-linejoin="round"/>
<path d="M181.951 365.158C181.951 365.158 186.801 371.982 189.037 371.401C191.825 370.675 192.608 368.265 192.608 368.265" stroke="black" stroke-width="1.1913" stroke-miterlimit="10" stroke-linecap="round" stroke-linejoin="round"/>
<path d="M821.02 344.106C821.02 344.106 822.182 346.719 824.91 345.209" stroke="black" stroke-width="1.9855" stroke-miterlimit="10" stroke-linecap="round" stroke-linejoin="round"/>
<path d="M797.209 386.646C797.209 386.646 799.593 372.795 812.799 371.721" stroke="black" stroke-width="1.9855" stroke-miterlimit="10" stroke-linecap="round" stroke-linejoin="round"/>
<path d="M821.854 48.3541L824.764 106.999L915.132 109.909V45.4437L821.854 48.3541ZM857.619 91.6902C858.672 92.9121 858.526 94.7461 857.297 95.7939C856.749 96.2598 856.076 96.4923 855.411 96.4923C854.592 96.4923 853.78 96.1427 853.195 95.4737L838.643 78.4186C837.714 77.3418 837.714 75.741 838.643 74.6351L853.195 57.5801C854.248 56.3578 856.076 56.2123 857.297 57.26C858.526 58.3077 858.672 60.1413 857.619 61.3636L844.668 76.556L857.619 91.6902ZM898.306 78.3895L883.754 95.4444C883.176 96.1142 882.357 96.463 881.545 96.463C880.873 96.463 880.207 96.2305 879.651 95.7647C878.43 94.7168 878.284 92.8836 879.33 91.6609L892.287 76.4687L879.33 61.2763C878.284 60.054 878.43 58.2204 879.651 57.1727C880.873 56.1249 882.708 56.2705 883.754 57.4928L898.306 74.5478C899.242 75.6828 899.242 77.3127 898.306 78.3895Z" fill="black" stroke="black" stroke-width="3.98004" stroke-miterlimit="10" stroke-linecap="round" stroke-linejoin="round"/>
</g>
<defs>
<clipPath id="clip0_0_1">
<rect width="936" height="468" fill="white" transform="translate(52 14)"/>
</clipPath>
</defs>
</svg>
