<svg width="1639" height="404" viewBox="0 0 1639 404" fill="none" xmlns="http://www.w3.org/2000/svg">
<rect x="25" y="25" width="490" height="354" fill="#72B4F1"/>
<rect x="531.803" y="25" width="490" height="354" fill="#72B4F1"/>
<path d="M237.398 164.406C220.135 186.578 220.425 226.013 242.5 245.524C267.549 267.696 302.776 267.478 324.948 247.072C351.519 222.628 349.996 181.911 326.495 158.87C302.873 135.683 260.658 134.474 237.398 164.406Z" fill="#FCC11A"/>
<path d="M265.107 156.79C258.289 153.768 250.818 161.989 247.554 167.622C244.289 173.256 241.267 184.305 248.206 187.11C255.145 189.914 260.126 185.151 265.107 176.931C270.088 168.71 272.892 160.272 265.107 156.79Z" fill="#FEE269"/>
<path d="M282.878 125.866C281.234 128.961 281.79 131.331 285.054 132.129C288.342 132.902 308.797 136.239 310.514 136.336C313.004 136.481 313.947 134.619 313.633 132.419C313.318 130.243 308.313 99.6088 307.854 96.78C307.395 93.9753 304.421 91.1465 301.592 94.8941C298.811 98.6901 284.111 123.521 282.878 125.866Z" fill="#FFA722"/>
<path d="M335.851 147.119C332.636 148.11 332.732 150.093 334.449 152.583C336.166 155.074 348.037 173.207 349.149 174.465C350.262 175.722 352.123 176.036 353.671 174.15C355.218 172.264 374.754 144.919 376.181 143.202C378.526 140.397 377.124 137.424 373.521 138.367C370.765 139.092 337.882 146.515 335.851 147.119Z" fill="#FFA722"/>
<path d="M213.97 230.268C216.146 226.665 218.975 227.608 221.006 231.042C222.408 233.387 234.135 249.175 235.223 250.892C236.311 252.609 236.794 255.897 233.337 256.671C229.903 257.444 201.929 264.794 197.553 265.568C193.177 266.342 190.686 262.908 193.491 259.161C195.135 256.985 212.713 232.299 213.97 230.268Z" fill="#FFA722"/>
<path d="M208.022 203.067C212.011 204.857 213.897 204.204 214.743 201.351C215.831 197.603 219.12 180.412 219.265 176.496C219.361 173.957 218.322 171.491 214.429 172.119C210.512 172.748 182.393 176.641 178.79 177.898C174.607 179.349 174.922 183.942 177.702 185.393C180.991 187.134 205.217 201.81 208.022 203.067Z" fill="#FFA722"/>
<path d="M256.62 137.448C258.868 135.659 258.191 133.071 256.16 131.669C254.129 130.267 229.032 112.109 225.841 109.643C223.036 107.467 219.579 108.24 220.522 113.245C221.199 116.824 229.202 148.255 229.734 150.431C230.362 152.922 232.224 154.179 234.424 152.607C236.624 151.036 254.274 139.309 256.62 137.448Z" fill="#FFA722"/>
<path d="M429.857 251.279C429.857 251.279 433.363 182.492 377.68 169.073C321.998 155.654 305.774 209.668 305.774 209.668C305.774 209.668 287.205 205.34 269.99 219.654C256.475 230.897 254.565 247.773 254.565 247.773C254.565 247.773 236.794 245.065 221.997 259.427C211.286 269.823 212.325 283.17 212.325 283.17L233.892 302.126L453.068 296.202L464.601 283.823C464.601 283.823 466.438 270.089 453.624 259.765C440.809 249.417 429.857 251.279 429.857 251.279Z" fill="#E2EBEE"/>
<path d="M264.26 277.996C264.26 277.996 272.989 287.86 300.673 287.208C328.357 286.555 335.634 279.301 335.634 279.301C335.634 279.301 347.772 292.043 382.854 289.335C417.937 286.627 428.019 279.229 428.019 279.229C428.019 279.229 436.578 285.346 447.41 285.515C458.218 285.684 464.601 283.798 464.601 283.798C464.601 283.798 463.465 292.406 459.693 297.919C455.921 303.431 449.635 307.638 439.697 307.566C429.736 307.493 399.465 307.759 368.734 307.711C338.004 307.662 250.189 308.17 237.205 307.614C227.316 307.203 220.135 301.376 216.823 296.444C211.528 288.562 212.398 280.244 212.398 280.244C212.398 280.244 222.359 288.054 235.803 287.474C254.178 286.7 264.26 277.996 264.26 277.996Z" fill="#B9CED3"/>
<path d="M691.696 164.406C674.433 186.578 674.723 226.013 696.798 245.524C721.846 267.696 757.074 267.478 779.245 247.072C805.817 222.628 804.294 181.911 780.793 158.87C757.171 135.683 714.956 134.474 691.696 164.406Z" fill="#FCC11A"/>
<path d="M719.405 156.79C712.587 153.768 705.115 161.989 701.851 167.622C698.587 173.256 695.565 184.305 702.504 187.11C709.443 189.914 714.424 185.151 719.405 176.931C724.385 168.71 727.19 160.272 719.405 156.79Z" fill="#FEE269"/>
<path d="M737.176 125.866C735.532 128.961 736.088 131.331 739.352 132.129C742.64 132.902 763.095 136.239 764.812 136.336C767.302 136.481 768.245 134.619 767.931 132.419C767.616 130.243 762.611 99.6088 762.152 96.78C761.693 93.9753 758.719 91.1465 755.89 94.8941C753.109 98.6901 738.409 123.521 737.176 125.866Z" fill="#FFA722"/>
<path d="M790.15 147.119C786.934 148.11 787.031 150.093 788.748 152.583C790.464 155.074 802.336 173.207 803.448 174.465C804.56 175.722 806.422 176.036 807.969 174.15C809.517 172.264 829.053 144.919 830.479 143.202C832.825 140.397 831.422 137.424 827.82 138.367C825.063 139.092 792.181 146.515 790.15 147.119Z" fill="#FFA722"/>
<path d="M668.268 230.268C670.444 226.665 673.273 227.608 675.304 231.042C676.706 233.387 688.432 249.175 689.521 250.892C690.609 252.609 691.092 255.897 687.635 256.671C684.201 257.444 656.227 264.794 651.851 265.568C647.475 266.342 644.984 262.908 647.789 259.161C649.433 256.985 667.011 232.299 668.268 230.268Z" fill="#FFA722"/>
<path d="M662.321 203.067C666.31 204.857 668.196 204.204 669.042 201.351C670.13 197.603 673.418 180.412 673.563 176.496C673.66 173.957 672.621 171.491 668.728 172.119C664.811 172.748 636.692 176.641 633.089 177.898C628.906 179.349 629.221 183.942 632.001 185.393C635.289 187.134 659.516 201.81 662.321 203.067Z" fill="#FFA722"/>
<path d="M710.919 137.448C713.167 135.659 712.49 133.071 710.459 131.669C708.428 130.267 683.331 112.109 680.14 109.643C677.335 107.467 673.878 108.24 674.821 113.245C675.498 116.824 683.501 148.255 684.032 150.431C684.661 152.922 686.523 154.179 688.723 152.607C690.923 151.036 708.573 139.309 710.919 137.448Z" fill="#FFA722"/>
<path d="M924.387 251.279C924.387 251.279 927.893 182.492 872.21 169.073C816.528 155.654 800.304 209.668 800.304 209.668C800.304 209.668 781.736 205.34 764.521 219.654C751.005 230.897 749.095 247.773 749.095 247.773C749.095 247.773 731.324 245.065 716.527 259.427C705.816 269.823 706.856 283.17 706.856 283.17L728.423 302.126L947.598 296.202L959.131 283.823C959.131 283.823 960.969 270.089 948.154 259.765C935.34 249.417 924.387 251.279 924.387 251.279Z" fill="#E2EBEE"/>
<path d="M758.792 277.996C758.792 277.996 767.52 287.86 795.204 287.208C822.888 286.555 830.166 279.301 830.166 279.301C830.166 279.301 842.303 292.043 877.386 289.335C912.468 286.627 922.551 279.229 922.551 279.229C922.551 279.229 931.11 285.346 941.942 285.515C952.749 285.684 959.132 283.798 959.132 283.798C959.132 283.798 957.996 292.406 954.224 297.919C950.452 303.431 944.166 307.638 934.229 307.566C924.267 307.493 893.996 307.759 863.266 307.711C832.535 307.662 744.72 308.17 731.736 307.614C721.847 307.203 714.666 301.376 711.354 296.444C706.059 288.562 706.929 280.244 706.929 280.244C706.929 280.244 716.891 288.054 730.334 287.474C748.709 286.7 758.792 277.996 758.792 277.996Z" fill="#B9CED3"/>
<rect x="1125" y="25" width="490" height="354" fill="#72B4F1"/>
<path d="M1284.89 164.406C1267.63 186.578 1267.92 226.013 1290 245.524C1315.04 267.696 1350.27 267.478 1372.44 247.072C1399.01 222.628 1397.49 181.911 1373.99 158.87C1350.37 135.683 1308.15 134.474 1284.89 164.406Z" fill="#FCC11A"/>
<path d="M1312.6 156.79C1305.78 153.768 1298.31 161.989 1295.05 167.622C1291.78 173.256 1288.76 184.305 1295.7 187.11C1302.64 189.914 1307.62 185.151 1312.6 176.931C1317.58 168.71 1320.39 160.272 1312.6 156.79Z" fill="#FEE269"/>
<path d="M1330.37 125.866C1328.73 128.961 1329.29 131.331 1332.55 132.129C1335.84 132.902 1356.29 136.239 1358.01 136.336C1360.5 136.481 1361.44 134.619 1361.13 132.419C1360.81 130.243 1355.81 99.6088 1355.35 96.78C1354.89 93.9753 1351.92 91.1465 1349.09 94.8941C1346.31 98.6901 1331.61 123.521 1330.37 125.866Z" fill="#FFA722"/>
<path d="M1383.35 147.119C1380.13 148.11 1380.23 150.093 1381.95 152.583C1383.66 155.074 1395.53 173.207 1396.65 174.465C1397.76 175.722 1399.62 176.036 1401.17 174.15C1402.71 172.264 1422.25 144.919 1423.68 143.202C1426.02 140.397 1424.62 137.424 1421.02 138.367C1418.26 139.092 1385.38 146.515 1383.35 147.119Z" fill="#FFA722"/>
<path d="M1261.47 230.268C1263.64 226.665 1266.47 227.608 1268.5 231.042C1269.9 233.387 1281.63 249.175 1282.72 250.892C1283.81 252.609 1284.29 255.897 1280.83 256.671C1277.4 257.444 1249.42 264.794 1245.05 265.568C1240.67 266.342 1238.18 262.908 1240.99 259.161C1242.63 256.985 1260.21 232.299 1261.47 230.268Z" fill="#FFA722"/>
<path d="M1255.52 203.067C1259.51 204.857 1261.39 204.204 1262.24 201.351C1263.33 197.603 1266.62 180.412 1266.76 176.496C1266.86 173.957 1265.82 171.491 1261.93 172.119C1258.01 172.748 1229.89 176.641 1226.29 177.898C1222.1 179.349 1222.42 183.942 1225.2 185.393C1228.49 187.134 1252.71 201.81 1255.52 203.067Z" fill="#FFA722"/>
<path d="M1304.12 137.448C1306.36 135.659 1305.69 133.071 1303.66 131.669C1301.63 130.267 1276.53 112.109 1273.34 109.643C1270.53 107.467 1267.07 108.24 1268.02 113.245C1268.69 116.824 1276.7 148.255 1277.23 150.431C1277.86 152.922 1279.72 154.179 1281.92 152.607C1284.12 151.036 1301.77 139.309 1304.12 137.448Z" fill="#FFA722"/>
<path d="M1517.58 251.279C1517.58 251.279 1521.09 182.492 1465.41 169.073C1409.73 155.654 1393.5 209.668 1393.5 209.668C1393.5 209.668 1374.93 205.34 1357.72 219.654C1344.2 230.897 1342.29 247.773 1342.29 247.773C1342.29 247.773 1324.52 245.065 1309.72 259.427C1299.01 269.823 1300.05 283.17 1300.05 283.17L1321.62 302.126L1540.8 296.202L1552.33 283.823C1552.33 283.823 1554.17 270.089 1541.35 259.765C1528.54 249.417 1517.58 251.279 1517.58 251.279Z" fill="#E2EBEE"/>
<path d="M1351.99 277.996C1351.99 277.996 1360.72 287.86 1388.4 287.208C1416.09 286.555 1423.36 279.301 1423.36 279.301C1423.36 279.301 1435.5 292.043 1470.58 289.335C1505.67 286.627 1515.75 279.229 1515.75 279.229C1515.75 279.229 1524.31 285.346 1535.14 285.515C1545.95 285.684 1552.33 283.798 1552.33 283.798C1552.33 283.798 1551.19 292.406 1547.42 297.919C1543.65 303.431 1537.36 307.638 1527.43 307.566C1517.46 307.493 1487.19 307.759 1456.46 307.711C1425.73 307.662 1337.92 308.17 1324.93 307.614C1315.04 307.203 1307.86 301.376 1304.55 296.444C1299.26 288.562 1300.13 280.244 1300.13 280.244C1300.13 280.244 1310.09 288.054 1323.53 287.474C1341.91 286.7 1351.99 277.996 1351.99 277.996Z" fill="#B9CED3"/>
<path d="M1080.84 185.457H1041.46V218.543H1080.84V241.595L1106.15 202L1080.84 162.405V185.457Z" fill="#9D9D9D"/>
<rect x="212" y="169" width="254" height="141" stroke="#E03E1A" stroke-width="4"/>
<rect x="707" y="168" width="254" height="141" stroke="#E03E1A" stroke-width="4"/>
<path d="M202.762 347V323.727H211.489C213.277 323.727 214.777 324.061 215.989 324.727C217.209 325.394 218.129 326.311 218.75 327.477C219.379 328.636 219.694 329.955 219.694 331.432C219.694 332.924 219.379 334.25 218.75 335.409C218.122 336.568 217.194 337.481 215.966 338.148C214.739 338.807 213.228 339.136 211.432 339.136H205.648V335.67H210.864C211.909 335.67 212.765 335.489 213.432 335.125C214.099 334.761 214.591 334.261 214.909 333.625C215.235 332.989 215.398 332.258 215.398 331.432C215.398 330.606 215.235 329.879 214.909 329.25C214.591 328.621 214.095 328.133 213.421 327.784C212.754 327.428 211.894 327.25 210.841 327.25H206.978V347H202.762ZM222.854 347V329.545H226.842V332.455H227.024C227.342 331.447 227.888 330.67 228.66 330.125C229.441 329.572 230.331 329.295 231.331 329.295C231.558 329.295 231.812 329.307 232.092 329.33C232.38 329.345 232.619 329.371 232.808 329.409V333.193C232.634 333.133 232.357 333.08 231.979 333.034C231.607 332.981 231.248 332.955 230.899 332.955C230.149 332.955 229.475 333.117 228.876 333.443C228.285 333.761 227.82 334.205 227.479 334.773C227.138 335.341 226.967 335.996 226.967 336.739V347H222.854ZM242.23 347.341C240.48 347.341 238.968 346.977 237.696 346.25C236.43 345.515 235.457 344.477 234.775 343.136C234.093 341.788 233.752 340.201 233.752 338.375C233.752 336.58 234.093 335.004 234.775 333.648C235.465 332.284 236.427 331.223 237.661 330.466C238.896 329.701 240.347 329.318 242.014 329.318C243.09 329.318 244.105 329.492 245.059 329.841C246.021 330.182 246.87 330.712 247.605 331.432C248.347 332.152 248.93 333.068 249.355 334.182C249.779 335.288 249.991 336.606 249.991 338.136V339.398H235.684V336.625H246.048C246.04 335.837 245.87 335.136 245.536 334.523C245.203 333.902 244.737 333.413 244.139 333.057C243.548 332.701 242.858 332.523 242.071 332.523C241.23 332.523 240.491 332.727 239.855 333.136C239.218 333.538 238.722 334.068 238.366 334.727C238.018 335.379 237.84 336.095 237.832 336.875V339.295C237.832 340.311 238.018 341.182 238.389 341.909C238.76 342.629 239.279 343.182 239.946 343.568C240.612 343.947 241.393 344.136 242.286 344.136C242.885 344.136 243.427 344.053 243.911 343.886C244.396 343.712 244.817 343.458 245.173 343.125C245.529 342.792 245.798 342.379 245.98 341.886L249.821 342.318C249.578 343.333 249.116 344.22 248.434 344.977C247.76 345.727 246.896 346.311 245.843 346.727C244.79 347.136 243.586 347.341 242.23 347.341ZM268.242 329.545L262.026 347H257.481L251.265 329.545H255.651L259.662 342.511H259.844L263.867 329.545H268.242ZM270.769 347V329.545H274.882V347H270.769ZM272.837 327.068C272.185 327.068 271.625 326.852 271.155 326.42C270.685 325.981 270.45 325.455 270.45 324.841C270.45 324.22 270.685 323.693 271.155 323.261C271.625 322.822 272.185 322.602 272.837 322.602C273.496 322.602 274.057 322.822 274.519 323.261C274.988 323.693 275.223 324.22 275.223 324.841C275.223 325.455 274.988 325.981 274.519 326.42C274.057 326.852 273.496 327.068 272.837 327.068ZM286.406 347.341C284.701 347.341 283.224 346.966 281.974 346.216C280.724 345.466 279.755 344.417 279.065 343.068C278.383 341.72 278.042 340.144 278.042 338.341C278.042 336.538 278.383 334.958 279.065 333.602C279.755 332.246 280.724 331.193 281.974 330.443C283.224 329.693 284.701 329.318 286.406 329.318C288.111 329.318 289.588 329.693 290.838 330.443C292.088 331.193 293.054 332.246 293.736 333.602C294.425 334.958 294.77 336.538 294.77 338.341C294.77 340.144 294.425 341.72 293.736 343.068C293.054 344.417 292.088 345.466 290.838 346.216C289.588 346.966 288.111 347.341 286.406 347.341ZM286.429 344.045C287.353 344.045 288.126 343.792 288.747 343.284C289.368 342.769 289.83 342.08 290.133 341.216C290.444 340.352 290.599 339.39 290.599 338.33C290.599 337.261 290.444 336.295 290.133 335.432C289.83 334.561 289.368 333.867 288.747 333.352C288.126 332.837 287.353 332.58 286.429 332.58C285.482 332.58 284.694 332.837 284.065 333.352C283.444 333.867 282.978 334.561 282.667 335.432C282.364 336.295 282.213 337.261 282.213 338.33C282.213 339.39 282.364 340.352 282.667 341.216C282.978 342.08 283.444 342.769 284.065 343.284C284.694 343.792 285.482 344.045 286.429 344.045ZM309.066 339.659V329.545H313.18V347H309.191V343.898H309.009C308.615 344.875 307.968 345.674 307.066 346.295C306.172 346.917 305.07 347.227 303.759 347.227C302.615 347.227 301.604 346.973 300.725 346.466C299.854 345.951 299.172 345.205 298.68 344.227C298.187 343.242 297.941 342.053 297.941 340.659V329.545H302.055V340.023C302.055 341.129 302.358 342.008 302.964 342.659C303.57 343.311 304.365 343.636 305.35 343.636C305.956 343.636 306.543 343.489 307.112 343.193C307.68 342.898 308.146 342.458 308.509 341.875C308.881 341.284 309.066 340.545 309.066 339.659ZM330.885 334.159L327.135 334.568C327.029 334.189 326.844 333.833 326.579 333.5C326.321 333.167 325.972 332.898 325.533 332.693C325.094 332.489 324.556 332.386 323.919 332.386C323.063 332.386 322.344 332.572 321.76 332.943C321.185 333.314 320.9 333.795 320.908 334.386C320.9 334.894 321.086 335.307 321.465 335.625C321.851 335.943 322.488 336.205 323.374 336.409L326.351 337.045C328.003 337.402 329.23 337.966 330.033 338.739C330.844 339.511 331.253 340.523 331.26 341.773C331.253 342.871 330.931 343.841 330.294 344.682C329.666 345.515 328.791 346.167 327.669 346.636C326.548 347.106 325.26 347.341 323.806 347.341C321.669 347.341 319.95 346.894 318.647 346C317.344 345.098 316.567 343.845 316.317 342.239L320.329 341.852C320.51 342.64 320.897 343.235 321.488 343.636C322.079 344.038 322.847 344.239 323.794 344.239C324.772 344.239 325.556 344.038 326.147 343.636C326.745 343.235 327.044 342.739 327.044 342.148C327.044 341.648 326.851 341.235 326.465 340.909C326.086 340.583 325.495 340.333 324.692 340.159L321.715 339.534C320.041 339.186 318.802 338.598 317.999 337.773C317.196 336.939 316.798 335.886 316.806 334.614C316.798 333.538 317.09 332.606 317.681 331.818C318.279 331.023 319.109 330.409 320.169 329.977C321.238 329.538 322.469 329.318 323.863 329.318C325.908 329.318 327.518 329.754 328.692 330.625C329.874 331.496 330.605 332.674 330.885 334.159ZM349.541 353.909C348.064 353.909 346.795 353.708 345.734 353.307C344.673 352.913 343.821 352.383 343.177 351.716C342.533 351.049 342.086 350.311 341.836 349.5L345.541 348.602C345.707 348.943 345.95 349.28 346.268 349.614C346.586 349.955 347.014 350.235 347.552 350.455C348.098 350.682 348.783 350.795 349.609 350.795C350.776 350.795 351.742 350.511 352.507 349.943C353.272 349.383 353.654 348.458 353.654 347.17V343.864H353.45C353.238 344.288 352.927 344.723 352.518 345.17C352.117 345.617 351.582 345.992 350.916 346.295C350.257 346.598 349.427 346.75 348.427 346.75C347.086 346.75 345.87 346.436 344.779 345.807C343.696 345.17 342.832 344.223 342.189 342.966C341.552 341.701 341.234 340.117 341.234 338.216C341.234 336.299 341.552 334.682 342.189 333.364C342.832 332.038 343.7 331.034 344.791 330.352C345.882 329.663 347.098 329.318 348.439 329.318C349.461 329.318 350.302 329.492 350.961 329.841C351.628 330.182 352.158 330.595 352.552 331.08C352.946 331.557 353.245 332.008 353.45 332.432H353.677V329.545H357.734V347.284C357.734 348.777 357.378 350.011 356.666 350.989C355.954 351.966 354.98 352.697 353.745 353.182C352.51 353.667 351.109 353.909 349.541 353.909ZM349.575 343.523C350.446 343.523 351.189 343.311 351.802 342.886C352.416 342.462 352.882 341.852 353.2 341.057C353.518 340.261 353.677 339.307 353.677 338.193C353.677 337.095 353.518 336.133 353.2 335.307C352.889 334.481 352.427 333.841 351.814 333.386C351.207 332.924 350.461 332.693 349.575 332.693C348.658 332.693 347.893 332.932 347.279 333.409C346.666 333.886 346.204 334.542 345.893 335.375C345.582 336.201 345.427 337.14 345.427 338.193C345.427 339.261 345.582 340.197 345.893 341C346.211 341.795 346.677 342.417 347.291 342.864C347.912 343.303 348.673 343.523 349.575 343.523ZM369.357 347.341C367.607 347.341 366.096 346.977 364.823 346.25C363.558 345.515 362.584 344.477 361.903 343.136C361.221 341.788 360.88 340.201 360.88 338.375C360.88 336.58 361.221 335.004 361.903 333.648C362.592 332.284 363.554 331.223 364.789 330.466C366.024 329.701 367.475 329.318 369.141 329.318C370.217 329.318 371.232 329.492 372.187 329.841C373.149 330.182 373.997 330.712 374.732 331.432C375.475 332.152 376.058 333.068 376.482 334.182C376.906 335.288 377.119 336.606 377.119 338.136V339.398H362.812V336.625H373.175C373.168 335.837 372.997 335.136 372.664 334.523C372.331 333.902 371.865 333.413 371.266 333.057C370.675 332.701 369.986 332.523 369.198 332.523C368.357 332.523 367.619 332.727 366.982 333.136C366.346 333.538 365.85 334.068 365.494 334.727C365.145 335.379 364.967 336.095 364.959 336.875V339.295C364.959 340.311 365.145 341.182 365.516 341.909C365.887 342.629 366.406 343.182 367.073 343.568C367.74 343.947 368.52 344.136 369.414 344.136C370.012 344.136 370.554 344.053 371.039 343.886C371.524 343.712 371.944 343.458 372.3 343.125C372.656 342.792 372.925 342.379 373.107 341.886L376.948 342.318C376.706 343.333 376.244 344.22 375.562 344.977C374.887 345.727 374.024 346.311 372.971 346.727C371.918 347.136 370.713 347.341 369.357 347.341ZM387.892 347.341C386.188 347.341 384.71 346.966 383.46 346.216C382.21 345.466 381.241 344.417 380.551 343.068C379.87 341.72 379.529 340.144 379.529 338.341C379.529 336.538 379.87 334.958 380.551 333.602C381.241 332.246 382.21 331.193 383.46 330.443C384.71 329.693 386.188 329.318 387.892 329.318C389.597 329.318 391.074 329.693 392.324 330.443C393.574 331.193 394.54 332.246 395.222 333.602C395.911 334.958 396.256 336.538 396.256 338.341C396.256 340.144 395.911 341.72 395.222 343.068C394.54 344.417 393.574 345.466 392.324 346.216C391.074 346.966 389.597 347.341 387.892 347.341ZM387.915 344.045C388.839 344.045 389.612 343.792 390.233 343.284C390.854 342.769 391.317 342.08 391.62 341.216C391.93 340.352 392.085 339.39 392.085 338.33C392.085 337.261 391.93 336.295 391.62 335.432C391.317 334.561 390.854 333.867 390.233 333.352C389.612 332.837 388.839 332.58 387.915 332.58C386.968 332.58 386.18 332.837 385.551 333.352C384.93 333.867 384.464 334.561 384.154 335.432C383.851 336.295 383.699 337.261 383.699 338.33C383.699 339.39 383.851 340.352 384.154 341.216C384.464 342.08 384.93 342.769 385.551 343.284C386.18 343.792 386.968 344.045 387.915 344.045ZM399.427 347V329.545H403.359V332.511H403.564C403.927 331.511 404.53 330.731 405.371 330.17C406.211 329.602 407.215 329.318 408.382 329.318C409.564 329.318 410.56 329.606 411.371 330.182C412.189 330.75 412.765 331.527 413.098 332.511H413.28C413.666 331.542 414.318 330.769 415.234 330.193C416.158 329.61 417.253 329.318 418.518 329.318C420.124 329.318 421.435 329.826 422.45 330.841C423.465 331.856 423.973 333.337 423.973 335.284V347H419.848V335.92C419.848 334.837 419.56 334.045 418.984 333.545C418.408 333.038 417.704 332.784 416.871 332.784C415.878 332.784 415.102 333.095 414.541 333.716C413.988 334.33 413.711 335.129 413.711 336.114V347H409.677V335.75C409.677 334.848 409.405 334.129 408.859 333.591C408.321 333.053 407.617 332.784 406.746 332.784C406.155 332.784 405.617 332.936 405.132 333.239C404.647 333.534 404.261 333.955 403.973 334.5C403.685 335.038 403.541 335.667 403.541 336.386V347H399.427ZM435.553 347.341C433.803 347.341 432.292 346.977 431.019 346.25C429.754 345.515 428.781 344.477 428.099 343.136C427.417 341.788 427.076 340.201 427.076 338.375C427.076 336.58 427.417 335.004 428.099 333.648C428.788 332.284 429.75 331.223 430.985 330.466C432.22 329.701 433.671 329.318 435.337 329.318C436.413 329.318 437.428 329.492 438.383 329.841C439.345 330.182 440.194 330.712 440.928 331.432C441.671 332.152 442.254 333.068 442.678 334.182C443.103 335.288 443.315 336.606 443.315 338.136V339.398H429.008V336.625H439.372C439.364 335.837 439.194 335.136 438.86 334.523C438.527 333.902 438.061 333.413 437.462 333.057C436.872 332.701 436.182 332.523 435.394 332.523C434.553 332.523 433.815 332.727 433.178 333.136C432.542 333.538 432.046 334.068 431.69 334.727C431.341 335.379 431.163 336.095 431.156 336.875V339.295C431.156 340.311 431.341 341.182 431.712 341.909C432.084 342.629 432.603 343.182 433.269 343.568C433.936 343.947 434.716 344.136 435.61 344.136C436.209 344.136 436.75 344.053 437.235 343.886C437.72 343.712 438.141 343.458 438.497 343.125C438.853 342.792 439.122 342.379 439.303 341.886L443.144 342.318C442.902 343.333 442.44 344.22 441.758 344.977C441.084 345.727 440.22 346.311 439.167 346.727C438.114 347.136 436.909 347.341 435.553 347.341ZM455.191 329.545V332.727H445.157V329.545H455.191ZM447.634 325.364H451.748V341.75C451.748 342.303 451.831 342.727 451.998 343.023C452.172 343.311 452.399 343.508 452.679 343.614C452.96 343.72 453.27 343.773 453.611 343.773C453.869 343.773 454.104 343.754 454.316 343.716C454.535 343.678 454.702 343.644 454.816 343.614L455.509 346.83C455.289 346.905 454.975 346.989 454.566 347.08C454.164 347.17 453.672 347.223 453.089 347.239C452.058 347.269 451.13 347.114 450.304 346.773C449.479 346.424 448.823 345.886 448.339 345.159C447.861 344.432 447.626 343.523 447.634 342.432V325.364ZM458.311 347V329.545H462.3V332.455H462.482C462.8 331.447 463.345 330.67 464.118 330.125C464.898 329.572 465.788 329.295 466.788 329.295C467.016 329.295 467.269 329.307 467.55 329.33C467.838 329.345 468.076 329.371 468.266 329.409V333.193C468.091 333.133 467.815 333.08 467.436 333.034C467.065 332.981 466.705 332.955 466.357 332.955C465.607 332.955 464.932 333.117 464.334 333.443C463.743 333.761 463.277 334.205 462.936 334.773C462.595 335.341 462.425 335.996 462.425 336.739V347H458.311ZM473.767 353.545C473.206 353.545 472.687 353.5 472.21 353.409C471.74 353.326 471.365 353.227 471.085 353.114L472.039 349.909C472.638 350.083 473.172 350.167 473.642 350.159C474.111 350.152 474.524 350.004 474.88 349.716C475.244 349.436 475.551 348.966 475.801 348.307L476.153 347.364L469.824 329.545H474.187L478.21 342.727H478.392L482.426 329.545H486.801L479.812 349.114C479.486 350.038 479.055 350.83 478.517 351.489C477.979 352.155 477.32 352.663 476.539 353.011C475.767 353.367 474.842 353.545 473.767 353.545Z" fill="white"/>
<path d="M720.413 331.58H716.163C716.042 330.883 715.818 330.265 715.492 329.727C715.167 329.182 714.761 328.72 714.276 328.341C713.792 327.962 713.239 327.678 712.617 327.489C712.004 327.292 711.341 327.193 710.629 327.193C709.364 327.193 708.242 327.511 707.265 328.148C706.288 328.777 705.523 329.701 704.97 330.92C704.417 332.133 704.14 333.614 704.14 335.364C704.14 337.144 704.417 338.644 704.97 339.864C705.53 341.076 706.295 341.992 707.265 342.614C708.242 343.227 709.36 343.534 710.617 343.534C711.314 343.534 711.966 343.443 712.572 343.261C713.186 343.072 713.735 342.795 714.22 342.432C714.712 342.068 715.125 341.621 715.458 341.091C715.799 340.561 716.034 339.955 716.163 339.273L720.413 339.295C720.254 340.402 719.909 341.439 719.379 342.409C718.856 343.379 718.17 344.235 717.322 344.977C716.473 345.712 715.481 346.288 714.345 346.705C713.208 347.114 711.947 347.318 710.561 347.318C708.515 347.318 706.689 346.845 705.083 345.898C703.477 344.951 702.212 343.583 701.288 341.795C700.364 340.008 699.901 337.864 699.901 335.364C699.901 332.856 700.367 330.712 701.299 328.932C702.231 327.144 703.5 325.777 705.106 324.83C706.712 323.883 708.53 323.409 710.561 323.409C711.856 323.409 713.061 323.591 714.174 323.955C715.288 324.318 716.28 324.852 717.151 325.557C718.023 326.254 718.739 327.11 719.299 328.125C719.867 329.133 720.239 330.284 720.413 331.58ZM734.897 339.659V329.545H739.01V347H735.022V343.898H734.84C734.446 344.875 733.798 345.674 732.897 346.295C732.003 346.917 730.901 347.227 729.59 347.227C728.446 347.227 727.435 346.973 726.556 346.466C725.685 345.951 725.003 345.205 724.51 344.227C724.018 343.242 723.772 342.053 723.772 340.659V329.545H727.885V340.023C727.885 341.129 728.188 342.008 728.794 342.659C729.401 343.311 730.196 343.636 731.181 343.636C731.787 343.636 732.374 343.489 732.942 343.193C733.51 342.898 733.976 342.458 734.34 341.875C734.711 341.284 734.897 340.545 734.897 339.659ZM742.921 347V329.545H746.909V332.455H747.091C747.409 331.447 747.955 330.67 748.727 330.125C749.508 329.572 750.398 329.295 751.398 329.295C751.625 329.295 751.879 329.307 752.159 329.33C752.447 329.345 752.686 329.371 752.875 329.409V333.193C752.701 333.133 752.424 333.08 752.046 333.034C751.674 332.981 751.314 332.955 750.966 332.955C750.216 332.955 749.542 333.117 748.943 333.443C748.352 333.761 747.886 334.205 747.546 334.773C747.205 335.341 747.034 335.996 747.034 336.739V347H742.921ZM755.288 347V329.545H759.277V332.455H759.458C759.777 331.447 760.322 330.67 761.095 330.125C761.875 329.572 762.765 329.295 763.765 329.295C763.993 329.295 764.246 329.307 764.527 329.33C764.815 329.345 765.053 329.371 765.243 329.409V333.193C765.068 333.133 764.792 333.08 764.413 333.034C764.042 332.981 763.682 332.955 763.333 332.955C762.583 332.955 761.909 333.117 761.311 333.443C760.72 333.761 760.254 334.205 759.913 334.773C759.572 335.341 759.402 335.996 759.402 336.739V347H755.288ZM774.664 347.341C772.914 347.341 771.403 346.977 770.13 346.25C768.865 345.515 767.891 344.477 767.209 343.136C766.528 341.788 766.187 340.201 766.187 338.375C766.187 336.58 766.528 335.004 767.209 333.648C767.899 332.284 768.861 331.223 770.096 330.466C771.331 329.701 772.781 329.318 774.448 329.318C775.524 329.318 776.539 329.492 777.494 329.841C778.456 330.182 779.304 330.712 780.039 331.432C780.781 332.152 781.365 333.068 781.789 334.182C782.213 335.288 782.425 336.606 782.425 338.136V339.398H768.119V336.625H778.482C778.475 335.837 778.304 335.136 777.971 334.523C777.638 333.902 777.172 333.413 776.573 333.057C775.982 332.701 775.293 332.523 774.505 332.523C773.664 332.523 772.925 332.727 772.289 333.136C771.653 333.538 771.156 334.068 770.8 334.727C770.452 335.379 770.274 336.095 770.266 336.875V339.295C770.266 340.311 770.452 341.182 770.823 341.909C771.194 342.629 771.713 343.182 772.38 343.568C773.047 343.947 773.827 344.136 774.721 344.136C775.319 344.136 775.861 344.053 776.346 343.886C776.831 343.712 777.251 343.458 777.607 343.125C777.963 342.792 778.232 342.379 778.414 341.886L782.255 342.318C782.013 343.333 781.55 344.22 780.869 344.977C780.194 345.727 779.331 346.311 778.278 346.727C777.225 347.136 776.02 347.341 774.664 347.341ZM789.699 336.773V347H785.586V329.545H789.517V332.511H789.722C790.123 331.534 790.764 330.758 791.642 330.182C792.529 329.606 793.623 329.318 794.926 329.318C796.131 329.318 797.18 329.576 798.074 330.091C798.976 330.606 799.673 331.352 800.165 332.33C800.665 333.307 800.911 334.492 800.904 335.886V347H796.79V336.523C796.79 335.356 796.487 334.443 795.881 333.784C795.282 333.125 794.453 332.795 793.392 332.795C792.673 332.795 792.032 332.955 791.472 333.273C790.919 333.583 790.483 334.034 790.165 334.625C789.854 335.216 789.699 335.932 789.699 336.773ZM813.481 329.545V332.727H803.447V329.545H813.481ZM805.925 325.364H810.038V341.75C810.038 342.303 810.122 342.727 810.288 343.023C810.462 343.311 810.69 343.508 810.97 343.614C811.25 343.72 811.561 343.773 811.902 343.773C812.159 343.773 812.394 343.754 812.606 343.716C812.826 343.678 812.993 343.644 813.106 343.614L813.8 346.83C813.58 346.905 813.266 346.989 812.856 347.08C812.455 347.17 811.962 347.223 811.379 347.239C810.349 347.269 809.421 347.114 808.595 346.773C807.769 346.424 807.114 345.886 806.629 345.159C806.152 344.432 805.917 343.523 805.925 342.432V325.364ZM831.81 353.909C830.333 353.909 829.064 353.708 828.003 353.307C826.943 352.913 826.09 352.383 825.447 351.716C824.803 351.049 824.356 350.311 824.106 349.5L827.81 348.602C827.977 348.943 828.219 349.28 828.537 349.614C828.856 349.955 829.284 350.235 829.822 350.455C830.367 350.682 831.053 350.795 831.878 350.795C833.045 350.795 834.011 350.511 834.776 349.943C835.541 349.383 835.924 348.458 835.924 347.17V343.864H835.719C835.507 344.288 835.197 344.723 834.787 345.17C834.386 345.617 833.852 345.992 833.185 346.295C832.526 346.598 831.697 346.75 830.697 346.75C829.356 346.75 828.14 346.436 827.049 345.807C825.965 345.17 825.102 344.223 824.458 342.966C823.822 341.701 823.503 340.117 823.503 338.216C823.503 336.299 823.822 334.682 824.458 333.364C825.102 332.038 825.969 331.034 827.06 330.352C828.151 329.663 829.367 329.318 830.708 329.318C831.731 329.318 832.572 329.492 833.231 329.841C833.897 330.182 834.428 330.595 834.822 331.08C835.215 331.557 835.515 332.008 835.719 332.432H835.947V329.545H840.003V347.284C840.003 348.777 839.647 350.011 838.935 350.989C838.223 351.966 837.25 352.697 836.015 353.182C834.78 353.667 833.378 353.909 831.81 353.909ZM831.844 343.523C832.715 343.523 833.458 343.311 834.072 342.886C834.685 342.462 835.151 341.852 835.469 341.057C835.787 340.261 835.947 339.307 835.947 338.193C835.947 337.095 835.787 336.133 835.469 335.307C835.159 334.481 834.697 333.841 834.083 333.386C833.477 332.924 832.731 332.693 831.844 332.693C830.928 332.693 830.162 332.932 829.549 333.409C828.935 333.886 828.473 334.542 828.162 335.375C827.852 336.201 827.697 337.14 827.697 338.193C827.697 339.261 827.852 340.197 828.162 341C828.481 341.795 828.947 342.417 829.56 342.864C830.181 343.303 830.943 343.523 831.844 343.523ZM851.627 347.341C849.877 347.341 848.365 346.977 847.092 346.25C845.827 345.515 844.854 344.477 844.172 343.136C843.49 341.788 843.149 340.201 843.149 338.375C843.149 336.58 843.49 335.004 844.172 333.648C844.861 332.284 845.823 331.223 847.058 330.466C848.293 329.701 849.744 329.318 851.411 329.318C852.486 329.318 853.502 329.492 854.456 329.841C855.418 330.182 856.267 330.712 857.002 331.432C857.744 332.152 858.327 333.068 858.752 334.182C859.176 335.288 859.388 336.606 859.388 338.136V339.398H845.081V336.625H855.445C855.437 335.837 855.267 335.136 854.933 334.523C854.6 333.902 854.134 333.413 853.536 333.057C852.945 332.701 852.255 332.523 851.467 332.523C850.627 332.523 849.888 332.727 849.252 333.136C848.615 333.538 848.119 334.068 847.763 334.727C847.414 335.379 847.236 336.095 847.229 336.875V339.295C847.229 340.311 847.414 341.182 847.786 341.909C848.157 342.629 848.676 343.182 849.342 343.568C850.009 343.947 850.789 344.136 851.683 344.136C852.282 344.136 852.823 344.053 853.308 343.886C853.793 343.712 854.214 343.458 854.57 343.125C854.926 342.792 855.195 342.379 855.377 341.886L859.217 342.318C858.975 343.333 858.513 344.22 857.831 344.977C857.157 345.727 856.293 346.311 855.24 346.727C854.187 347.136 852.983 347.341 851.627 347.341ZM870.162 347.341C868.457 347.341 866.98 346.966 865.73 346.216C864.48 345.466 863.51 344.417 862.821 343.068C862.139 341.72 861.798 340.144 861.798 338.341C861.798 336.538 862.139 334.958 862.821 333.602C863.51 332.246 864.48 331.193 865.73 330.443C866.98 329.693 868.457 329.318 870.162 329.318C871.866 329.318 873.343 329.693 874.593 330.443C875.843 331.193 876.809 332.246 877.491 333.602C878.181 334.958 878.525 336.538 878.525 338.341C878.525 340.144 878.181 341.72 877.491 343.068C876.809 344.417 875.843 345.466 874.593 346.216C873.343 346.966 871.866 347.341 870.162 347.341ZM870.184 344.045C871.109 344.045 871.881 343.792 872.503 343.284C873.124 342.769 873.586 342.08 873.889 341.216C874.2 340.352 874.355 339.39 874.355 338.33C874.355 337.261 874.2 336.295 873.889 335.432C873.586 334.561 873.124 333.867 872.503 333.352C871.881 332.837 871.109 332.58 870.184 332.58C869.237 332.58 868.45 332.837 867.821 333.352C867.2 333.867 866.734 334.561 866.423 335.432C866.12 336.295 865.968 337.261 865.968 338.33C865.968 339.39 866.12 340.352 866.423 341.216C866.734 342.08 867.2 342.769 867.821 343.284C868.45 343.792 869.237 344.045 870.184 344.045ZM881.697 347V329.545H885.629V332.511H885.833C886.197 331.511 886.799 330.731 887.64 330.17C888.481 329.602 889.485 329.318 890.651 329.318C891.833 329.318 892.829 329.606 893.64 330.182C894.458 330.75 895.034 331.527 895.367 332.511H895.549C895.935 331.542 896.587 330.769 897.504 330.193C898.428 329.61 899.523 329.318 900.788 329.318C902.394 329.318 903.704 329.826 904.719 330.841C905.735 331.856 906.242 333.337 906.242 335.284V347H902.117V335.92C902.117 334.837 901.829 334.045 901.254 333.545C900.678 333.038 899.973 332.784 899.14 332.784C898.148 332.784 897.371 333.095 896.81 333.716C896.257 334.33 895.981 335.129 895.981 336.114V347H891.947V335.75C891.947 334.848 891.674 334.129 891.129 333.591C890.591 333.053 889.886 332.784 889.015 332.784C888.424 332.784 887.886 332.936 887.401 333.239C886.916 333.534 886.53 333.955 886.242 334.5C885.954 335.038 885.81 335.667 885.81 336.386V347H881.697ZM917.823 347.341C916.073 347.341 914.561 346.977 913.289 346.25C912.024 345.515 911.05 344.477 910.368 343.136C909.686 341.788 909.346 340.201 909.346 338.375C909.346 336.58 909.686 335.004 910.368 333.648C911.058 332.284 912.02 331.223 913.255 330.466C914.489 329.701 915.94 329.318 917.607 329.318C918.683 329.318 919.698 329.492 920.652 329.841C921.614 330.182 922.463 330.712 923.198 331.432C923.94 332.152 924.524 333.068 924.948 334.182C925.372 335.288 925.584 336.606 925.584 338.136V339.398H911.277V336.625H921.641C921.633 335.837 921.463 335.136 921.13 334.523C920.796 333.902 920.33 333.413 919.732 333.057C919.141 332.701 918.452 332.523 917.664 332.523C916.823 332.523 916.084 332.727 915.448 333.136C914.811 333.538 914.315 334.068 913.959 334.727C913.611 335.379 913.433 336.095 913.425 336.875V339.295C913.425 340.311 913.611 341.182 913.982 341.909C914.353 342.629 914.872 343.182 915.539 343.568C916.205 343.947 916.986 344.136 917.88 344.136C918.478 344.136 919.02 344.053 919.505 343.886C919.989 343.712 920.41 343.458 920.766 343.125C921.122 342.792 921.391 342.379 921.573 341.886L925.414 342.318C925.171 343.333 924.709 344.22 924.027 344.977C923.353 345.727 922.489 346.311 921.436 346.727C920.383 347.136 919.179 347.341 917.823 347.341ZM937.46 329.545V332.727H927.426V329.545H937.46ZM929.903 325.364H934.017V341.75C934.017 342.303 934.1 342.727 934.267 343.023C934.441 343.311 934.668 343.508 934.949 343.614C935.229 343.72 935.54 343.773 935.881 343.773C936.138 343.773 936.373 343.754 936.585 343.716C936.805 343.678 936.972 343.644 937.085 343.614L937.778 346.83C937.559 346.905 937.244 346.989 936.835 347.08C936.434 347.17 935.941 347.223 935.358 347.239C934.328 347.269 933.4 347.114 932.574 346.773C931.748 346.424 931.093 345.886 930.608 345.159C930.131 344.432 929.896 343.523 929.903 342.432V325.364ZM940.581 347V329.545H944.569V332.455H944.751C945.069 331.447 945.615 330.67 946.387 330.125C947.168 329.572 948.058 329.295 949.058 329.295C949.285 329.295 949.539 329.307 949.819 329.33C950.107 329.345 950.346 329.371 950.535 329.409V333.193C950.361 333.133 950.084 333.08 949.706 333.034C949.334 332.981 948.974 332.955 948.626 332.955C947.876 332.955 947.202 333.117 946.603 333.443C946.012 333.761 945.546 334.205 945.206 334.773C944.865 335.341 944.694 335.996 944.694 336.739V347H940.581ZM956.036 353.545C955.475 353.545 954.957 353.5 954.479 353.409C954.01 353.326 953.635 353.227 953.354 353.114L954.309 349.909C954.907 350.083 955.441 350.167 955.911 350.159C956.381 350.152 956.794 350.004 957.15 349.716C957.513 349.436 957.82 348.966 958.07 348.307L958.422 347.364L952.093 329.545H956.457L960.479 342.727H960.661L964.695 329.545H969.07L962.082 349.114C961.756 350.038 961.324 350.83 960.786 351.489C960.248 352.155 959.589 352.663 958.809 353.011C958.036 353.367 957.112 353.545 956.036 353.545Z" fill="white"/>
<rect x="1125" y="25" width="171" height="354" fill="black"/>
<rect x="1251" y="25" width="364" height="138" fill="black"/>
<rect x="1552" y="141" width="63" height="191" fill="black"/>
<rect x="1250" y="308" width="365" height="71" fill="black"/>
<rect x="1298" y="165" width="254" height="141" stroke="#E03E1A" stroke-width="4"/>
<path d="M1325.51 347V323.727H1334.24C1336.03 323.727 1337.53 324.038 1338.74 324.659C1339.96 325.28 1340.88 326.152 1341.5 327.273C1342.13 328.386 1342.44 329.686 1342.44 331.17C1342.44 332.663 1342.13 333.958 1341.49 335.057C1340.86 336.148 1339.93 336.992 1338.71 337.591C1337.48 338.182 1335.97 338.477 1334.18 338.477H1327.97V334.977H1333.61C1334.66 334.977 1335.52 334.833 1336.18 334.545C1336.85 334.25 1337.34 333.822 1337.66 333.261C1337.99 332.693 1338.15 331.996 1338.15 331.17C1338.15 330.345 1337.99 329.64 1337.66 329.057C1337.33 328.466 1336.84 328.019 1336.17 327.716C1335.5 327.405 1334.64 327.25 1333.59 327.25H1329.73V347H1325.51ZM1337.54 336.455L1343.3 347H1338.59L1332.93 336.455H1337.54ZM1353.3 347.341C1351.55 347.341 1350.04 346.977 1348.77 346.25C1347.5 345.515 1346.53 344.477 1345.85 343.136C1345.16 341.788 1344.82 340.201 1344.82 338.375C1344.82 336.58 1345.16 335.004 1345.85 333.648C1346.54 332.284 1347.5 331.223 1348.73 330.466C1349.97 329.701 1351.42 329.318 1353.08 329.318C1354.16 329.318 1355.18 329.492 1356.13 329.841C1357.09 330.182 1357.94 330.712 1358.68 331.432C1359.42 332.152 1360 333.068 1360.43 334.182C1360.85 335.288 1361.06 336.606 1361.06 338.136V339.398H1346.75V336.625H1357.12C1357.11 335.837 1356.94 335.136 1356.61 334.523C1356.27 333.902 1355.81 333.413 1355.21 333.057C1354.62 332.701 1353.93 332.523 1353.14 332.523C1352.3 332.523 1351.56 332.727 1350.93 333.136C1350.29 333.538 1349.79 334.068 1349.44 334.727C1349.09 335.379 1348.91 336.095 1348.9 336.875V339.295C1348.9 340.311 1349.09 341.182 1349.46 341.909C1349.83 342.629 1350.35 343.182 1351.02 343.568C1351.68 343.947 1352.46 344.136 1353.36 344.136C1353.96 344.136 1354.5 344.053 1354.98 343.886C1355.47 343.712 1355.89 343.458 1356.24 343.125C1356.6 342.792 1356.87 342.379 1357.05 341.886L1360.89 342.318C1360.65 343.333 1360.19 344.22 1359.5 344.977C1358.83 345.727 1357.97 346.311 1356.91 346.727C1355.86 347.136 1354.66 347.341 1353.3 347.341ZM1370.7 347.307C1369.33 347.307 1368.1 346.955 1367.02 346.25C1365.93 345.545 1365.08 344.523 1364.45 343.182C1363.82 341.841 1363.51 340.212 1363.51 338.295C1363.51 336.356 1363.82 334.72 1364.46 333.386C1365.1 332.045 1365.97 331.034 1367.06 330.352C1368.15 329.663 1369.37 329.318 1370.71 329.318C1371.73 329.318 1372.57 329.492 1373.23 329.841C1373.89 330.182 1374.41 330.595 1374.8 331.08C1375.19 331.557 1375.49 332.008 1375.7 332.432H1375.87V323.727H1379.99V347H1375.95V344.25H1375.7C1375.49 344.674 1375.18 345.125 1374.78 345.602C1374.38 346.072 1373.85 346.473 1373.19 346.807C1372.53 347.14 1371.7 347.307 1370.7 347.307ZM1371.85 343.932C1372.72 343.932 1373.46 343.697 1374.07 343.227C1374.69 342.75 1375.15 342.087 1375.47 341.239C1375.79 340.39 1375.95 339.402 1375.95 338.273C1375.95 337.144 1375.79 336.163 1375.47 335.33C1375.16 334.496 1374.7 333.848 1374.09 333.386C1373.48 332.924 1372.73 332.693 1371.85 332.693C1370.93 332.693 1370.16 332.932 1369.55 333.409C1368.94 333.886 1368.48 334.545 1368.16 335.386C1367.85 336.227 1367.7 337.189 1367.7 338.273C1367.7 339.364 1367.85 340.337 1368.16 341.193C1368.48 342.042 1368.95 342.712 1369.56 343.205C1370.18 343.689 1370.95 343.932 1371.85 343.932ZM1384.06 347V329.545H1388.05V332.455H1388.23C1388.55 331.447 1389.09 330.67 1389.86 330.125C1390.65 329.572 1391.54 329.295 1392.54 329.295C1392.76 329.295 1393.02 329.307 1393.3 329.33C1393.58 329.345 1393.82 329.371 1394.01 329.409V333.193C1393.84 333.133 1393.56 333.08 1393.18 333.034C1392.81 332.981 1392.45 332.955 1392.1 332.955C1391.35 332.955 1390.68 333.117 1390.08 333.443C1389.49 333.761 1389.02 334.205 1388.68 334.773C1388.34 335.341 1388.17 335.996 1388.17 336.739V347H1384.06ZM1401.14 347.352C1400.03 347.352 1399.03 347.155 1398.15 346.761C1397.27 346.36 1396.57 345.769 1396.06 344.989C1395.55 344.208 1395.29 343.246 1395.29 342.102C1395.29 341.117 1395.48 340.303 1395.84 339.659C1396.2 339.015 1396.7 338.5 1397.33 338.114C1397.96 337.727 1398.67 337.436 1399.45 337.239C1400.25 337.034 1401.07 336.886 1401.92 336.795C1402.94 336.689 1403.77 336.595 1404.41 336.511C1405.04 336.42 1405.51 336.284 1405.79 336.102C1406.09 335.913 1406.24 335.621 1406.24 335.227V335.159C1406.24 334.303 1405.98 333.64 1405.48 333.17C1404.97 332.701 1404.24 332.466 1403.28 332.466C1402.28 332.466 1401.48 332.686 1400.89 333.125C1400.3 333.564 1399.91 334.083 1399.7 334.682L1395.86 334.136C1396.17 333.076 1396.67 332.189 1397.36 331.477C1398.06 330.758 1398.91 330.22 1399.92 329.864C1400.93 329.5 1402.04 329.318 1403.26 329.318C1404.1 329.318 1404.94 329.417 1405.77 329.614C1406.61 329.811 1407.37 330.136 1408.06 330.591C1408.75 331.038 1409.3 331.648 1409.72 332.42C1410.14 333.193 1410.35 334.159 1410.35 335.318V347H1406.4V344.602H1406.26C1406.01 345.087 1405.66 345.542 1405.2 345.966C1404.76 346.383 1404.19 346.72 1403.51 346.977C1402.84 347.227 1402.04 347.352 1401.14 347.352ZM1402.2 344.33C1403.03 344.33 1403.75 344.167 1404.35 343.841C1404.96 343.508 1405.42 343.068 1405.75 342.523C1406.08 341.977 1406.25 341.383 1406.25 340.739V338.682C1406.12 338.788 1405.9 338.886 1405.59 338.977C1405.29 339.068 1404.95 339.148 1404.57 339.216C1404.19 339.284 1403.81 339.345 1403.44 339.398C1403.07 339.451 1402.75 339.496 1402.48 339.534C1401.86 339.617 1401.31 339.754 1400.83 339.943C1400.34 340.133 1399.96 340.398 1399.68 340.739C1399.4 341.072 1399.26 341.504 1399.26 342.034C1399.26 342.792 1399.54 343.364 1400.09 343.75C1400.64 344.136 1401.35 344.33 1402.2 344.33ZM1417.77 347L1412.84 329.545H1417.03L1420.1 341.818H1420.26L1423.4 329.545H1427.54L1430.68 341.75H1430.85L1433.87 329.545H1438.08L1433.13 347H1428.85L1425.58 335.205H1425.34L1422.07 347H1417.77ZM1448.25 347V329.545H1452.24V332.455H1452.42C1452.74 331.447 1453.28 330.67 1454.05 330.125C1454.83 329.572 1455.72 329.295 1456.72 329.295C1456.95 329.295 1457.21 329.307 1457.49 329.33C1457.77 329.345 1458.01 329.371 1458.2 329.409V333.193C1458.03 333.133 1457.75 333.08 1457.37 333.034C1457 332.981 1456.64 332.955 1456.29 332.955C1455.54 332.955 1454.87 333.117 1454.27 333.443C1453.68 333.761 1453.21 334.205 1452.87 334.773C1452.53 335.341 1452.36 335.996 1452.36 336.739V347H1448.25ZM1467.62 347.341C1465.87 347.341 1464.36 346.977 1463.09 346.25C1461.82 345.515 1460.85 344.477 1460.17 343.136C1459.49 341.788 1459.15 340.201 1459.15 338.375C1459.15 336.58 1459.49 335.004 1460.17 333.648C1460.86 332.284 1461.82 331.223 1463.05 330.466C1464.29 329.701 1465.74 329.318 1467.41 329.318C1468.48 329.318 1469.5 329.492 1470.45 329.841C1471.41 330.182 1472.26 330.712 1473 331.432C1473.74 332.152 1474.32 333.068 1474.75 334.182C1475.17 335.288 1475.38 336.606 1475.38 338.136V339.398H1461.08V336.625H1471.44C1471.43 335.837 1471.26 335.136 1470.93 334.523C1470.6 333.902 1470.13 333.413 1469.53 333.057C1468.94 332.701 1468.25 332.523 1467.46 332.523C1466.62 332.523 1465.88 332.727 1465.25 333.136C1464.61 333.538 1464.12 334.068 1463.76 334.727C1463.41 335.379 1463.23 336.095 1463.23 336.875V339.295C1463.23 340.311 1463.41 341.182 1463.78 341.909C1464.15 342.629 1464.67 343.182 1465.34 343.568C1466.01 343.947 1466.79 344.136 1467.68 344.136C1468.28 344.136 1468.82 344.053 1469.3 343.886C1469.79 343.712 1470.21 343.458 1470.57 343.125C1470.92 342.792 1471.19 342.379 1471.37 341.886L1475.21 342.318C1474.97 343.333 1474.51 344.22 1473.83 344.977C1473.15 345.727 1472.29 346.311 1471.24 346.727C1470.18 347.136 1468.98 347.341 1467.62 347.341ZM1486.14 353.909C1484.66 353.909 1483.39 353.708 1482.33 353.307C1481.27 352.913 1480.42 352.383 1479.77 351.716C1479.13 351.049 1478.68 350.311 1478.43 349.5L1482.14 348.602C1482.3 348.943 1482.54 349.28 1482.86 349.614C1483.18 349.955 1483.61 350.235 1484.15 350.455C1484.69 350.682 1485.38 350.795 1486.2 350.795C1487.37 350.795 1488.34 350.511 1489.1 349.943C1489.87 349.383 1490.25 348.458 1490.25 347.17V343.864H1490.04C1489.83 344.288 1489.52 344.723 1489.11 345.17C1488.71 345.617 1488.18 345.992 1487.51 346.295C1486.85 346.598 1486.02 346.75 1485.02 346.75C1483.68 346.75 1482.46 346.436 1481.37 345.807C1480.29 345.17 1479.43 344.223 1478.78 342.966C1478.15 341.701 1477.83 340.117 1477.83 338.216C1477.83 336.299 1478.15 334.682 1478.78 333.364C1479.43 332.038 1480.29 331.034 1481.39 330.352C1482.48 329.663 1483.69 329.318 1485.03 329.318C1486.06 329.318 1486.9 329.492 1487.56 329.841C1488.22 330.182 1488.75 330.595 1489.15 331.08C1489.54 331.557 1489.84 332.008 1490.04 332.432H1490.27V329.545H1494.33V347.284C1494.33 348.777 1493.97 350.011 1493.26 350.989C1492.55 351.966 1491.57 352.697 1490.34 353.182C1489.1 353.667 1487.7 353.909 1486.14 353.909ZM1486.17 343.523C1487.04 343.523 1487.78 343.311 1488.4 342.886C1489.01 342.462 1489.48 341.852 1489.79 341.057C1490.11 340.261 1490.27 339.307 1490.27 338.193C1490.27 337.095 1490.11 336.133 1489.79 335.307C1489.48 334.481 1489.02 333.841 1488.41 333.386C1487.8 332.924 1487.06 332.693 1486.17 332.693C1485.25 332.693 1484.49 332.932 1483.87 333.409C1483.26 333.886 1482.8 334.542 1482.49 335.375C1482.18 336.201 1482.02 337.14 1482.02 338.193C1482.02 339.261 1482.18 340.197 1482.49 341C1482.81 341.795 1483.27 342.417 1483.89 342.864C1484.51 343.303 1485.27 343.523 1486.17 343.523ZM1498.22 347V329.545H1502.34V347H1498.22ZM1500.29 327.068C1499.64 327.068 1499.08 326.852 1498.61 326.42C1498.14 325.981 1497.91 325.455 1497.91 324.841C1497.91 324.22 1498.14 323.693 1498.61 323.261C1499.08 322.822 1499.64 322.602 1500.29 322.602C1500.95 322.602 1501.51 322.822 1501.97 323.261C1502.44 323.693 1502.68 324.22 1502.68 324.841C1502.68 325.455 1502.44 325.981 1501.97 326.42C1501.51 326.852 1500.95 327.068 1500.29 327.068ZM1513.86 347.341C1512.16 347.341 1510.68 346.966 1509.43 346.216C1508.18 345.466 1507.21 344.417 1506.52 343.068C1505.84 341.72 1505.5 340.144 1505.5 338.341C1505.5 336.538 1505.84 334.958 1506.52 333.602C1507.21 332.246 1508.18 331.193 1509.43 330.443C1510.68 329.693 1512.16 329.318 1513.86 329.318C1515.57 329.318 1517.04 329.693 1518.29 330.443C1519.54 331.193 1520.51 332.246 1521.19 333.602C1521.88 334.958 1522.23 336.538 1522.23 338.341C1522.23 340.144 1521.88 341.72 1521.19 343.068C1520.51 344.417 1519.54 345.466 1518.29 346.216C1517.04 346.966 1515.57 347.341 1513.86 347.341ZM1513.88 344.045C1514.81 344.045 1515.58 343.792 1516.2 343.284C1516.82 342.769 1517.29 342.08 1517.59 341.216C1517.9 340.352 1518.05 339.39 1518.05 338.33C1518.05 337.261 1517.9 336.295 1517.59 335.432C1517.29 334.561 1516.82 333.867 1516.2 333.352C1515.58 332.837 1514.81 332.58 1513.88 332.58C1512.94 332.58 1512.15 332.837 1511.52 333.352C1510.9 333.867 1510.43 334.561 1510.12 335.432C1509.82 336.295 1509.67 337.261 1509.67 338.33C1509.67 339.39 1509.82 340.352 1510.12 341.216C1510.43 342.08 1510.9 342.769 1511.52 343.284C1512.15 343.792 1512.94 344.045 1513.88 344.045ZM1529.51 336.773V347H1525.4V329.545H1529.33V332.511H1529.53C1529.93 331.534 1530.57 330.758 1531.45 330.182C1532.34 329.606 1533.43 329.318 1534.74 329.318C1535.94 329.318 1536.99 329.576 1537.89 330.091C1538.79 330.606 1539.48 331.352 1539.98 332.33C1540.48 333.307 1540.72 334.492 1540.71 335.886V347H1536.6V336.523C1536.6 335.356 1536.3 334.443 1535.69 333.784C1535.09 333.125 1534.26 332.795 1533.2 332.795C1532.48 332.795 1531.84 332.955 1531.28 333.273C1530.73 333.583 1530.29 334.034 1529.98 334.625C1529.67 335.216 1529.51 335.932 1529.51 336.773Z" fill="white"/>
</svg>
